<?xml version="1.0" encoding="UTF-8"?>
<svg id="Capa_1" data-name="Capa 1" xmlns="http://www.w3.org/2000/svg" xmlns:xlink="http://www.w3.org/1999/xlink" viewBox="0 0 1920 1081">
  <defs>
    <style>
      .cls-1 {
        clip-path: url(#clippath-6);
      }

      .cls-2 {
        clip-path: url(#clippath-7);
      }

      .cls-3 {
        clip-path: url(#clippath-4);
      }

      .cls-4 {
        fill: #f8b4a3;
      }

      .cls-5 {
        clip-path: url(#clippath-9);
      }

      .cls-6 {
        fill: #5f0229;
      }

      .cls-7 {
        fill: none;
      }

      .cls-8 {
        clip-path: url(#clippath-1);
      }

      .cls-9 {
        clip-path: url(#clippath-5);
      }

      .cls-10 {
        clip-path: url(#clippath-8);
      }

      .cls-11 {
        clip-path: url(#clippath-3);
      }

      .cls-12 {
        fill: #e31837;
      }

      .cls-13 {
        clip-path: url(#clippath-2);
      }

      .cls-14 {
        clip-path: url(#clippath);
      }
    </style>
    <clipPath id="clippath">
      <rect class="cls-6" x="-1973.41" y="-33.8" width="1920" height="1081"/>
    </clipPath>
    <clipPath id="clippath-1">
      <rect class="cls-7" x="-2133.04" y="-146.61" width="2239.26" height="1306.64"/>
    </clipPath>
    <clipPath id="clippath-2">
      <rect class="cls-12" x="0" y="1110.99" width="1920" height="1081"/>
    </clipPath>
    <clipPath id="clippath-3">
      <rect class="cls-7" x="-289.73" y="1017.43" width="2499.47" height="1268.13"/>
    </clipPath>
    <clipPath id="clippath-4">
      <rect class="cls-7" width="1919.84" height="1081.17"/>
    </clipPath>
    <clipPath id="clippath-5">
      <rect class="cls-7" x="-1047.72" y="-868.84" width="4015.43" height="2818.67"/>
    </clipPath>
    <clipPath id="clippath-6">
      <rect class="cls-12" x="-1973.41" y="1110.99" width="1920" height="1081"/>
    </clipPath>
    <clipPath id="clippath-7">
      <rect class="cls-7" x="-3945.01" y="4.06" width="5858.15" height="3295.45"/>
    </clipPath>
    <clipPath id="clippath-8">
      <rect class="cls-4" x="1967.91" y="1110.99" width="1920" height="1081"/>
    </clipPath>
    <clipPath id="clippath-9">
      <rect class="cls-7" x="1915.16" y="819.48" width="2025.49" height="1664.03"/>
    </clipPath>
  </defs>
  <g>
    <rect class="cls-6" x="-1973.41" y="-33.8" width="1920" height="1081"/>
    <g class="cls-14">
      <g class="cls-8">
        <g>
          <g id="_Grid_Repeat_" data-name="&amp;lt;Grid Repeat&amp;gt;">
            <polygon class="cls-12" points="85.21 108.94 85.21 306.06 -134.7 223.24 -134.7 26.12 85.21 108.94"/>
          </g>
          <g id="_Grid_Repeat_-2" data-name="&amp;lt;Grid Repeat&amp;gt;">
            <g>
              <polygon class="cls-12" points="-15.13 -88.09 -15.13 109.03 204.77 26.21 204.77 -170.91 -15.13 -88.09"/>
              <polygon class="cls-12" points="424.67 108.94 424.67 306.06 204.77 223.24 204.77 26.12 424.67 108.94"/>
            </g>
          </g>
          <g id="_Grid_Repeat_-3" data-name="&amp;lt;Grid Repeat&amp;gt;">
            <g>
              <polygon class="cls-12" points="-184.87 368.35 -184.87 565.47 35.04 482.65 35.04 285.53 -184.87 368.35"/>
              <polygon class="cls-12" points="254.94 565.38 254.94 762.5 35.04 679.68 35.04 482.56 254.94 565.38"/>
            </g>
          </g>
          <g id="_Grid_Repeat_-4" data-name="&amp;lt;Grid Repeat&amp;gt;">
            <polygon class="cls-12" points="85.21 1021.82 85.21 1218.94 -134.7 1136.12 -134.7 939 85.21 1021.82"/>
          </g>
          <g id="_Grid_Repeat_-5" data-name="&amp;lt;Grid Repeat&amp;gt;">
            <g>
              <polygon class="cls-12" points="-15.13 824.79 -15.13 1021.92 204.77 939.09 204.77 741.97 -15.13 824.79"/>
              <polygon class="cls-12" points="424.67 1021.82 424.67 1218.94 204.77 1136.12 204.77 939 424.67 1021.82"/>
            </g>
          </g>
        </g>
      </g>
    </g>
  </g>
  <g>
    <rect class="cls-12" x="0" y="1110.99" width="1920" height="1081"/>
    <g class="cls-13">
      <g class="cls-11">
        <g>
          <g id="_Repetición_de_cuadrícula_" data-name="&amp;lt;Repetición de cuadrícula&amp;gt;">
            <polygon class="cls-4" points="541.4 888.37 541.4 1128.23 264.35 1027.45 264.35 787.59 541.4 888.37"/>
          </g>
          <g id="_Repetición_de_cuadrícula_-2" data-name="&amp;lt;Repetición de cuadrícula&amp;gt;">
            <polygon class="cls-4" points="1095.49 888.37 1095.49 1128.23 818.44 1027.45 818.44 787.59 1095.49 888.37"/>
          </g>
          <g id="_Repetición_de_cuadrícula_-3" data-name="&amp;lt;Repetición de cuadrícula&amp;gt;">
            <polygon class="cls-4" points="1649.58 888.37 1649.58 1128.23 1372.53 1027.45 1372.53 787.59 1649.58 888.37"/>
          </g>
          <g id="_Repetición_de_cuadrícula_-4" data-name="&amp;lt;Repetición de cuadrícula&amp;gt;">
            <polygon class="cls-4" points="-12.69 1088.45 -12.69 1328.32 264.35 1227.53 264.35 987.67 -12.69 1088.45"/>
          </g>
          <g id="_Repetición_de_cuadrícula_-5" data-name="&amp;lt;Repetición de cuadrícula&amp;gt;">
            <polygon class="cls-4" points="541.4 1088.45 541.4 1328.32 818.44 1227.53 818.44 987.67 541.4 1088.45"/>
          </g>
          <g id="_Repetición_de_cuadrícula_-6" data-name="&amp;lt;Repetición de cuadrícula&amp;gt;">
            <polygon class="cls-4" points="1095.49 1088.45 1095.49 1328.32 1372.53 1227.53 1372.53 987.67 1095.49 1088.45"/>
          </g>
          <g id="_Repetición_de_cuadrícula_-7" data-name="&amp;lt;Repetición de cuadrícula&amp;gt;">
            <polygon class="cls-4" points="1649.58 1088.45 1649.58 1328.32 1926.62 1227.53 1926.62 987.67 1649.58 1088.45"/>
          </g>
        </g>
      </g>
    </g>
  </g>
  <rect class="cls-12" width="1920" height="1081"/>
  <g class="cls-3">
    <g class="cls-9">
      <g>
        <path class="cls-6" d="M57.76,314.32H-494.98v-175.41L57.76-62.16v376.48Z"/>
        <path class="cls-6" d="M610.51,112.94H57.76V-62.47l552.74-201.07V112.94Z"/>
        <path class="cls-6" d="M1163.25,314.32h-552.74v-175.41L1163.25-62.16v376.48Z"/>
        <path class="cls-6" d="M1715.99,112.94h-552.74V-62.47l552.74-201.07V112.94Z"/>
        <path class="cls-6" d="M2268.73,314.32h-552.74v-175.41l552.74-201.07v376.48Z"/>
        <path class="cls-6" d="M57.76,717.07H-494.98v-175.41L57.76,340.59v376.48Z"/>
        <path class="cls-6" d="M610.51,515.69H57.76v-175.41l552.74-201.07v376.48Z"/>
        <path class="cls-6" d="M1163.25,717.07h-552.74v-175.41l552.74-201.07v376.48Z"/>
        <path class="cls-6" d="M1715.99,515.69h-552.74v-175.41l552.74-201.07v376.48Z"/>
        <path class="cls-6" d="M2268.73,717.07h-552.74v-175.41l552.74-201.07v376.48Z"/>
        <path class="cls-6" d="M57.76,1119.82H-494.98v-175.41L57.76,743.34v376.48Z"/>
        <path class="cls-6" d="M610.51,918.44H57.76v-175.41l552.74-201.07v376.48Z"/>
        <path class="cls-6" d="M1163.25,1119.82h-552.74v-175.41l552.74-201.07v376.48Z"/>
        <path class="cls-6" d="M1715.99,918.44h-552.74v-175.41l552.74-201.07v376.48Z"/>
        <path class="cls-6" d="M2268.73,1119.82h-552.74v-175.41l552.74-201.07v376.48Z"/>
        <path class="cls-6" d="M610.51,1321.2H57.76v-175.41l552.74-201.07v376.48Z"/>
        <path class="cls-6" d="M1715.99,1321.2h-552.74v-175.41l552.74-201.07v376.48Z"/>
      </g>
    </g>
  </g>
  <g>
    <rect class="cls-12" x="-1973.41" y="1110.99" width="1920" height="1081"/>
    <g class="cls-1">
      <g class="cls-2">
        <g>
          <polygon class="cls-6" points="-18.6 4.06 -18.6 208.11 542.32 4.06 -18.6 4.06"/>
          <g>
            <polygon class="cls-6" points="1103.24 208.11 1103.24 4.06 542.32 208.11 1103.24 208.11"/>
            <polygon class="cls-6" points="1103.24 -199.99 1103.24 4.06 1664.15 -199.99 1103.24 -199.99"/>
          </g>
          <polygon class="cls-6" points="2225.07 412.15 2225.07 208.11 1664.15 412.15 2225.07 412.15"/>
          <polygon class="cls-6" points="-18.6 412.15 -18.6 616.2 542.32 412.15 -18.6 412.15"/>
          <g>
            <polygon class="cls-6" points="1103.24 616.2 1103.24 412.15 542.32 616.2 1103.24 616.2"/>
            <polygon class="cls-6" points="1103.24 208.11 1103.24 412.15 1664.15 208.11 1103.24 208.11"/>
          </g>
          <polygon class="cls-6" points="2225.07 820.25 2225.07 616.2 1664.15 820.25 2225.07 820.25"/>
          <polygon class="cls-6" points="-18.6 820.25 -18.6 1024.3 542.32 820.25 -18.6 820.25"/>
          <g>
            <polygon class="cls-6" points="1103.24 1024.3 1103.24 820.25 542.32 1024.3 1103.24 1024.3"/>
            <polygon class="cls-6" points="1103.24 616.2 1103.24 820.25 1664.15 616.2 1103.24 616.2"/>
          </g>
          <polygon class="cls-6" points="2225.07 1228.35 2225.07 1024.3 1664.15 1228.35 2225.07 1228.35"/>
          <polygon class="cls-6" points="1103.24 1024.3 1103.24 1228.35 1664.15 1024.3 1103.24 1024.3"/>
        </g>
      </g>
    </g>
  </g>
  <g>
    <rect class="cls-4" x="1967.91" y="1110.99" width="1920" height="1081"/>
    <g class="cls-10">
      <g class="cls-5">
        <g>
          <g id="_Repetición_de_cuadrícula_-8" data-name="&amp;lt;Repetición de cuadrícula&amp;gt;">
            <g>
              <polygon class="cls-12" points="1992.82 773.42 1992.82 567.08 1733.47 661.43 1733.47 773.42 1992.82 773.42"/>
              <polygon class="cls-12" points="1917.11 695.83 1917.11 902.18 2176.46 807.83 2176.46 695.83 1917.11 695.83"/>
            </g>
          </g>
          <g id="_Repetición_de_cuadrícula_-9" data-name="&amp;lt;Repetición de cuadrícula&amp;gt;">
            <polygon class="cls-12" points="1992.82 1223.62 1992.82 1017.27 1733.47 1111.62 1733.47 1223.62 1992.82 1223.62"/>
          </g>
        </g>
      </g>
    </g>
  </g>
</svg>