<?xml version="1.0" encoding="UTF-8"?>
<svg id="Capa_1" data-name="Capa 1" xmlns="http://www.w3.org/2000/svg" xmlns:xlink="http://www.w3.org/1999/xlink" viewBox="0 0 1920 1081">
  <defs>
    <style>
      .cls-1, .cls-2 {
        stroke: #f8b4a3;
      }

      .cls-1, .cls-2, .cls-3, .cls-4, .cls-5 {
        fill: none;
      }

      .cls-1, .cls-2, .cls-3, .cls-5 {
        stroke-miterlimit: 10;
      }

      .cls-6 {
        clip-path: url(#clippath-6);
      }

      .cls-7 {
        clip-path: url(#clippath-7);
      }

      .cls-8 {
        clip-path: url(#clippath-4);
      }

      .cls-9 {
        fill: #f8b4a3;
      }

      .cls-10 {
        fill: #4a453d;
      }

      .cls-2 {
        stroke-width: 2px;
      }

      .cls-3, .cls-5 {
        stroke: #e31837;
      }

      .cls-11 {
        fill: #5f0229;
      }

      .cls-5 {
        stroke-width: 1.33px;
      }

      .cls-12 {
        clip-path: url(#clippath-1);
      }

      .cls-13 {
        clip-path: url(#clippath-5);
      }

      .cls-14 {
        clip-path: url(#clippath-8);
      }

      .cls-15 {
        clip-path: url(#clippath-3);
      }

      .cls-16 {
        fill: #29251d;
      }

      .cls-17 {
        clip-path: url(#clippath-2);
      }

      .cls-18 {
        clip-path: url(#clippath);
      }
    </style>
    <clipPath id="clippath">
      <rect class="cls-4" x="2.84" y="-1105.72" width="1919.84" height="1081.17"/>
    </clipPath>
    <clipPath id="clippath-1">
      <rect class="cls-4" x="-663.51" y="-1706.85" width="3252.69" height="2283.26"/>
    </clipPath>
    <clipPath id="clippath-2">
      <rect class="cls-11" x="-1964.55" y="0" width="1920" height="1081"/>
    </clipPath>
    <clipPath id="clippath-3">
      <rect class="cls-4" x="-2017.29" y="-291.52" width="2025.49" height="1664.03"/>
    </clipPath>
    <clipPath id="clippath-4">
      <rect class="cls-9" x="-1964.55" y="-1105.72" width="1920" height="1081"/>
    </clipPath>
    <clipPath id="clippath-5">
      <rect class="cls-4" x="-2860.36" y="-1658.15" width="3906.29" height="2197.45"/>
    </clipPath>
    <clipPath id="clippath-6">
      <rect class="cls-11" y="0" width="1922.26" height="1080.26"/>
    </clipPath>
    <clipPath id="clippath-7">
      <rect class="cls-10" x="2668.59" y="-10.14" width="1920" height="1081"/>
    </clipPath>
    <clipPath id="clippath-8">
      <rect class="cls-4" x="696.99" y="-1117.07" width="5858.15" height="3295.45"/>
    </clipPath>
  </defs>
  <g class="cls-18">
    <g class="cls-12">
      <g>
        <g id="_Repetición_de_cuadrícula_" data-name="&amp;lt;Repetición de cuadrícula&amp;gt;">
          <path class="cls-2" d="M230.8,227.86H-216.95V66.33L230.8-96.55V227.86Z"/>
        </g>
        <g id="_Repetición_de_cuadrícula_-2" data-name="&amp;lt;Repetición de cuadrícula&amp;gt;">
          <path class="cls-2" d="M679.73,64.85H231.99V-96.68l447.75-162.88V64.85Z"/>
        </g>
        <g id="_Repetición_de_cuadrícula_-3" data-name="&amp;lt;Repetición de cuadrícula&amp;gt;">
          <path class="cls-2" d="M1128.67,227.86h-447.75V66.33l447.75-162.88V227.86Z"/>
        </g>
        <g id="_Repetición_de_cuadrícula_-4" data-name="&amp;lt;Repetición de cuadrícula&amp;gt;">
          <path class="cls-2" d="M1577.6,64.85h-447.75V-96.68l447.75-162.88V64.85Z"/>
        </g>
        <g id="_Repetición_de_cuadrícula_-5" data-name="&amp;lt;Repetición de cuadrícula&amp;gt;">
          <path class="cls-2" d="M2026.54,227.86h-447.75V66.33l447.75-162.88V227.86Z"/>
        </g>
        <g id="_Repetición_de_cuadrícula_-6" data-name="&amp;lt;Repetición de cuadrícula&amp;gt;">
          <path class="cls-2" d="M230.8,553.89H-216.95v-161.53L230.8,229.48v324.41Z"/>
        </g>
        <g id="_Repetición_de_cuadrícula_-7" data-name="&amp;lt;Repetición de cuadrícula&amp;gt;">
          <path class="cls-2" d="M679.73,390.88H231.99v-161.53l447.75-162.88v324.41Z"/>
        </g>
        <g id="_Repetición_de_cuadrícula_-8" data-name="&amp;lt;Repetición de cuadrícula&amp;gt;">
          <path class="cls-2" d="M1128.67,553.89h-447.75v-161.53l447.75-162.88v324.41Z"/>
        </g>
        <g id="_Repetición_de_cuadrícula_-9" data-name="&amp;lt;Repetición de cuadrícula&amp;gt;">
          <path class="cls-2" d="M1577.6,390.88h-447.75v-161.53l447.75-162.88v324.41Z"/>
        </g>
        <g id="_Repetición_de_cuadrícula_-10" data-name="&amp;lt;Repetición de cuadrícula&amp;gt;">
          <path class="cls-2" d="M2026.54,553.89h-447.75v-161.53l447.75-162.88v324.41Z"/>
        </g>
        <g id="_Repetición_de_cuadrícula_-11" data-name="&amp;lt;Repetición de cuadrícula&amp;gt;">
          <path class="cls-2" d="M230.8,879.92H-216.95v-161.53l447.75-162.88v324.41Z"/>
        </g>
        <g id="_Repetición_de_cuadrícula_-12" data-name="&amp;lt;Repetición de cuadrícula&amp;gt;">
          <path class="cls-2" d="M679.73,716.9H231.99v-161.53l447.75-162.88v324.41Z"/>
        </g>
        <g id="_Repetición_de_cuadrícula_-13" data-name="&amp;lt;Repetición de cuadrícula&amp;gt;">
          <path class="cls-2" d="M1128.67,879.92h-447.75v-161.53l447.75-162.88v324.41Z"/>
        </g>
        <g id="_Repetición_de_cuadrícula_-14" data-name="&amp;lt;Repetición de cuadrícula&amp;gt;">
          <path class="cls-2" d="M1577.6,716.9h-447.75v-161.53l447.75-162.88v324.41Z"/>
        </g>
        <g id="_Repetición_de_cuadrícula_-15" data-name="&amp;lt;Repetición de cuadrícula&amp;gt;">
          <path class="cls-2" d="M2026.54,879.92h-447.75v-161.53l447.75-162.88v324.41Z"/>
        </g>
      </g>
    </g>
  </g>
  <g>
    <rect class="cls-11" x="-1964.55" y="0" width="1920" height="1081"/>
    <g class="cls-17">
      <g class="cls-15">
        <g>
          <g id="_Repetición_de_cuadrícula_-16" data-name="&amp;lt;Repetición de cuadrícula&amp;gt;">
            <polygon class="cls-3" points="-121.13 -201.35 -121.13 -330.1 -380.48 -235.75 -380.48 -123.76 -196.84 -123.76 -196.84 5 62.51 -89.35 62.51 -201.35 -121.13 -201.35"/>
          </g>
          <g id="_Repetición_de_cuadrícula_-17" data-name="&amp;lt;Repetición de cuadrícula&amp;gt;">
            <polygon class="cls-3" points="213.54 -47.52 213.54 -176.27 -45.81 -81.93 -45.81 30.07 137.83 30.07 137.83 158.82 397.18 64.48 397.18 -47.52 213.54 -47.52"/>
          </g>
          <g id="_Repetición_de_cuadrícula_-18" data-name="&amp;lt;Repetición de cuadrícula&amp;gt;">
            <polygon class="cls-3" points="-121.13 106.31 -121.13 -22.45 -380.48 71.9 -380.48 183.9 -196.84 183.9 -196.84 312.65 62.51 218.3 62.51 106.31 -121.13 106.31"/>
          </g>
          <g id="_Repetición_de_cuadrícula_-19" data-name="&amp;lt;Repetición de cuadrícula&amp;gt;">
            <polygon class="cls-3" points="213.54 260.13 213.54 131.38 -45.81 225.72 -45.81 337.72 137.83 337.72 137.83 466.48 397.18 372.13 397.18 260.13 213.54 260.13"/>
          </g>
          <g id="_Repetición_de_cuadrícula_-20" data-name="&amp;lt;Repetición de cuadrícula&amp;gt;">
            <polygon class="cls-3" points="-121.13 413.96 -121.13 285.2 -380.48 379.55 -380.48 491.55 -196.84 491.55 -196.84 620.3 62.51 525.95 62.51 413.96 -121.13 413.96"/>
          </g>
          <g id="_Repetición_de_cuadrícula_-21" data-name="&amp;lt;Repetición de cuadrícula&amp;gt;">
            <polygon class="cls-3" points="213.54 567.78 213.54 439.03 -45.81 533.38 -45.81 645.37 137.83 645.37 137.83 774.13 397.18 679.78 397.18 567.78 213.54 567.78"/>
          </g>
          <g id="_Repetición_de_cuadrícula_-22" data-name="&amp;lt;Repetición de cuadrícula&amp;gt;">
            <polygon class="cls-3" points="-121.13 721.61 -121.13 592.85 -380.48 687.2 -380.48 799.2 -196.84 799.2 -196.84 927.95 62.51 833.6 62.51 721.61 -121.13 721.61"/>
          </g>
          <g id="_Repetición_de_cuadrícula_-23" data-name="&amp;lt;Repetición de cuadrícula&amp;gt;">
            <polygon class="cls-3" points="213.54 875.43 213.54 746.68 -45.81 841.03 -45.81 953.02 137.83 953.02 137.83 1081.78 397.18 987.43 397.18 875.43 213.54 875.43"/>
          </g>
          <g id="_Repetición_de_cuadrícula_-24" data-name="&amp;lt;Repetición de cuadrícula&amp;gt;">
            <polygon class="cls-3" points="-121.13 1029.26 -121.13 900.51 -380.48 994.85 -380.48 1106.85 -196.84 1106.85 -196.84 1235.6 62.51 1141.26 62.51 1029.26 -121.13 1029.26"/>
          </g>
          <g id="_Repetición_de_cuadrícula_-25" data-name="&amp;lt;Repetición de cuadrícula&amp;gt;">
            <polygon class="cls-3" points="213.54 1183.08 213.54 1054.33 -45.81 1148.68 -45.81 1260.67 137.83 1260.67 137.83 1389.43 397.18 1295.08 397.18 1183.08 213.54 1183.08"/>
          </g>
        </g>
      </g>
    </g>
  </g>
  <g>
    <rect class="cls-9" x="-1964.55" y="-1105.72" width="1920" height="1081"/>
    <g class="cls-8">
      <g class="cls-13">
        <g>
          <g id="_Repetición_de_cuadrícula_-26" data-name="&amp;lt;Repetición de cuadrícula&amp;gt;">
            <polygon class="cls-5" points="524.79 115.67 524.79 -20.4 150.77 115.67 524.79 115.67"/>
          </g>
          <g id="_Repetición_de_cuadrícula_-27" data-name="&amp;lt;Repetición de cuadrícula&amp;gt;">
            <polygon class="cls-5" points="-230.83 -19.73 -230.83 116.33 143.2 -19.73 -230.83 -19.73"/>
          </g>
          <g id="_Repetición_de_cuadrícula_-28" data-name="&amp;lt;Repetición de cuadrícula&amp;gt;">
            <g>
              <polygon class="cls-5" points="524.79 389.13 524.79 253.06 150.77 389.13 524.79 389.13"/>
              <polygon class="cls-5" points="524.79 117 524.79 253.06 898.82 117 524.79 117"/>
            </g>
          </g>
          <g id="_Repetición_de_cuadrícula_-29" data-name="&amp;lt;Repetición de cuadrícula&amp;gt;">
            <g>
              <polygon class="cls-5" points="1280.41 252.4 1280.41 116.33 906.39 252.4 1280.41 252.4"/>
              <polygon class="cls-5" points="1280.41 -19.73 1280.41 116.33 1654.44 -19.73 1280.41 -19.73"/>
            </g>
          </g>
          <g id="_Repetición_de_cuadrícula_-30" data-name="&amp;lt;Repetición de cuadrícula&amp;gt;">
            <polygon class="cls-5" points="-230.83 253.73 -230.83 389.79 143.2 253.73 -230.83 253.73"/>
          </g>
          <g id="_Repetición_de_cuadrícula_-31" data-name="&amp;lt;Repetición de cuadrícula&amp;gt;">
            <g>
              <polygon class="cls-5" points="524.79 662.59 524.79 526.52 150.77 662.59 524.79 662.59"/>
              <polygon class="cls-5" points="524.79 390.46 524.79 526.52 898.82 390.46 524.79 390.46"/>
            </g>
          </g>
          <g id="_Repetición_de_cuadrícula_-32" data-name="&amp;lt;Repetición de cuadrícula&amp;gt;">
            <g>
              <polygon class="cls-5" points="1280.41 525.86 1280.41 389.79 906.39 525.86 1280.41 525.86"/>
              <polygon class="cls-5" points="1280.41 253.73 1280.41 389.79 1654.44 253.73 1280.41 253.73"/>
            </g>
          </g>
          <g id="_Repetición_de_cuadrícula_-33" data-name="&amp;lt;Repetición de cuadrícula&amp;gt;">
            <polygon class="cls-5" points="-230.83 527.19 -230.83 663.25 143.2 527.19 -230.83 527.19"/>
          </g>
          <g id="_Repetición_de_cuadrícula_-34" data-name="&amp;lt;Repetición de cuadrícula&amp;gt;">
            <g>
              <polygon class="cls-5" points="1280.41 799.32 1280.41 663.25 906.39 799.32 1280.41 799.32"/>
              <polygon class="cls-5" points="1280.41 527.19 1280.41 663.25 1654.44 527.19 1280.41 527.19"/>
            </g>
          </g>
        </g>
      </g>
    </g>
  </g>
  <g>
    <rect class="cls-11" y="0" width="1922.26" height="1080.26"/>
    <g class="cls-6">
      <rect class="cls-4" y="0" width="1920" height="1081"/>
      <g>
        <g id="_Repetición_de_cuadrícula_-35" data-name="&amp;lt;Repetición de cuadrícula&amp;gt;">
          <g id="_Repetición_de_cuadrícula_-36" data-name="&amp;lt;Repetición de cuadrícula&amp;gt;">
            <g>
              <path class="cls-1" d="M0,207.69h-320.08v-101.57L0-10.31v218.01Z"/>
              <path class="cls-1" d="M-.12-125.11h320.08V-23.54L-.12,92.9V-125.11Z"/>
            </g>
          </g>
        </g>
        <g id="_Repetición_de_cuadrícula_-37" data-name="&amp;lt;Repetición de cuadrícula&amp;gt;">
          <g id="_Repetición_de_cuadrícula_-38" data-name="&amp;lt;Repetición de cuadrícula&amp;gt;">
            <g>
              <path class="cls-1" d="M640.03,207.69h-320.08v-101.57L640.03-10.31v218.01Z"/>
              <path class="cls-1" d="M639.92-125.11h320.08V-23.54l-320.08,116.44V-125.11Z"/>
            </g>
          </g>
        </g>
        <g id="_Repetición_de_cuadrícula_-39" data-name="&amp;lt;Repetición de cuadrícula&amp;gt;">
          <g id="_Repetición_de_cuadrícula_-40" data-name="&amp;lt;Repetición de cuadrícula&amp;gt;">
            <g>
              <path class="cls-1" d="M1280.08,207.69h-320.08v-101.57L1280.08-10.31v218.01Z"/>
              <path class="cls-1" d="M1279.97-125.11h320.08V-23.54l-320.08,116.44V-125.11Z"/>
            </g>
          </g>
        </g>
        <g id="_Repetición_de_cuadrícula_-41" data-name="&amp;lt;Repetición de cuadrícula&amp;gt;">
          <g id="_Repetición_de_cuadrícula_-42" data-name="&amp;lt;Repetición de cuadrícula&amp;gt;">
            <g>
              <path class="cls-1" d="M1920.12,207.69h-320.08v-101.57L1920.12-10.31v218.01Z"/>
              <path class="cls-1" d="M1920.01-125.11h320.08V-23.54l-320.08,116.44V-125.11Z"/>
            </g>
          </g>
        </g>
        <g id="_Repetición_de_cuadrícula_-43" data-name="&amp;lt;Repetición de cuadrícula&amp;gt;">
          <g id="_Repetición_de_cuadrícula_-44" data-name="&amp;lt;Repetición de cuadrícula&amp;gt;">
            <g>
              <path class="cls-1" d="M0,540.5h-320.08v-101.57L0,322.49v218.01Z"/>
              <path class="cls-1" d="M-.12,207.69h320.08v101.57L-.12,425.7v-218.01Z"/>
            </g>
          </g>
        </g>
        <g id="_Repetición_de_cuadrícula_-45" data-name="&amp;lt;Repetición de cuadrícula&amp;gt;">
          <g id="_Repetición_de_cuadrícula_-46" data-name="&amp;lt;Repetición de cuadrícula&amp;gt;">
            <g>
              <path class="cls-1" d="M640.03,540.5h-320.08v-101.57l320.08-116.44v218.01Z"/>
              <path class="cls-1" d="M639.92,207.69h320.08v101.57l-320.08,116.44v-218.01Z"/>
            </g>
          </g>
        </g>
        <g id="_Repetición_de_cuadrícula_-47" data-name="&amp;lt;Repetición de cuadrícula&amp;gt;">
          <g id="_Repetición_de_cuadrícula_-48" data-name="&amp;lt;Repetición de cuadrícula&amp;gt;">
            <g>
              <path class="cls-1" d="M1280.08,540.5h-320.08v-101.57l320.08-116.44v218.01Z"/>
              <path class="cls-1" d="M1279.97,207.69h320.08v101.57l-320.08,116.44v-218.01Z"/>
            </g>
          </g>
        </g>
        <g id="_Repetición_de_cuadrícula_-49" data-name="&amp;lt;Repetición de cuadrícula&amp;gt;">
          <g id="_Repetición_de_cuadrícula_-50" data-name="&amp;lt;Repetición de cuadrícula&amp;gt;">
            <g>
              <path class="cls-1" d="M1920.12,540.5h-320.08v-101.57l320.08-116.44v218.01Z"/>
              <path class="cls-1" d="M1920.01,207.69h320.08v101.57l-320.08,116.44v-218.01Z"/>
            </g>
          </g>
        </g>
        <g id="_Repetición_de_cuadrícula_-51" data-name="&amp;lt;Repetición de cuadrícula&amp;gt;">
          <g id="_Repetición_de_cuadrícula_-52" data-name="&amp;lt;Repetición de cuadrícula&amp;gt;">
            <g>
              <path class="cls-1" d="M0,873.31h-320.08v-101.57L0,655.3v218.01Z"/>
              <path class="cls-1" d="M-.12,540.5h320.08v101.57L-.12,758.51v-218.01Z"/>
            </g>
          </g>
        </g>
        <g id="_Repetición_de_cuadrícula_-53" data-name="&amp;lt;Repetición de cuadrícula&amp;gt;">
          <g id="_Repetición_de_cuadrícula_-54" data-name="&amp;lt;Repetición de cuadrícula&amp;gt;">
            <g>
              <path class="cls-1" d="M640.03,873.31h-320.08v-101.57l320.08-116.44v218.01Z"/>
              <path class="cls-1" d="M639.92,540.5h320.08v101.57l-320.08,116.44v-218.01Z"/>
            </g>
          </g>
        </g>
        <g id="_Repetición_de_cuadrícula_-55" data-name="&amp;lt;Repetición de cuadrícula&amp;gt;">
          <g id="_Repetición_de_cuadrícula_-56" data-name="&amp;lt;Repetición de cuadrícula&amp;gt;">
            <g>
              <path class="cls-1" d="M1280.08,873.31h-320.08v-101.57l320.08-116.44v218.01Z"/>
              <path class="cls-1" d="M1279.97,540.5h320.08v101.57l-320.08,116.44v-218.01Z"/>
            </g>
          </g>
        </g>
        <g id="_Repetición_de_cuadrícula_-57" data-name="&amp;lt;Repetición de cuadrícula&amp;gt;">
          <g id="_Repetición_de_cuadrícula_-58" data-name="&amp;lt;Repetición de cuadrícula&amp;gt;">
            <g>
              <path class="cls-1" d="M1920.12,873.31h-320.08v-101.57l320.08-116.44v218.01Z"/>
              <path class="cls-1" d="M1920.01,540.5h320.08v101.57l-320.08,116.44v-218.01Z"/>
            </g>
          </g>
        </g>
        <g id="_Repetición_de_cuadrícula_-59" data-name="&amp;lt;Repetición de cuadrícula&amp;gt;">
          <g id="_Repetición_de_cuadrícula_-60" data-name="&amp;lt;Repetición de cuadrícula&amp;gt;">
            <g>
              <path class="cls-1" d="M0,1206.11h-320.08v-101.57L0,988.1v218.01Z"/>
              <path class="cls-1" d="M-.12,873.31h320.08v101.57L-.12,1091.31v-218.01Z"/>
            </g>
          </g>
        </g>
        <g id="_Repetición_de_cuadrícula_-61" data-name="&amp;lt;Repetición de cuadrícula&amp;gt;">
          <g id="_Repetición_de_cuadrícula_-62" data-name="&amp;lt;Repetición de cuadrícula&amp;gt;">
            <g>
              <path class="cls-1" d="M640.03,1206.11h-320.08v-101.57l320.08-116.44v218.01Z"/>
              <path class="cls-1" d="M639.92,873.31h320.08v101.57l-320.08,116.44v-218.01Z"/>
            </g>
          </g>
        </g>
        <g id="_Repetición_de_cuadrícula_-63" data-name="&amp;lt;Repetición de cuadrícula&amp;gt;">
          <g id="_Repetición_de_cuadrícula_-64" data-name="&amp;lt;Repetición de cuadrícula&amp;gt;">
            <g>
              <path class="cls-1" d="M1280.08,1206.11h-320.08v-101.57l320.08-116.44v218.01Z"/>
              <path class="cls-1" d="M1279.97,873.31h320.08v101.57l-320.08,116.44v-218.01Z"/>
            </g>
          </g>
        </g>
        <g id="_Repetición_de_cuadrícula_-65" data-name="&amp;lt;Repetición de cuadrícula&amp;gt;">
          <g id="_Repetición_de_cuadrícula_-66" data-name="&amp;lt;Repetición de cuadrícula&amp;gt;">
            <g>
              <path class="cls-1" d="M1920.12,1206.11h-320.08v-101.57l320.08-116.44v218.01Z"/>
              <path class="cls-1" d="M1920.01,873.31h320.08v101.57l-320.08,116.44v-218.01Z"/>
            </g>
          </g>
        </g>
      </g>
    </g>
  </g>
  <g>
    <rect class="cls-10" x="2668.59" y="-10.14" width="1920" height="1081"/>
    <g class="cls-7">
      <g class="cls-14">
        <g>
          <polygon class="cls-16" points="136.08 107.22 136.08 -96.83 -424.84 107.22 136.08 107.22"/>
          <polygon class="cls-16" points="2379.74 107.22 2379.74 -96.83 1818.82 107.22 2379.74 107.22"/>
          <g>
            <polygon class="cls-16" points="136.08 515.32 136.08 311.27 -424.84 515.32 136.08 515.32"/>
            <polygon class="cls-16" points="136.08 107.22 136.08 311.27 696.99 107.22 136.08 107.22"/>
          </g>
          <g>
            <polygon class="cls-16" points="1257.91 311.27 1257.91 107.22 696.99 311.27 1257.91 311.27"/>
            <polygon class="cls-16" points="1257.91 -96.83 1257.91 107.22 1818.82 -96.83 1257.91 -96.83"/>
          </g>
          <polygon class="cls-16" points="2379.74 515.32 2379.74 311.27 1818.82 515.32 2379.74 515.32"/>
          <g>
            <polygon class="cls-16" points="136.08 923.42 136.08 719.37 -424.84 923.42 136.08 923.42"/>
            <polygon class="cls-16" points="136.08 515.32 136.08 719.37 696.99 515.32 136.08 515.32"/>
          </g>
          <g>
            <polygon class="cls-16" points="1257.91 719.37 1257.91 515.32 696.99 719.37 1257.91 719.37"/>
            <polygon class="cls-16" points="1257.91 311.27 1257.91 515.32 1818.82 311.27 1257.91 311.27"/>
          </g>
          <polygon class="cls-16" points="2379.74 923.42 2379.74 719.37 1818.82 923.42 2379.74 923.42"/>
          <polygon class="cls-16" points="136.08 923.42 136.08 1127.47 696.99 923.42 136.08 923.42"/>
          <g>
            <polygon class="cls-16" points="1257.91 1127.47 1257.91 923.42 696.99 1127.47 1257.91 1127.47"/>
            <polygon class="cls-16" points="1257.91 719.37 1257.91 923.42 1818.82 719.37 1257.91 719.37"/>
          </g>
        </g>
      </g>
    </g>
  </g>
</svg>