<?xml version="1.0" encoding="UTF-8"?>
<svg id="Capa_1" data-name="Capa 1" xmlns="http://www.w3.org/2000/svg" xmlns:xlink="http://www.w3.org/1999/xlink" viewBox="0 0 1920 1081">
  <defs>
    <style>
      .cls-1 {
        clip-path: url(#clippath-6);
      }

      .cls-2 {
        clip-path: url(#clippath-7);
      }

      .cls-3 {
        clip-path: url(#clippath-4);
      }

      .cls-4 {
        fill: #f8b4a3;
      }

      .cls-5 {
        clip-path: url(#clippath-9);
      }

      .cls-6 {
        fill: #5f0229;
      }

      .cls-7 {
        fill: none;
      }

      .cls-8 {
        clip-path: url(#clippath-1);
      }

      .cls-9 {
        clip-path: url(#clippath-8);
      }

      .cls-10 {
        clip-path: url(#clippath-3);
      }

      .cls-11 {
        fill: #e31837;
      }

      .cls-12 {
        clip-path: url(#clippath-2);
      }

      .cls-13 {
        clip-path: url(#clippath);
      }
    </style>
    <clipPath id="clippath">
      <rect class="cls-6" x="0" y="-1144.79" width="1920" height="1081"/>
    </clipPath>
    <clipPath id="clippath-1">
      <rect class="cls-7" x="-159.63" y="-1257.61" width="2239.26" height="1306.64"/>
    </clipPath>
    <clipPath id="clippath-2">
      <rect class="cls-11" x="1973.41" y="0" width="1920" height="1081"/>
    </clipPath>
    <clipPath id="clippath-3">
      <rect class="cls-7" x="1683.67" y="-93.56" width="2499.47" height="1268.13"/>
    </clipPath>
    <clipPath id="clippath-4">
      <rect class="cls-6" x="0" y="1127.58" width="1920" height="1081"/>
    </clipPath>
    <clipPath id="clippath-6">
      <rect class="cls-7" x="1973.41" y="-1110.99" width="1919.84" height="1081.17"/>
    </clipPath>
    <clipPath id="clippath-7">
      <rect class="cls-7" x="925.69" y="-1979.83" width="4015.43" height="2818.67"/>
    </clipPath>
    <clipPath id="clippath-8">
      <rect class="cls-11" width="1920" height="1081"/>
    </clipPath>
    <clipPath id="clippath-9">
      <rect class="cls-7" x="-1971.6" y="-1106.94" width="5858.15" height="3295.45"/>
    </clipPath>
  </defs>
  <g>
    <rect class="cls-6" x="0" y="-1144.79" width="1920" height="1081"/>
    <g class="cls-13">
      <g class="cls-8">
        <g>
          <g id="_Grid_Repeat_" data-name="&amp;lt;Grid Repeat&amp;gt;">
            <polygon class="cls-11" points="21.82 -89.17 21.82 107.95 -198.08 25.13 -198.08 -172 21.82 -89.17"/>
          </g>
          <g id="_Grid_Repeat_-2" data-name="&amp;lt;Grid Repeat&amp;gt;">
            <polygon class="cls-11" points="361.28 -89.17 361.28 107.95 141.38 25.13 141.38 -172 361.28 -89.17"/>
          </g>
          <g id="_Grid_Repeat_-3" data-name="&amp;lt;Grid Repeat&amp;gt;">
            <polygon class="cls-11" points="700.75 -89.17 700.75 107.95 480.85 25.13 480.85 -172 700.75 -89.17"/>
          </g>
          <g id="_Grid_Repeat_-4" data-name="&amp;lt;Grid Repeat&amp;gt;">
            <polygon class="cls-11" points="1040.22 -89.17 1040.22 107.95 820.31 25.13 820.31 -172 1040.22 -89.17"/>
          </g>
          <g id="_Grid_Repeat_-5" data-name="&amp;lt;Grid Repeat&amp;gt;">
            <polygon class="cls-11" points="1379.68 -89.17 1379.68 107.95 1159.78 25.13 1159.78 -172 1379.68 -89.17"/>
          </g>
          <g id="_Grid_Repeat_-6" data-name="&amp;lt;Grid Repeat&amp;gt;">
            <polygon class="cls-11" points="1719.15 -89.17 1719.15 107.95 1499.25 25.13 1499.25 -172 1719.15 -89.17"/>
          </g>
          <g id="_Grid_Repeat_-7" data-name="&amp;lt;Grid Repeat&amp;gt;">
            <polygon class="cls-11" points="2058.62 -89.17 2058.62 107.95 1838.71 25.13 1838.71 -172 2058.62 -89.17"/>
          </g>
        </g>
      </g>
    </g>
  </g>
  <g>
    <rect class="cls-11" x="1973.41" y="0" width="1920" height="1081"/>
    <g class="cls-12">
      <g class="cls-10">
        <g>
          <g id="_Repetición_de_cuadrícula_" data-name="&amp;lt;Repetición de cuadrícula&amp;gt;">
            <polygon class="cls-4" points="1960.72 -222.62 1960.72 17.24 1683.68 -83.54 1683.68 -323.41 1960.72 -222.62"/>
          </g>
          <g id="_Repetición_de_cuadrícula_-2" data-name="&amp;lt;Repetición de cuadrícula&amp;gt;">
            <polygon class="cls-4" points="1406.63 -22.54 1406.63 217.32 1683.68 116.54 1683.68 -123.32 1406.63 -22.54"/>
          </g>
          <g id="_Repetición_de_cuadrícula_-3" data-name="&amp;lt;Repetición de cuadrícula&amp;gt;">
            <polygon class="cls-4" points="1683.68 177.54 1683.68 417.41 1960.72 316.62 1960.72 76.76 1683.68 177.54"/>
          </g>
          <g id="_Repetición_de_cuadrícula_-4" data-name="&amp;lt;Repetición de cuadrícula&amp;gt;">
            <polygon class="cls-4" points="1683.68 377.62 1683.68 617.49 1406.63 516.71 1406.63 276.84 1683.68 377.62"/>
          </g>
          <g id="_Repetición_de_cuadrícula_-5" data-name="&amp;lt;Repetición de cuadrícula&amp;gt;">
            <polygon class="cls-4" points="1960.72 577.71 1960.72 817.57 1683.68 716.79 1683.68 476.92 1960.72 577.71"/>
          </g>
          <g id="_Repetición_de_cuadrícula_-6" data-name="&amp;lt;Repetición de cuadrícula&amp;gt;">
            <polygon class="cls-4" points="1406.63 777.79 1406.63 1017.65 1683.68 916.87 1683.68 677.01 1406.63 777.79"/>
          </g>
          <g id="_Repetición_de_cuadrícula_-7" data-name="&amp;lt;Repetición de cuadrícula&amp;gt;">
            <polygon class="cls-4" points="1683.68 977.87 1683.68 1217.74 1960.72 1116.95 1960.72 877.09 1683.68 977.87"/>
          </g>
          <g id="_Repetición_de_cuadrícula_-8" data-name="&amp;lt;Repetición de cuadrícula&amp;gt;">
            <polygon class="cls-4" points="1683.68 1177.95 1683.68 1417.82 1406.63 1317.04 1406.63 1077.17 1683.68 1177.95"/>
          </g>
        </g>
      </g>
    </g>
  </g>
  <g>
    <rect class="cls-6" x="0" y="1127.58" width="1920" height="1081"/>
    <g class="cls-3">
      <rect class="cls-6" x="-1036.77" y="569.17" width="3859.15" height="2173.31"/>
    </g>
  </g>
  <g class="cls-1">
    <g class="cls-2">
      <g>
        <path class="cls-6" d="M925.69,8.83H372.95v-175.41l552.74-201.07V8.83Z"/>
        <path class="cls-6" d="M2031.17,8.83h-552.74v-175.41l552.74-201.07V8.83Z"/>
        <path class="cls-6" d="M925.69,411.58H372.95v-175.41L925.69,35.1v376.48Z"/>
        <path class="cls-6" d="M1478.43,210.2h-552.74V34.8l552.74-201.07V210.2Z"/>
        <path class="cls-6" d="M2031.17,411.58h-552.74v-175.41L2031.17,35.1v376.48Z"/>
        <path class="cls-6" d="M925.69,814.33H372.95v-175.41l552.74-201.07v376.48Z"/>
        <path class="cls-6" d="M1478.43,612.95h-552.74v-175.41l552.74-201.07v376.48Z"/>
        <path class="cls-6" d="M2031.17,814.33h-552.74v-175.41l552.74-201.07v376.48Z"/>
        <path class="cls-6" d="M1478.43,1015.71h-552.74v-175.41l552.74-201.07v376.48Z"/>
      </g>
    </g>
  </g>
  <g>
    <rect class="cls-11" width="1920" height="1081"/>
    <g class="cls-9">
      <g class="cls-5">
        <g>
          <polygon class="cls-6" points="1954.81 117.36 1954.81 -86.69 1393.9 117.36 1954.81 117.36"/>
          <polygon class="cls-6" points="-288.85 117.36 -288.85 321.41 272.07 117.36 -288.85 117.36"/>
          <g>
            <polygon class="cls-6" points="832.98 321.41 832.98 117.36 272.07 321.41 832.98 321.41"/>
            <polygon class="cls-6" points="832.98 -86.69 832.98 117.36 1393.9 -86.69 832.98 -86.69"/>
          </g>
          <polygon class="cls-6" points="1954.81 525.46 1954.81 321.41 1393.9 525.46 1954.81 525.46"/>
          <polygon class="cls-6" points="-288.85 525.46 -288.85 729.51 272.07 525.46 -288.85 525.46"/>
          <g>
            <polygon class="cls-6" points="832.98 729.51 832.98 525.46 272.07 729.51 832.98 729.51"/>
            <polygon class="cls-6" points="832.98 321.41 832.98 525.46 1393.9 321.41 832.98 321.41"/>
          </g>
          <polygon class="cls-6" points="1954.81 933.56 1954.81 729.51 1393.9 933.56 1954.81 933.56"/>
          <polygon class="cls-6" points="-288.85 933.56 -288.85 1137.61 272.07 933.56 -288.85 933.56"/>
          <g>
            <polygon class="cls-6" points="832.98 1137.61 832.98 933.56 272.07 1137.61 832.98 1137.61"/>
            <polygon class="cls-6" points="832.98 729.51 832.98 933.56 1393.9 729.51 832.98 729.51"/>
          </g>
        </g>
      </g>
    </g>
  </g>
</svg>