<?xml version="1.0" encoding="UTF-8"?>
<svg id="Capa_1" data-name="Capa 1" xmlns="http://www.w3.org/2000/svg" xmlns:xlink="http://www.w3.org/1999/xlink" viewBox="0 0 1920 1081">
  <defs>
    <style>
      .cls-1 {
        clip-path: url(#clippath-6);
      }

      .cls-2 {
        clip-path: url(#clippath-7);
      }

      .cls-3 {
        fill: #e5dfd3;
      }

      .cls-4 {
        clip-path: url(#clippath-4);
      }

      .cls-5 {
        fill: #f8b4a3;
      }

      .cls-6 {
        clip-path: url(#clippath-9);
      }

      .cls-7 {
        stroke: #f8b4a3;
        stroke-width: 2px;
      }

      .cls-7, .cls-8, .cls-9 {
        fill: none;
      }

      .cls-7, .cls-9 {
        stroke-miterlimit: 10;
      }

      .cls-10 {
        fill: #5f0229;
      }

      .cls-9 {
        stroke: #e31837;
        stroke-width: 1.33px;
      }

      .cls-11 {
        clip-path: url(#clippath-1);
      }

      .cls-12 {
        clip-path: url(#clippath-5);
      }

      .cls-13 {
        clip-path: url(#clippath-8);
      }

      .cls-14 {
        clip-path: url(#clippath-3);
      }

      .cls-15 {
        fill: #f6f2ea;
      }

      .cls-16 {
        fill: #e31837;
      }

      .cls-17 {
        clip-path: url(#clippath-2);
      }

      .cls-18 {
        clip-path: url(#clippath);
      }
    </style>
    <clipPath id="clippath">
      <rect class="cls-8" y="1114.73" width="1919.84" height="1081.17"/>
    </clipPath>
    <clipPath id="clippath-1">
      <rect class="cls-8" x="-666.35" y="513.6" width="3252.69" height="2283.26"/>
    </clipPath>
    <clipPath id="clippath-2">
      <rect class="cls-16" x="-1967.39" y="-1109.68" width="1920" height="1081"/>
    </clipPath>
    <clipPath id="clippath-3">
      <rect class="cls-8" x="-2020.8" y="-1401.47" width="2026.15" height="1664.58"/>
    </clipPath>
    <clipPath id="clippath-4">
      <rect class="cls-5" x="-1967.39" y="1114.73" width="1920" height="1081"/>
    </clipPath>
    <clipPath id="clippath-5">
      <rect class="cls-8" x="-2863.2" y="562.3" width="3906.29" height="2197.45"/>
    </clipPath>
    <clipPath id="clippath-6">
      <rect class="cls-16" x="-2.77" y="3.06" width="1920" height="1081"/>
    </clipPath>
    <clipPath id="clippath-7">
      <rect class="cls-8" x="-575.33" y="-350.7" width="3065.13" height="1788.54"/>
    </clipPath>
    <clipPath id="clippath-8">
      <rect class="cls-3" x="2665.34" y="-1111.41" width="1919.84" height="1081.17"/>
    </clipPath>
    <clipPath id="clippath-9">
      <rect class="cls-8" x="1617.62" y="-1980.25" width="4015.43" height="2818.67"/>
    </clipPath>
  </defs>
  <g class="cls-18">
    <g class="cls-11">
      <g>
        <g id="_Repetición_de_cuadrícula_" data-name="&amp;lt;Repetición de cuadrícula&amp;gt;">
          <path class="cls-7" d="M227.96,818.18H-219.79v-161.53l447.75-162.88v324.41Z"/>
        </g>
        <g id="_Repetición_de_cuadrícula_-2" data-name="&amp;lt;Repetición de cuadrícula&amp;gt;">
          <path class="cls-7" d="M676.89,655.17H229.15v-161.53l447.75-162.88v324.41Z"/>
        </g>
        <g id="_Repetición_de_cuadrícula_-3" data-name="&amp;lt;Repetición de cuadrícula&amp;gt;">
          <path class="cls-7" d="M1125.83,818.18h-447.75v-161.53l447.75-162.88v324.41Z"/>
        </g>
        <g id="_Repetición_de_cuadrícula_-4" data-name="&amp;lt;Repetición de cuadrícula&amp;gt;">
          <path class="cls-7" d="M1574.77,655.17h-447.75v-161.53l447.75-162.88v324.41Z"/>
        </g>
        <g id="_Repetición_de_cuadrícula_-5" data-name="&amp;lt;Repetición de cuadrícula&amp;gt;">
          <path class="cls-7" d="M2023.7,818.18h-447.75v-161.53l447.75-162.88v324.41Z"/>
        </g>
        <g id="_Repetición_de_cuadrícula_-6" data-name="&amp;lt;Repetición de cuadrícula&amp;gt;">
          <path class="cls-7" d="M227.96,1144.21H-219.79v-161.53l447.75-162.88v324.41Z"/>
        </g>
        <g id="_Repetición_de_cuadrícula_-7" data-name="&amp;lt;Repetición de cuadrícula&amp;gt;">
          <path class="cls-7" d="M676.89,981.2H229.15v-161.53l447.75-162.88v324.41Z"/>
        </g>
        <g id="_Repetición_de_cuadrícula_-8" data-name="&amp;lt;Repetición de cuadrícula&amp;gt;">
          <path class="cls-7" d="M1125.83,1144.21h-447.75v-161.53l447.75-162.88v324.41Z"/>
        </g>
        <g id="_Repetición_de_cuadrícula_-9" data-name="&amp;lt;Repetición de cuadrícula&amp;gt;">
          <path class="cls-7" d="M1574.77,981.2h-447.75v-161.53l447.75-162.88v324.41Z"/>
        </g>
        <g id="_Repetición_de_cuadrícula_-10" data-name="&amp;lt;Repetición de cuadrícula&amp;gt;">
          <path class="cls-7" d="M2023.7,1144.21h-447.75v-161.53l447.75-162.88v324.41Z"/>
        </g>
        <g id="_Repetición_de_cuadrícula_-11" data-name="&amp;lt;Repetición de cuadrícula&amp;gt;">
          <path class="cls-7" d="M676.89,1307.22H229.15v-161.53l447.75-162.88v324.41Z"/>
        </g>
        <g id="_Repetición_de_cuadrícula_-12" data-name="&amp;lt;Repetición de cuadrícula&amp;gt;">
          <path class="cls-7" d="M1574.77,1307.22h-447.75v-161.53l447.75-162.88v324.41Z"/>
        </g>
      </g>
    </g>
  </g>
  <g>
    <rect class="cls-16" x="-1967.39" y="-1109.68" width="1920" height="1081"/>
    <g class="cls-17">
      <g class="cls-14">
        <g>
          <g id="_Repetición_de_cuadrícula_-13" data-name="&amp;lt;Repetición de cuadrícula&amp;gt;">
            <polygon class="cls-10" points="-146.02 -184.56 -146.02 21.85 113.42 -72.53 113.42 -184.56 -146.02 -184.56"/>
          </g>
          <g id="_Repetición_de_cuadrícula_-14" data-name="&amp;lt;Repetición de cuadrícula&amp;gt;">
            <polygon class="cls-10" points="-146.02 108.56 -146.02 314.97 113.42 220.6 113.42 108.56 -146.02 108.56"/>
          </g>
        </g>
      </g>
    </g>
  </g>
  <g>
    <rect class="cls-5" x="-1967.39" y="1114.73" width="1920" height="1081"/>
    <g class="cls-4">
      <g class="cls-12">
        <g>
          <g id="_Repetición_de_cuadrícula_-15" data-name="&amp;lt;Repetición de cuadrícula&amp;gt;">
            <g>
              <polygon class="cls-9" points="521.95 695.36 521.95 559.3 147.93 695.36 521.95 695.36"/>
              <polygon class="cls-9" points="521.95 423.24 521.95 559.3 895.98 423.24 521.95 423.24"/>
            </g>
          </g>
          <g id="_Repetición_de_cuadrícula_-16" data-name="&amp;lt;Repetición de cuadrícula&amp;gt;">
            <polygon class="cls-9" points="-233.66 559.97 -233.66 696.03 140.36 559.97 -233.66 559.97"/>
          </g>
          <g id="_Repetición_de_cuadrícula_-17" data-name="&amp;lt;Repetición de cuadrícula&amp;gt;">
            <g>
              <polygon class="cls-9" points="521.95 968.82 521.95 832.76 147.93 968.82 521.95 968.82"/>
              <polygon class="cls-9" points="521.95 696.7 521.95 832.76 895.98 696.7 521.95 696.7"/>
            </g>
          </g>
          <g id="_Repetición_de_cuadrícula_-18" data-name="&amp;lt;Repetición de cuadrícula&amp;gt;">
            <g>
              <polygon class="cls-9" points="1277.57 832.09 1277.57 696.03 903.55 832.09 1277.57 832.09"/>
              <polygon class="cls-9" points="1277.57 559.97 1277.57 696.03 1651.6 559.97 1277.57 559.97"/>
            </g>
          </g>
          <g id="_Repetición_de_cuadrícula_-19" data-name="&amp;lt;Repetición de cuadrícula&amp;gt;">
            <polygon class="cls-9" points="-233.66 833.43 -233.66 969.49 140.36 833.43 -233.66 833.43"/>
          </g>
          <g id="_Repetición_de_cuadrícula_-20" data-name="&amp;lt;Repetición de cuadrícula&amp;gt;">
            <polygon class="cls-9" points="521.95 970.16 521.95 1106.22 895.98 970.16 521.95 970.16"/>
          </g>
          <g id="_Repetición_de_cuadrícula_-21" data-name="&amp;lt;Repetición de cuadrícula&amp;gt;">
            <g>
              <polygon class="cls-9" points="1277.57 1105.55 1277.57 969.49 903.55 1105.55 1277.57 1105.55"/>
              <polygon class="cls-9" points="1277.57 833.43 1277.57 969.49 1651.6 833.43 1277.57 833.43"/>
            </g>
          </g>
        </g>
      </g>
    </g>
  </g>
  <g>
    <rect class="cls-16" x="-2.77" y="3.06" width="1920" height="1081"/>
    <g class="cls-1">
      <g class="cls-2">
        <g>
          <g id="_Repetición_de_cuadrícula_-22" data-name="&amp;lt;Repetición de cuadrícula&amp;gt;">
            <polygon class="cls-10" points="137.7 -.9 137.7 268.93 -163.3 155.56 -163.3 -114.27 137.7 -.9"/>
          </g>
          <g id="_Repetición_de_cuadrícula_-23" data-name="&amp;lt;Repetición de cuadrícula&amp;gt;">
            <polygon class="cls-10" points="602.36 -.9 602.36 268.93 301.36 155.56 301.36 -114.27 602.36 -.9"/>
          </g>
          <g id="_Repetición_de_cuadrícula_-24" data-name="&amp;lt;Repetición de cuadrícula&amp;gt;">
            <polygon class="cls-10" points="1067.03 -.9 1067.03 268.93 766.03 155.56 766.03 -114.27 1067.03 -.9"/>
          </g>
          <g id="_Repetición_de_cuadrícula_-25" data-name="&amp;lt;Repetición de cuadrícula&amp;gt;">
            <polygon class="cls-10" points="1531.69 -.9 1531.69 268.93 1230.69 155.56 1230.69 -114.27 1531.69 -.9"/>
          </g>
          <g id="_Repetición_de_cuadrícula_-26" data-name="&amp;lt;Repetición de cuadrícula&amp;gt;">
            <polygon class="cls-10" points="1996.36 -.9 1996.36 268.93 1695.35 155.56 1695.35 -114.27 1996.36 -.9"/>
          </g>
          <g id="_Repetición_de_cuadrícula_-28" data-name="&amp;lt;Repetición de cuadrícula&amp;gt;">
            <g>
              <polygon class="cls-10" points="-231.98 354.19 -231.98 624.01 69.03 510.64 69.03 240.82 -231.98 354.19"/>
              <polygon class="cls-10" points="370.03 623.88 370.03 893.71 69.03 780.34 69.03 510.51 370.03 623.88"/>
            </g>
          </g>
          <g id="_Repetición_de_cuadrícula_-29" data-name="&amp;lt;Repetición de cuadrícula&amp;gt;">
            <g>
              <polygon class="cls-10" points="232.69 354.19 232.69 624.01 533.69 510.64 533.69 240.82 232.69 354.19"/>
              <polygon class="cls-10" points="834.7 623.88 834.7 893.71 533.69 780.34 533.69 510.51 834.7 623.88"/>
            </g>
          </g>
          <g id="_Repetición_de_cuadrícula_-30" data-name="&amp;lt;Repetición de cuadrícula&amp;gt;">
            <g>
              <polygon class="cls-10" points="697.35 354.19 697.35 624.01 998.36 510.64 998.36 240.82 697.35 354.19"/>
              <polygon class="cls-10" points="1299.36 623.88 1299.36 893.71 998.36 780.34 998.36 510.51 1299.36 623.88"/>
            </g>
          </g>
          <g id="_Repetición_de_cuadrícula_-31" data-name="&amp;lt;Repetición de cuadrícula&amp;gt;">
            <g>
              <polygon class="cls-10" points="1162.02 354.19 1162.02 624.01 1463.02 510.64 1463.02 240.82 1162.02 354.19"/>
              <polygon class="cls-10" points="1764.03 623.88 1764.03 893.71 1463.02 780.34 1463.02 510.51 1764.03 623.88"/>
            </g>
          </g>
          <g id="_Repetición_de_cuadrícula_-32" data-name="&amp;lt;Repetición de cuadrícula&amp;gt;">
            <polygon class="cls-10" points="1626.68 354.19 1626.68 624.01 1927.69 510.64 1927.69 240.82 1626.68 354.19"/>
          </g>
          <g id="_Repetición_de_cuadrícula_-34" data-name="&amp;lt;Repetición de cuadrícula&amp;gt;">
            <polygon class="cls-10" points=".36 978.97 .36 1248.79 301.36 1135.42 301.36 865.6 .36 978.97"/>
          </g>
          <g id="_Repetición_de_cuadrícula_-35" data-name="&amp;lt;Repetición de cuadrícula&amp;gt;">
            <polygon class="cls-10" points="465.02 978.97 465.02 1248.79 766.03 1135.42 766.03 865.6 465.02 978.97"/>
          </g>
          <g id="_Repetición_de_cuadrícula_-36" data-name="&amp;lt;Repetición de cuadrícula&amp;gt;">
            <polygon class="cls-10" points="929.69 978.97 929.69 1248.79 1230.69 1135.42 1230.69 865.6 929.69 978.97"/>
          </g>
          <g id="_Repetición_de_cuadrícula_-37" data-name="&amp;lt;Repetición de cuadrícula&amp;gt;">
            <polygon class="cls-10" points="1394.35 978.97 1394.35 1248.79 1695.35 1135.42 1695.35 865.6 1394.35 978.97"/>
          </g>
          <g id="_Repetición_de_cuadrícula_-38" data-name="&amp;lt;Repetición de cuadrícula&amp;gt;">
            <polygon class="cls-10" points="1859.01 978.97 1859.01 1248.79 2160.02 1135.42 2160.02 865.6 1859.01 978.97"/>
          </g>
        </g>
      </g>
    </g>
  </g>
  <g>
    <rect class="cls-3" x="2665.34" y="-1111.41" width="1919.84" height="1081.17"/>
    <g class="cls-13">
      <g class="cls-6">
        <g>
          <g id="_Repetición_de_cuadrícula_-39" data-name="&amp;lt;Repetición de cuadrícula&amp;gt;">
            <path class="cls-15" d="M1893.99,143.32h-552.74V-32.08l552.74-201.07V143.32Z"/>
          </g>
          <g id="_Repetición_de_cuadrícula_-40" data-name="&amp;lt;Repetición de cuadrícula&amp;gt;">
            <path class="cls-15" d="M2446.73,143.32h-552.74V-32.08l552.74-201.07V143.32Z"/>
          </g>
          <g id="_Repetición_de_cuadrícula_-41" data-name="&amp;lt;Repetición de cuadrícula&amp;gt;">
            <path class="cls-15" d="M1617.62,579.8h-552.74v-175.41l552.74-201.07v376.48Z"/>
          </g>
          <g id="_Repetición_de_cuadrícula_-42" data-name="&amp;lt;Repetición de cuadrícula&amp;gt;">
            <path class="cls-15" d="M2170.36,579.8h-552.74v-175.41l552.74-201.07v376.48Z"/>
          </g>
          <g id="_Repetición_de_cuadrícula_-43" data-name="&amp;lt;Repetición de cuadrícula&amp;gt;">
            <path class="cls-15" d="M1893.99,1016.28h-552.74v-175.41l552.74-201.07v376.48Z"/>
          </g>
          <g id="_Repetición_de_cuadrícula_-44" data-name="&amp;lt;Repetición de cuadrícula&amp;gt;">
            <path class="cls-15" d="M2446.73,1016.28h-552.74v-175.41l552.74-201.07v376.48Z"/>
          </g>
        </g>
      </g>
    </g>
  </g>
</svg>