<?xml version="1.0" encoding="UTF-8"?>
<svg id="Capa_1" data-name="Capa 1" xmlns="http://www.w3.org/2000/svg" xmlns:xlink="http://www.w3.org/1999/xlink" viewBox="0 0 1920 1081">
  <defs>
    <style>
      .cls-1, .cls-2 {
        stroke-width: 2px;
      }

      .cls-1, .cls-2, .cls-3, .cls-4 {
        fill: none;
      }

      .cls-1, .cls-2, .cls-4 {
        stroke-miterlimit: 10;
      }

      .cls-1, .cls-4 {
        stroke: #e31837;
      }

      .cls-5 {
        clip-path: url(#clippath-6);
      }

      .cls-6 {
        clip-path: url(#clippath-7);
      }

      .cls-7 {
        clip-path: url(#clippath-4);
      }

      .cls-8 {
        fill: #f8b4a3;
      }

      .cls-9 {
        clip-path: url(#clippath-9);
      }

      .cls-10 {
        clip-path: url(#clippath-10);
      }

      .cls-2 {
        stroke: #f8b4a3;
      }

      .cls-11 {
        clip-path: url(#clippath-11);
      }

      .cls-12 {
        fill: #5f0229;
      }

      .cls-4 {
        stroke-width: 1.33px;
      }

      .cls-13 {
        clip-path: url(#clippath-5);
      }

      .cls-14 {
        clip-path: url(#clippath-8);
      }

      .cls-15 {
        clip-path: url(#clippath-3);
      }

      .cls-16 {
        fill: #e31837;
      }

      .cls-17 {
        clip-path: url(#clippath-2);
      }

      .cls-18 {
        clip-path: url(#clippath);
      }
    </style>
    <clipPath id="clippath">
      <rect class="cls-12" x="-1973.41" y="-1109.68" width="1920" height="1081"/>
    </clipPath>
    <clipPath id="clippath-2">
      <rect class="cls-3" x="1967.39" y="1114.73" width="1919.84" height="1081.17"/>
    </clipPath>
    <clipPath id="clippath-3">
      <rect class="cls-3" x="1301.04" y="513.6" width="3252.69" height="2283.26"/>
    </clipPath>
    <clipPath id="clippath-4">
      <rect class="cls-16" y="-1109.68" width="1920" height="1081"/>
    </clipPath>
    <clipPath id="clippath-5">
      <rect class="cls-3" x="-53.41" y="-1401.47" width="2026.15" height="1664.58"/>
    </clipPath>
    <clipPath id="clippath-6">
      <rect class="cls-8" y="1114.73" width="1920" height="1081"/>
    </clipPath>
    <clipPath id="clippath-7">
      <rect class="cls-3" x="-895.81" y="562.3" width="3906.29" height="2197.45"/>
    </clipPath>
    <clipPath id="clippath-8">
      <rect class="cls-3" x="0" y="0" width="1922.26" height="1080.26"/>
    </clipPath>
    <clipPath id="clippath-9">
      <rect class="cls-8" x="-1973.21" y="1115.13" width="1919.59" height="1080.77"/>
    </clipPath>
    <clipPath id="clippath-10">
      <rect class="cls-16" x="1964.61" y="3.06" width="1920" height="1081"/>
    </clipPath>
    <clipPath id="clippath-11">
      <rect class="cls-3" x="1392.05" y="-350.7" width="3065.13" height="1788.54"/>
    </clipPath>
  </defs>
  <g>
    <rect class="cls-12" x="-1973.41" y="-1109.68" width="1920" height="1081"/>
    <g class="cls-18">
      <rect class="cls-12" x="-3010.18" y="-1668.09" width="3859.15" height="2173.31"/>
    </g>
  </g>
  <g class="cls-17">
    <g class="cls-15">
      <g>
        <g id="_Repetición_de_cuadrícula_" data-name="&amp;lt;Repetición de cuadrícula&amp;gt;">
          <path class="cls-2" d="M1746.41,655.17h-447.75v-161.53l447.75-162.88v324.41Z"/>
        </g>
        <g id="_Repetición_de_cuadrícula_-2" data-name="&amp;lt;Repetición de cuadrícula&amp;gt;">
          <path class="cls-2" d="M2195.34,818.18h-447.75v-161.53l447.75-162.88v324.41Z"/>
        </g>
        <g id="_Repetición_de_cuadrícula_-3" data-name="&amp;lt;Repetición de cuadrícula&amp;gt;">
          <path class="cls-2" d="M1746.41,981.2h-447.75v-161.53l447.75-162.88v324.41Z"/>
        </g>
        <g id="_Repetición_de_cuadrícula_-4" data-name="&amp;lt;Repetición de cuadrícula&amp;gt;">
          <path class="cls-2" d="M2195.34,1144.21h-447.75v-161.53l447.75-162.88v324.41Z"/>
        </g>
        <g id="_Repetición_de_cuadrícula_-5" data-name="&amp;lt;Repetición de cuadrícula&amp;gt;">
          <path class="cls-2" d="M1746.41,1307.22h-447.75v-161.53l447.75-162.88v324.41Z"/>
        </g>
      </g>
    </g>
  </g>
  <g>
    <rect class="cls-16" y="-1109.68" width="1920" height="1081"/>
    <g class="cls-7">
      <g class="cls-13">
        <g>
          <g id="_Repetición_de_cuadrícula_-6" data-name="&amp;lt;Repetición de cuadrícula&amp;gt;">
            <polygon class="cls-12" points="-104.71 -184.56 -104.71 21.85 154.73 -72.53 154.73 -184.56 -104.71 -184.56"/>
          </g>
          <g id="_Repetición_de_cuadrícula_-7" data-name="&amp;lt;Repetición de cuadrícula&amp;gt;">
            <g>
              <polygon class="cls-12" points="414.17 108.7 414.17 -97.71 154.73 -3.34 154.73 108.7 414.17 108.7"/>
              <polygon class="cls-12" points="376.81 -38 376.81 168.41 636.25 74.03 636.25 -38 376.81 -38"/>
            </g>
          </g>
          <g id="_Repetición_de_cuadrícula_-8" data-name="&amp;lt;Repetición de cuadrícula&amp;gt;">
            <polygon class="cls-12" points="858.33 -184.56 858.33 21.85 1117.77 -72.53 1117.77 -184.56 858.33 -184.56"/>
          </g>
          <g id="_Repetición_de_cuadrícula_-9" data-name="&amp;lt;Repetición de cuadrícula&amp;gt;">
            <g>
              <polygon class="cls-12" points="1377.21 108.7 1377.21 -97.71 1117.77 -3.34 1117.77 108.7 1377.21 108.7"/>
              <polygon class="cls-12" points="1339.85 -38 1339.85 168.41 1599.29 74.03 1599.29 -38 1339.85 -38"/>
            </g>
          </g>
          <g id="_Repetición_de_cuadrícula_-10" data-name="&amp;lt;Repetición de cuadrícula&amp;gt;">
            <polygon class="cls-12" points="1821.37 -184.56 1821.37 21.85 2080.81 -72.53 2080.81 -184.56 1821.37 -184.56"/>
          </g>
          <g id="_Repetición_de_cuadrícula_-11" data-name="&amp;lt;Repetición de cuadrícula&amp;gt;">
            <polygon class="cls-12" points="-104.71 108.56 -104.71 314.97 154.73 220.6 154.73 108.56 -104.71 108.56"/>
          </g>
          <g id="_Repetición_de_cuadrícula_-12" data-name="&amp;lt;Repetición de cuadrícula&amp;gt;">
            <g>
              <polygon class="cls-12" points="414.17 401.82 414.17 195.41 154.73 289.79 154.73 401.82 414.17 401.82"/>
              <polygon class="cls-12" points="376.81 255.13 376.81 461.54 636.25 367.16 636.25 255.13 376.81 255.13"/>
            </g>
          </g>
          <g id="_Repetición_de_cuadrícula_-13" data-name="&amp;lt;Repetición de cuadrícula&amp;gt;">
            <g>
              <polygon class="cls-12" points="895.69 255.26 895.69 48.85 636.25 143.23 636.25 255.26 895.69 255.26"/>
              <polygon class="cls-12" points="858.33 108.56 858.33 314.97 1117.77 220.6 1117.77 108.56 858.33 108.56"/>
            </g>
          </g>
          <g id="_Repetición_de_cuadrícula_-14" data-name="&amp;lt;Repetición de cuadrícula&amp;gt;">
            <g>
              <polygon class="cls-12" points="1377.21 401.82 1377.21 195.41 1117.77 289.79 1117.77 401.82 1377.21 401.82"/>
              <polygon class="cls-12" points="1339.85 255.13 1339.85 461.54 1599.29 367.16 1599.29 255.13 1339.85 255.13"/>
            </g>
          </g>
          <g id="_Repetición_de_cuadrícula_-15" data-name="&amp;lt;Repetición de cuadrícula&amp;gt;">
            <g>
              <polygon class="cls-12" points="1858.73 255.26 1858.73 48.85 1599.29 143.23 1599.29 255.26 1858.73 255.26"/>
              <polygon class="cls-12" points="1821.37 108.56 1821.37 314.97 2080.81 220.6 2080.81 108.56 1821.37 108.56"/>
            </g>
          </g>
        </g>
      </g>
    </g>
  </g>
  <g>
    <rect class="cls-8" y="1114.73" width="1920" height="1081"/>
    <g class="cls-5">
      <g class="cls-6">
        <g>
          <g id="_Repetición_de_cuadrícula_-16" data-name="&amp;lt;Repetición de cuadrícula&amp;gt;">
            <g>
              <polygon class="cls-4" points="978.1 695.36 978.1 559.3 604.08 695.36 978.1 695.36"/>
              <polygon class="cls-4" points="978.1 423.24 978.1 559.3 1352.13 423.24 978.1 423.24"/>
            </g>
          </g>
          <g id="_Repetición_de_cuadrícula_-17" data-name="&amp;lt;Repetición de cuadrícula&amp;gt;">
            <g>
              <polygon class="cls-4" points="222.48 832.09 222.48 696.03 -151.54 832.09 222.48 832.09"/>
              <polygon class="cls-4" points="222.48 559.97 222.48 696.03 596.51 559.97 222.48 559.97"/>
            </g>
          </g>
          <g id="_Repetición_de_cuadrícula_-18" data-name="&amp;lt;Repetición de cuadrícula&amp;gt;">
            <g>
              <polygon class="cls-4" points="978.1 968.82 978.1 832.76 604.08 968.82 978.1 968.82"/>
              <polygon class="cls-4" points="978.1 696.7 978.1 832.76 1352.13 696.7 978.1 696.7"/>
            </g>
          </g>
          <g id="_Repetición_de_cuadrícula_-19" data-name="&amp;lt;Repetición de cuadrícula&amp;gt;">
            <g>
              <polygon class="cls-4" points="1733.72 832.09 1733.72 696.03 1359.7 832.09 1733.72 832.09"/>
              <polygon class="cls-4" points="1733.72 559.97 1733.72 696.03 2107.75 559.97 1733.72 559.97"/>
            </g>
          </g>
          <g id="_Repetición_de_cuadrícula_-20" data-name="&amp;lt;Repetición de cuadrícula&amp;gt;">
            <g>
              <polygon class="cls-4" points="222.48 1105.55 222.48 969.49 -151.54 1105.55 222.48 1105.55"/>
              <polygon class="cls-4" points="222.48 833.43 222.48 969.49 596.51 833.43 222.48 833.43"/>
            </g>
          </g>
          <g id="_Repetición_de_cuadrícula_-21" data-name="&amp;lt;Repetición de cuadrícula&amp;gt;">
            <polygon class="cls-4" points="978.1 970.16 978.1 1106.22 1352.13 970.16 978.1 970.16"/>
          </g>
          <g id="_Repetición_de_cuadrícula_-22" data-name="&amp;lt;Repetición de cuadrícula&amp;gt;">
            <g>
              <polygon class="cls-4" points="1733.72 1105.55 1733.72 969.49 1359.7 1105.55 1733.72 1105.55"/>
              <polygon class="cls-4" points="1733.72 833.43 1733.72 969.49 2107.75 833.43 1733.72 833.43"/>
            </g>
          </g>
        </g>
      </g>
    </g>
  </g>
  <rect class="cls-8" y="0" width="1920" height="1081"/>
  <g class="cls-14">
    <g>
      <g id="_Repetición_de_cuadrícula_-25" data-name="&amp;lt;Repetición de cuadrícula&amp;gt;">
        <g id="_Repetición_de_cuadrícula_-26" data-name="&amp;lt;Repetición de cuadrícula&amp;gt;">
          <path class="cls-16" d="M320.08,0H0v-101.57l320.08-116.44V0Z"/>
        </g>
      </g>
      <g id="_Repetición_de_cuadrícula_-27" data-name="&amp;lt;Repetición de cuadrícula&amp;gt;">
        <g id="_Repetición_de_cuadrícula_-28" data-name="&amp;lt;Repetición de cuadrícula&amp;gt;">
          <path class="cls-16" d="M960.12,0h-320.08v-101.57l320.08-116.44V0Z"/>
        </g>
      </g>
      <g id="_Repetición_de_cuadrícula_-29" data-name="&amp;lt;Repetición de cuadrícula&amp;gt;">
        <g id="_Repetición_de_cuadrícula_-30" data-name="&amp;lt;Repetición de cuadrícula&amp;gt;">
          <path class="cls-16" d="M1600.16,0h-320.08v-101.57l320.08-116.44V0Z"/>
        </g>
      </g>
      <g id="_Repetición_de_cuadrícula_-31" data-name="&amp;lt;Repetición de cuadrícula&amp;gt;">
        <g id="_Repetición_de_cuadrícula_-32" data-name="&amp;lt;Repetición de cuadrícula&amp;gt;">
          <path class="cls-16" d="M-320.08,0H0v101.57l-320.08,116.44V0Z"/>
        </g>
      </g>
      <g id="_Repetición_de_cuadrícula_-33" data-name="&amp;lt;Repetición de cuadrícula&amp;gt;">
        <g id="_Repetición_de_cuadrícula_-34" data-name="&amp;lt;Repetición de cuadrícula&amp;gt;">
          <g>
            <path class="cls-16" d="M320.08,332.81H0v-101.57l320.08-116.44v218.01Z"/>
            <path class="cls-16" d="M319.97,0h320.08v101.57l-320.08,116.44V0Z"/>
          </g>
        </g>
      </g>
      <g id="_Repetición_de_cuadrícula_-35" data-name="&amp;lt;Repetición de cuadrícula&amp;gt;">
        <g id="_Repetición_de_cuadrícula_-36" data-name="&amp;lt;Repetición de cuadrícula&amp;gt;">
          <g>
            <path class="cls-16" d="M960.12,332.81h-320.08v-101.57l320.08-116.44v218.01Z"/>
            <path class="cls-16" d="M960.01,0h320.08v101.57l-320.08,116.44V0Z"/>
          </g>
        </g>
      </g>
      <g id="_Repetición_de_cuadrícula_-37" data-name="&amp;lt;Repetición de cuadrícula&amp;gt;">
        <g id="_Repetición_de_cuadrícula_-38" data-name="&amp;lt;Repetición de cuadrícula&amp;gt;">
          <g>
            <path class="cls-16" d="M1600.16,332.81h-320.08v-101.57l320.08-116.44v218.01Z"/>
            <path class="cls-16" d="M1600.05,0h320.08v101.57l-320.08,116.44V0Z"/>
          </g>
        </g>
      </g>
      <g id="_Repetición_de_cuadrícula_-39" data-name="&amp;lt;Repetición de cuadrícula&amp;gt;">
        <g id="_Repetición_de_cuadrícula_-40" data-name="&amp;lt;Repetición de cuadrícula&amp;gt;">
          <path class="cls-16" d="M-320.08,332.81H0v101.57l-320.08,116.44v-218.01Z"/>
        </g>
      </g>
      <g id="_Repetición_de_cuadrícula_-41" data-name="&amp;lt;Repetición de cuadrícula&amp;gt;">
        <g id="_Repetición_de_cuadrícula_-42" data-name="&amp;lt;Repetición de cuadrícula&amp;gt;">
          <g>
            <path class="cls-16" d="M320.08,665.61H0v-101.57l320.08-116.44v218.01Z"/>
            <path class="cls-16" d="M319.97,332.81h320.08v101.57l-320.08,116.44v-218.01Z"/>
          </g>
        </g>
      </g>
      <g id="_Repetición_de_cuadrícula_-43" data-name="&amp;lt;Repetición de cuadrícula&amp;gt;">
        <g id="_Repetición_de_cuadrícula_-44" data-name="&amp;lt;Repetición de cuadrícula&amp;gt;">
          <g>
            <path class="cls-16" d="M960.12,665.61h-320.08v-101.57l320.08-116.44v218.01Z"/>
            <path class="cls-16" d="M960.01,332.81h320.08v101.57l-320.08,116.44v-218.01Z"/>
          </g>
        </g>
      </g>
      <g id="_Repetición_de_cuadrícula_-45" data-name="&amp;lt;Repetición de cuadrícula&amp;gt;">
        <g id="_Repetición_de_cuadrícula_-46" data-name="&amp;lt;Repetición de cuadrícula&amp;gt;">
          <g>
            <path class="cls-16" d="M1600.16,665.61h-320.08v-101.57l320.08-116.44v218.01Z"/>
            <path class="cls-16" d="M1600.05,332.81h320.08v101.57l-320.08,116.44v-218.01Z"/>
          </g>
        </g>
      </g>
      <g id="_Repetición_de_cuadrícula_-47" data-name="&amp;lt;Repetición de cuadrícula&amp;gt;">
        <g id="_Repetición_de_cuadrícula_-48" data-name="&amp;lt;Repetición de cuadrícula&amp;gt;">
          <path class="cls-16" d="M-320.08,665.61H0v101.57l-320.08,116.44v-218.01Z"/>
        </g>
      </g>
      <g id="_Repetición_de_cuadrícula_-49" data-name="&amp;lt;Repetición de cuadrícula&amp;gt;">
        <g id="_Repetición_de_cuadrícula_-50" data-name="&amp;lt;Repetición de cuadrícula&amp;gt;">
          <g>
            <path class="cls-16" d="M320.08,998.42H0v-101.57l320.08-116.44v218.01Z"/>
            <path class="cls-16" d="M319.97,665.61h320.08v101.57l-320.08,116.44v-218.01Z"/>
          </g>
        </g>
      </g>
      <g id="_Repetición_de_cuadrícula_-51" data-name="&amp;lt;Repetición de cuadrícula&amp;gt;">
        <g id="_Repetición_de_cuadrícula_-52" data-name="&amp;lt;Repetición de cuadrícula&amp;gt;">
          <g>
            <path class="cls-16" d="M960.12,998.42h-320.08v-101.57l320.08-116.44v218.01Z"/>
            <path class="cls-16" d="M960.01,665.61h320.08v101.57l-320.08,116.44v-218.01Z"/>
          </g>
        </g>
      </g>
      <g id="_Repetición_de_cuadrícula_-53" data-name="&amp;lt;Repetición de cuadrícula&amp;gt;">
        <g id="_Repetición_de_cuadrícula_-54" data-name="&amp;lt;Repetición de cuadrícula&amp;gt;">
          <g>
            <path class="cls-16" d="M1600.16,998.42h-320.08v-101.57l320.08-116.44v218.01Z"/>
            <path class="cls-16" d="M1600.05,665.61h320.08v101.57l-320.08,116.44v-218.01Z"/>
          </g>
        </g>
      </g>
      <g id="_Repetición_de_cuadrícula_-55" data-name="&amp;lt;Repetición de cuadrícula&amp;gt;">
        <g id="_Repetición_de_cuadrícula_-56" data-name="&amp;lt;Repetición de cuadrícula&amp;gt;">
          <path class="cls-16" d="M-320.08,998.42H0v101.57l-320.08,116.44v-218.01Z"/>
        </g>
      </g>
      <g id="_Repetición_de_cuadrícula_-57" data-name="&amp;lt;Repetición de cuadrícula&amp;gt;">
        <g id="_Repetición_de_cuadrícula_-58" data-name="&amp;lt;Repetición de cuadrícula&amp;gt;">
          <path class="cls-16" d="M319.97,998.42h320.08v101.57l-320.08,116.44v-218.01Z"/>
        </g>
      </g>
      <g id="_Repetición_de_cuadrícula_-59" data-name="&amp;lt;Repetición de cuadrícula&amp;gt;">
        <g id="_Repetición_de_cuadrícula_-60" data-name="&amp;lt;Repetición de cuadrícula&amp;gt;">
          <path class="cls-16" d="M960.01,998.42h320.08v101.57l-320.08,116.44v-218.01Z"/>
        </g>
      </g>
      <g id="_Repetición_de_cuadrícula_-61" data-name="&amp;lt;Repetición de cuadrícula&amp;gt;">
        <g id="_Repetición_de_cuadrícula_-62" data-name="&amp;lt;Repetición de cuadrícula&amp;gt;">
          <path class="cls-16" d="M1600.05,998.42h320.08v101.57l-320.08,116.44v-218.01Z"/>
        </g>
      </g>
    </g>
  </g>
  <g>
    <rect class="cls-8" x="-1973.21" y="1115.13" width="1919.59" height="1080.77"/>
    <g class="cls-9">
      <g>
        <path class="cls-1" d="M-176.2,1007.3H143.81v63.68l-320.01,116.41v-180.09Z"/>
        <path class="cls-1" d="M-176.2,667.23H143.81v63.68l-320.01,116.41v-180.09Z"/>
      </g>
    </g>
  </g>
  <g>
    <rect class="cls-16" x="1964.61" y="3.06" width="1920" height="1081"/>
    <g class="cls-10">
      <g class="cls-11">
        <g>
          <g id="_Repetición_de_cuadrícula_-63" data-name="&amp;lt;Repetición de cuadrícula&amp;gt;">
            <polygon class="cls-12" points="1640.42 -.9 1640.42 268.93 1339.42 155.56 1339.42 -114.27 1640.42 -.9"/>
          </g>
          <g id="_Repetición_de_cuadrícula_-64" data-name="&amp;lt;Repetición de cuadrícula&amp;gt;">
            <polygon class="cls-12" points="2105.09 -.9 2105.09 268.93 1804.08 155.56 1804.08 -114.27 2105.09 -.9"/>
          </g>
          <g id="_Repetición_de_cuadrícula_-65" data-name="&amp;lt;Repetición de cuadrícula&amp;gt;">
            <g>
              <polygon class="cls-12" points="806.08 354.19 806.08 624.01 1107.09 510.64 1107.09 240.82 806.08 354.19"/>
              <polygon class="cls-12" points="1408.09 623.88 1408.09 893.71 1107.09 780.34 1107.09 510.51 1408.09 623.88"/>
            </g>
          </g>
          <g id="_Repetición_de_cuadrícula_-66" data-name="&amp;lt;Repetición de cuadrícula&amp;gt;">
            <g>
              <polygon class="cls-12" points="1270.75 354.19 1270.75 624.01 1571.75 510.64 1571.75 240.82 1270.75 354.19"/>
              <polygon class="cls-12" points="1872.75 623.88 1872.75 893.71 1571.75 780.34 1571.75 510.51 1872.75 623.88"/>
            </g>
          </g>
          <g id="_Repetición_de_cuadrícula_-67" data-name="&amp;lt;Repetición de cuadrícula&amp;gt;">
            <polygon class="cls-12" points="1735.41 354.19 1735.41 624.01 2036.41 510.64 2036.41 240.82 1735.41 354.19"/>
          </g>
          <g id="_Repetición_de_cuadrícula_-68" data-name="&amp;lt;Repetición de cuadrícula&amp;gt;">
            <polygon class="cls-12" points="1038.41 978.97 1038.41 1248.79 1339.42 1135.42 1339.42 865.6 1038.41 978.97"/>
          </g>
          <g id="_Repetición_de_cuadrícula_-69" data-name="&amp;lt;Repetición de cuadrícula&amp;gt;">
            <polygon class="cls-12" points="1503.08 978.97 1503.08 1248.79 1804.08 1135.42 1804.08 865.6 1503.08 978.97"/>
          </g>
        </g>
      </g>
    </g>
  </g>
</svg>