<?xml version="1.0" encoding="UTF-8"?>
<svg id="Capa_1" data-name="Capa 1" xmlns="http://www.w3.org/2000/svg" xmlns:xlink="http://www.w3.org/1999/xlink" viewBox="0 0 1920 1081">
  <defs>
    <style>
      .cls-1 {
        clip-path: url(#clippath-6);
      }

      .cls-2 {
        clip-path: url(#clippath-7);
      }

      .cls-3 {
        fill: #e5dfd3;
      }

      .cls-4 {
        clip-path: url(#clippath-4);
      }

      .cls-5 {
        fill: #fff;
      }

      .cls-6, .cls-7, .cls-8 {
        fill: none;
      }

      .cls-9 {
        clip-path: url(#clippath-1);
      }

      .cls-10 {
        clip-path: url(#clippath-5);
      }

      .cls-11 {
        clip-path: url(#clippath-8);
      }

      .cls-12 {
        clip-path: url(#clippath-3);
      }

      .cls-7 {
        stroke: #fff;
      }

      .cls-7, .cls-13 {
        stroke-width: 3px;
      }

      .cls-7, .cls-13, .cls-8 {
        stroke-miterlimit: 10;
      }

      .cls-14, .cls-13 {
        fill: #f6f2ea;
      }

      .cls-13 {
        stroke: #e5dfd3;
      }

      .cls-8 {
        stroke: #ffb9c9;
        stroke-width: .5px;
      }

      .cls-15 {
        clip-path: url(#clippath-2);
      }

      .cls-16 {
        clip-path: url(#clippath);
      }
    </style>
    <clipPath id="clippath">
      <rect class="cls-3" x="-1939.59" y="0" width="1920" height="1081"/>
    </clipPath>
    <clipPath id="clippath-1">
      <rect class="cls-6" x="-2023.71" y="-127.67" width="2234.38" height="1336.34"/>
    </clipPath>
    <clipPath id="clippath-2">
      <rect class="cls-3" y="0" width="1920" height="1081"/>
    </clipPath>
    <clipPath id="clippath-3">
      <rect class="cls-6" x="-289.73" y="-93.56" width="2499.47" height="1268.13"/>
    </clipPath>
    <clipPath id="clippath-4">
      <rect class="cls-5" x="-1939.59" y="1127.58" width="1920" height="1081"/>
    </clipPath>
    <clipPath id="clippath-5">
      <rect class="cls-6" x="-2969.96" y="553.5" width="3963.69" height="2229.74"/>
    </clipPath>
    <clipPath id="clippath-6">
      <rect class="cls-6" x="15.74" y="1127.58" width="1922.66" height="1081.58"/>
    </clipPath>
    <clipPath id="clippath-7">
      <rect class="cls-6" x="16.47" y="808.91" width="1921.21" height="2464.27"/>
    </clipPath>
    <clipPath id="clippath-8">
      <rect class="cls-8" x="-1795.72" y="-1533.75" width="2164.03" height="1080"/>
    </clipPath>
  </defs>
  <g>
    <rect class="cls-3" x="-1939.59" y="0" width="1920" height="1081"/>
    <g class="cls-16">
      <g class="cls-9">
        <g>
          <g id="_Repetición_de_cuadrícula_" data-name="&amp;lt;Repetición de cuadrícula&amp;gt;">
            <polygon class="cls-14" points="-89.42 -200.86 -89.42 254.5 152.37 166.54 152.37 -288.81 -89.42 -200.86"/>
          </g>
          <g id="_Repetición_de_cuadrícula_-2" data-name="&amp;lt;Repetición de cuadrícula&amp;gt;">
            <polygon class="cls-14" points="-89.42 331.45 -89.42 786.81 152.37 698.85 152.37 243.49 -89.42 331.45"/>
          </g>
          <g id="_Repetición_de_cuadrícula_-3" data-name="&amp;lt;Repetición de cuadrícula&amp;gt;">
            <polygon class="cls-14" points="152.37 65.3 152.37 520.65 394.15 432.7 394.15 -22.66 152.37 65.3"/>
          </g>
          <g id="_Repetición_de_cuadrícula_-4" data-name="&amp;lt;Repetición de cuadrícula&amp;gt;">
            <polygon class="cls-14" points="-89.42 863.76 -89.42 1319.11 152.37 1231.16 152.37 775.8 -89.42 863.76"/>
          </g>
          <g id="_Repetición_de_cuadrícula_-5" data-name="&amp;lt;Repetición de cuadrícula&amp;gt;">
            <polygon class="cls-14" points="152.37 597.6 152.37 1052.96 394.15 965 394.15 509.65 152.37 597.6"/>
          </g>
          <g id="_Repetición_de_cuadrícula_-6" data-name="&amp;lt;Repetición de cuadrícula&amp;gt;">
            <polygon class="cls-14" points="152.37 1129.91 152.37 1585.27 394.15 1497.31 394.15 1041.96 152.37 1129.91"/>
          </g>
        </g>
      </g>
    </g>
  </g>
  <g>
    <rect class="cls-3" y="0" width="1920" height="1081"/>
    <g class="cls-15">
      <g class="cls-12">
        <g>
          <g id="_Repetición_de_cuadrícula_-7" data-name="&amp;lt;Repetición de cuadrícula&amp;gt;">
            <polygon class="cls-14" points="-12.69 -22.54 -12.69 217.32 264.35 116.54 264.35 -123.32 -12.69 -22.54"/>
          </g>
          <g id="_Repetición_de_cuadrícula_-8" data-name="&amp;lt;Repetición de cuadrícula&amp;gt;">
            <polygon class="cls-14" points="264.35 -222.62 264.35 17.24 541.4 -83.54 541.4 -323.41 264.35 -222.62"/>
          </g>
          <g id="_Repetición_de_cuadrícula_-9" data-name="&amp;lt;Repetición de cuadrícula&amp;gt;">
            <polygon class="cls-14" points="541.4 -22.54 541.4 217.32 818.44 116.54 818.44 -123.32 541.4 -22.54"/>
          </g>
          <g id="_Repetición_de_cuadrícula_-10" data-name="&amp;lt;Repetición de cuadrícula&amp;gt;">
            <polygon class="cls-14" points="818.44 -222.62 818.44 17.24 1095.49 -83.54 1095.49 -323.41 818.44 -222.62"/>
          </g>
          <g id="_Repetición_de_cuadrícula_-11" data-name="&amp;lt;Repetición de cuadrícula&amp;gt;">
            <polygon class="cls-14" points="1095.49 -22.54 1095.49 217.32 1372.53 116.54 1372.53 -123.32 1095.49 -22.54"/>
          </g>
          <g id="_Repetición_de_cuadrícula_-12" data-name="&amp;lt;Repetición de cuadrícula&amp;gt;">
            <polygon class="cls-14" points="1372.53 -222.62 1372.53 17.24 1649.58 -83.54 1649.58 -323.41 1372.53 -222.62"/>
          </g>
          <g id="_Repetición_de_cuadrícula_-13" data-name="&amp;lt;Repetición de cuadrícula&amp;gt;">
            <polygon class="cls-14" points="1649.58 -22.54 1649.58 217.32 1926.62 116.54 1926.62 -123.32 1649.58 -22.54"/>
          </g>
          <g id="_Repetición_de_cuadrícula_-14" data-name="&amp;lt;Repetición de cuadrícula&amp;gt;">
            <polygon class="cls-14" points="264.35 377.62 264.35 617.49 -12.69 516.71 -12.69 276.84 264.35 377.62"/>
          </g>
          <g id="_Repetición_de_cuadrícula_-15" data-name="&amp;lt;Repetición de cuadrícula&amp;gt;">
            <polygon class="cls-14" points="541.4 177.54 541.4 417.41 264.35 316.62 264.35 76.76 541.4 177.54"/>
          </g>
          <g id="_Repetición_de_cuadrícula_-16" data-name="&amp;lt;Repetición de cuadrícula&amp;gt;">
            <polygon class="cls-14" points="818.44 377.62 818.44 617.49 541.4 516.71 541.4 276.84 818.44 377.62"/>
          </g>
          <g id="_Repetición_de_cuadrícula_-17" data-name="&amp;lt;Repetición de cuadrícula&amp;gt;">
            <polygon class="cls-14" points="1095.49 177.54 1095.49 417.41 818.44 316.62 818.44 76.76 1095.49 177.54"/>
          </g>
          <g id="_Repetición_de_cuadrícula_-18" data-name="&amp;lt;Repetición de cuadrícula&amp;gt;">
            <polygon class="cls-14" points="1372.53 377.62 1372.53 617.49 1095.49 516.71 1095.49 276.84 1372.53 377.62"/>
          </g>
          <g id="_Repetición_de_cuadrícula_-19" data-name="&amp;lt;Repetición de cuadrícula&amp;gt;">
            <polygon class="cls-14" points="1649.58 177.54 1649.58 417.41 1372.53 316.62 1372.53 76.76 1649.58 177.54"/>
          </g>
          <g id="_Repetición_de_cuadrícula_-20" data-name="&amp;lt;Repetición de cuadrícula&amp;gt;">
            <polygon class="cls-14" points="1926.62 377.62 1926.62 617.49 1649.58 516.71 1649.58 276.84 1926.62 377.62"/>
          </g>
          <g id="_Repetición_de_cuadrícula_-21" data-name="&amp;lt;Repetición de cuadrícula&amp;gt;">
            <polygon class="cls-14" points="-12.69 777.79 -12.69 1017.65 264.35 916.87 264.35 677.01 -12.69 777.79"/>
          </g>
          <g id="_Repetición_de_cuadrícula_-22" data-name="&amp;lt;Repetición de cuadrícula&amp;gt;">
            <polygon class="cls-14" points="264.35 577.71 264.35 817.57 541.4 716.79 541.4 476.92 264.35 577.71"/>
          </g>
          <g id="_Repetición_de_cuadrícula_-23" data-name="&amp;lt;Repetición de cuadrícula&amp;gt;">
            <polygon class="cls-14" points="541.4 777.79 541.4 1017.65 818.44 916.87 818.44 677.01 541.4 777.79"/>
          </g>
          <g id="_Repetición_de_cuadrícula_-24" data-name="&amp;lt;Repetición de cuadrícula&amp;gt;">
            <polygon class="cls-14" points="818.44 577.71 818.44 817.57 1095.49 716.79 1095.49 476.92 818.44 577.71"/>
          </g>
          <g id="_Repetición_de_cuadrícula_-25" data-name="&amp;lt;Repetición de cuadrícula&amp;gt;">
            <polygon class="cls-14" points="1095.49 777.79 1095.49 1017.65 1372.53 916.87 1372.53 677.01 1095.49 777.79"/>
          </g>
          <g id="_Repetición_de_cuadrícula_-26" data-name="&amp;lt;Repetición de cuadrícula&amp;gt;">
            <polygon class="cls-14" points="1372.53 577.71 1372.53 817.57 1649.58 716.79 1649.58 476.92 1372.53 577.71"/>
          </g>
          <g id="_Repetición_de_cuadrícula_-27" data-name="&amp;lt;Repetición de cuadrícula&amp;gt;">
            <polygon class="cls-14" points="1649.58 777.79 1649.58 1017.65 1926.62 916.87 1926.62 677.01 1649.58 777.79"/>
          </g>
          <g id="_Repetición_de_cuadrícula_-28" data-name="&amp;lt;Repetición de cuadrícula&amp;gt;">
            <polygon class="cls-14" points="264.35 1177.95 264.35 1417.82 -12.69 1317.04 -12.69 1077.17 264.35 1177.95"/>
          </g>
          <g id="_Repetición_de_cuadrícula_-29" data-name="&amp;lt;Repetición de cuadrícula&amp;gt;">
            <polygon class="cls-14" points="541.4 977.87 541.4 1217.74 264.35 1116.95 264.35 877.09 541.4 977.87"/>
          </g>
          <g id="_Repetición_de_cuadrícula_-30" data-name="&amp;lt;Repetición de cuadrícula&amp;gt;">
            <polygon class="cls-14" points="818.44 1177.95 818.44 1417.82 541.4 1317.04 541.4 1077.17 818.44 1177.95"/>
          </g>
          <g id="_Repetición_de_cuadrícula_-31" data-name="&amp;lt;Repetición de cuadrícula&amp;gt;">
            <polygon class="cls-14" points="1095.49 977.87 1095.49 1217.74 818.44 1116.95 818.44 877.09 1095.49 977.87"/>
          </g>
          <g id="_Repetición_de_cuadrícula_-32" data-name="&amp;lt;Repetición de cuadrícula&amp;gt;">
            <polygon class="cls-14" points="1372.53 1177.95 1372.53 1417.82 1095.49 1317.04 1095.49 1077.17 1372.53 1177.95"/>
          </g>
          <g id="_Repetición_de_cuadrícula_-33" data-name="&amp;lt;Repetición de cuadrícula&amp;gt;">
            <polygon class="cls-14" points="1649.58 977.87 1649.58 1217.74 1372.53 1116.95 1372.53 877.09 1649.58 977.87"/>
          </g>
          <g id="_Repetición_de_cuadrícula_-34" data-name="&amp;lt;Repetición de cuadrícula&amp;gt;">
            <polygon class="cls-14" points="1926.62 1177.95 1926.62 1417.82 1649.58 1317.04 1649.58 1077.17 1926.62 1177.95"/>
          </g>
        </g>
      </g>
    </g>
  </g>
  <g>
    <rect class="cls-5" x="-1939.59" y="1127.58" width="1920" height="1081"/>
    <g class="cls-4">
      <g class="cls-10">
        <g>
          <polygon class="cls-13" points="-313.3 553.5 -313.3 691.56 66.22 553.5 -313.3 553.5"/>
          <g>
            <polygon class="cls-13" points="445.74 691.56 445.74 553.5 66.22 691.56 445.74 691.56"/>
            <polygon class="cls-13" points="445.74 415.44 445.74 553.5 825.26 415.44 445.74 415.44"/>
          </g>
          <g>
            <polygon class="cls-13" points="1204.78 829.62 1204.78 691.56 825.26 829.62 1204.78 829.62"/>
            <polygon class="cls-13" points="1204.78 553.5 1204.78 691.56 1584.3 553.5 1204.78 553.5"/>
          </g>
          <polygon class="cls-13" points="-313.3 829.62 -313.3 967.69 66.22 829.62 -313.3 829.62"/>
          <g>
            <polygon class="cls-13" points="445.74 967.69 445.74 829.62 66.22 967.69 445.74 967.69"/>
            <polygon class="cls-13" points="445.74 691.56 445.74 829.62 825.26 691.56 445.74 691.56"/>
          </g>
          <g>
            <polygon class="cls-13" points="1204.78 1105.75 1204.78 967.69 825.26 1105.75 1204.78 1105.75"/>
            <polygon class="cls-13" points="1204.78 829.62 1204.78 967.69 1584.3 829.62 1204.78 829.62"/>
          </g>
          <polygon class="cls-13" points="445.74 967.69 445.74 1105.75 825.26 967.69 445.74 967.69"/>
        </g>
      </g>
    </g>
  </g>
  <g class="cls-1">
    <g class="cls-2">
      <g>
        <g id="_Repetición_de_cuadrícula_-35" data-name="&amp;lt;Repetición de cuadrícula&amp;gt;">
          <path class="cls-7" d="M-1903.94,825.47L16.06,126.63"/>
        </g>
        <g id="_Repetición_de_cuadrícula_-36" data-name="&amp;lt;Repetición de cuadrícula&amp;gt;">
          <path class="cls-7" d="M17.09,825.47L1937.09,126.63"/>
        </g>
        <g id="_Repetición_de_cuadrícula_-37" data-name="&amp;lt;Repetición de cuadrícula&amp;gt;">
          <path class="cls-7" d="M-1903.94,847.45L16.06,148.61"/>
        </g>
        <g id="_Repetición_de_cuadrícula_-38" data-name="&amp;lt;Repetición de cuadrícula&amp;gt;">
          <path class="cls-7" d="M17.09,847.45L1937.09,148.61"/>
        </g>
        <g id="_Repetición_de_cuadrícula_-39" data-name="&amp;lt;Repetición de cuadrícula&amp;gt;">
          <path class="cls-7" d="M-1903.94,869.43L16.06,170.59"/>
        </g>
        <g id="_Repetición_de_cuadrícula_-40" data-name="&amp;lt;Repetición de cuadrícula&amp;gt;">
          <path class="cls-7" d="M17.09,869.43L1937.09,170.59"/>
        </g>
        <g id="_Repetición_de_cuadrícula_-41" data-name="&amp;lt;Repetición de cuadrícula&amp;gt;">
          <path class="cls-7" d="M-1903.94,891.41L16.06,192.57"/>
        </g>
        <g id="_Repetición_de_cuadrícula_-42" data-name="&amp;lt;Repetición de cuadrícula&amp;gt;">
          <path class="cls-7" d="M17.09,891.41L1937.09,192.57"/>
        </g>
        <g id="_Repetición_de_cuadrícula_-43" data-name="&amp;lt;Repetición de cuadrícula&amp;gt;">
          <path class="cls-7" d="M-1903.94,913.39L16.06,214.55"/>
        </g>
        <g id="_Repetición_de_cuadrícula_-44" data-name="&amp;lt;Repetición de cuadrícula&amp;gt;">
          <path class="cls-7" d="M17.09,913.39L1937.09,214.55"/>
        </g>
        <g id="_Repetición_de_cuadrícula_-45" data-name="&amp;lt;Repetición de cuadrícula&amp;gt;">
          <path class="cls-7" d="M-1903.94,935.37L16.06,236.53"/>
        </g>
        <g id="_Repetición_de_cuadrícula_-46" data-name="&amp;lt;Repetición de cuadrícula&amp;gt;">
          <path class="cls-7" d="M17.09,935.37L1937.09,236.53"/>
        </g>
        <g id="_Repetición_de_cuadrícula_-47" data-name="&amp;lt;Repetición de cuadrícula&amp;gt;">
          <path class="cls-7" d="M-1903.94,957.35L16.06,258.51"/>
        </g>
        <g id="_Repetición_de_cuadrícula_-48" data-name="&amp;lt;Repetición de cuadrícula&amp;gt;">
          <path class="cls-7" d="M17.09,957.35L1937.09,258.51"/>
        </g>
        <g id="_Repetición_de_cuadrícula_-49" data-name="&amp;lt;Repetición de cuadrícula&amp;gt;">
          <path class="cls-7" d="M-1903.94,979.32L16.06,280.49"/>
        </g>
        <g id="_Repetición_de_cuadrícula_-50" data-name="&amp;lt;Repetición de cuadrícula&amp;gt;">
          <path class="cls-7" d="M17.09,979.32L1937.09,280.49"/>
        </g>
        <g id="_Repetición_de_cuadrícula_-51" data-name="&amp;lt;Repetición de cuadrícula&amp;gt;">
          <path class="cls-7" d="M-1903.94,1001.3L16.06,302.47"/>
        </g>
        <g id="_Repetición_de_cuadrícula_-52" data-name="&amp;lt;Repetición de cuadrícula&amp;gt;">
          <path class="cls-7" d="M17.09,1001.3L1937.09,302.47"/>
        </g>
        <g id="_Repetición_de_cuadrícula_-53" data-name="&amp;lt;Repetición de cuadrícula&amp;gt;">
          <path class="cls-7" d="M-1903.94,1023.28L16.06,324.45"/>
        </g>
        <g id="_Repetición_de_cuadrícula_-54" data-name="&amp;lt;Repetición de cuadrícula&amp;gt;">
          <path class="cls-7" d="M17.09,1023.28L1937.09,324.45"/>
        </g>
        <g id="_Repetición_de_cuadrícula_-55" data-name="&amp;lt;Repetición de cuadrícula&amp;gt;">
          <path class="cls-7" d="M-1903.94,1045.26L16.06,346.42"/>
        </g>
        <g id="_Repetición_de_cuadrícula_-56" data-name="&amp;lt;Repetición de cuadrícula&amp;gt;">
          <path class="cls-7" d="M17.09,1045.26L1937.09,346.42"/>
        </g>
        <g id="_Repetición_de_cuadrícula_-57" data-name="&amp;lt;Repetición de cuadrícula&amp;gt;">
          <path class="cls-7" d="M-1903.94,1067.24L16.06,368.4"/>
        </g>
        <g id="_Repetición_de_cuadrícula_-58" data-name="&amp;lt;Repetición de cuadrícula&amp;gt;">
          <path class="cls-7" d="M17.09,1067.24L1937.09,368.4"/>
        </g>
        <g id="_Repetición_de_cuadrícula_-59" data-name="&amp;lt;Repetición de cuadrícula&amp;gt;">
          <path class="cls-7" d="M-1903.94,1089.22L16.06,390.38"/>
        </g>
        <g id="_Repetición_de_cuadrícula_-60" data-name="&amp;lt;Repetición de cuadrícula&amp;gt;">
          <path class="cls-7" d="M17.09,1089.22L1937.09,390.38"/>
        </g>
        <g id="_Repetición_de_cuadrícula_-61" data-name="&amp;lt;Repetición de cuadrícula&amp;gt;">
          <path class="cls-7" d="M-1903.94,1111.2L16.06,412.36"/>
        </g>
        <g id="_Repetición_de_cuadrícula_-62" data-name="&amp;lt;Repetición de cuadrícula&amp;gt;">
          <path class="cls-7" d="M17.09,1111.2L1937.09,412.36"/>
        </g>
        <g id="_Repetición_de_cuadrícula_-63" data-name="&amp;lt;Repetición de cuadrícula&amp;gt;">
          <path class="cls-7" d="M-1903.94,1133.18L16.06,434.34"/>
        </g>
        <g id="_Repetición_de_cuadrícula_-64" data-name="&amp;lt;Repetición de cuadrícula&amp;gt;">
          <path class="cls-7" d="M17.09,1133.18L1937.09,434.34"/>
        </g>
        <g id="_Repetición_de_cuadrícula_-65" data-name="&amp;lt;Repetición de cuadrícula&amp;gt;">
          <path class="cls-7" d="M-1903.94,1155.16L16.06,456.32"/>
        </g>
        <g id="_Repetición_de_cuadrícula_-66" data-name="&amp;lt;Repetición de cuadrícula&amp;gt;">
          <path class="cls-7" d="M17.09,1155.16L1937.09,456.32"/>
        </g>
        <g id="_Repetición_de_cuadrícula_-67" data-name="&amp;lt;Repetición de cuadrícula&amp;gt;">
          <path class="cls-7" d="M-1903.94,1177.14L16.06,478.3"/>
        </g>
        <g id="_Repetición_de_cuadrícula_-68" data-name="&amp;lt;Repetición de cuadrícula&amp;gt;">
          <path class="cls-7" d="M17.09,1177.14L1937.09,478.3"/>
        </g>
        <g id="_Repetición_de_cuadrícula_-69" data-name="&amp;lt;Repetición de cuadrícula&amp;gt;">
          <path class="cls-7" d="M-1903.94,1199.11L16.06,500.28"/>
        </g>
        <g id="_Repetición_de_cuadrícula_-70" data-name="&amp;lt;Repetición de cuadrícula&amp;gt;">
          <path class="cls-7" d="M17.09,1199.11L1937.09,500.28"/>
        </g>
        <g id="_Repetición_de_cuadrícula_-71" data-name="&amp;lt;Repetición de cuadrícula&amp;gt;">
          <path class="cls-7" d="M-1903.94,1221.09L16.06,522.26"/>
        </g>
        <g id="_Repetición_de_cuadrícula_-72" data-name="&amp;lt;Repetición de cuadrícula&amp;gt;">
          <path class="cls-7" d="M17.09,1221.09l1920-698.84"/>
        </g>
        <g id="_Repetición_de_cuadrícula_-73" data-name="&amp;lt;Repetición de cuadrícula&amp;gt;">
          <path class="cls-7" d="M-1903.94,1243.07L16.06,544.24"/>
        </g>
        <g id="_Repetición_de_cuadrícula_-74" data-name="&amp;lt;Repetición de cuadrícula&amp;gt;">
          <path class="cls-7" d="M17.09,1243.07l1920-698.84"/>
        </g>
        <g id="_Repetición_de_cuadrícula_-75" data-name="&amp;lt;Repetición de cuadrícula&amp;gt;">
          <path class="cls-7" d="M-1903.94,1265.05L16.06,566.21"/>
        </g>
        <g id="_Repetición_de_cuadrícula_-76" data-name="&amp;lt;Repetición de cuadrícula&amp;gt;">
          <path class="cls-7" d="M17.09,1265.05l1920-698.84"/>
        </g>
        <g id="_Repetición_de_cuadrícula_-77" data-name="&amp;lt;Repetición de cuadrícula&amp;gt;">
          <path class="cls-7" d="M-1903.94,1287.03L16.06,588.19"/>
        </g>
        <g id="_Repetición_de_cuadrícula_-78" data-name="&amp;lt;Repetición de cuadrícula&amp;gt;">
          <path class="cls-7" d="M17.09,1287.03l1920-698.84"/>
        </g>
        <g id="_Repetición_de_cuadrícula_-79" data-name="&amp;lt;Repetición de cuadrícula&amp;gt;">
          <path class="cls-7" d="M-1903.94,1309.01L16.06,610.17"/>
        </g>
        <g id="_Repetición_de_cuadrícula_-80" data-name="&amp;lt;Repetición de cuadrícula&amp;gt;">
          <path class="cls-7" d="M17.09,1309.01l1920-698.84"/>
        </g>
        <g id="_Repetición_de_cuadrícula_-81" data-name="&amp;lt;Repetición de cuadrícula&amp;gt;">
          <path class="cls-7" d="M-1903.94,1330.99L16.06,632.15"/>
        </g>
        <g id="_Repetición_de_cuadrícula_-82" data-name="&amp;lt;Repetición de cuadrícula&amp;gt;">
          <path class="cls-7" d="M17.09,1330.99l1920-698.84"/>
        </g>
        <g id="_Repetición_de_cuadrícula_-83" data-name="&amp;lt;Repetición de cuadrícula&amp;gt;">
          <path class="cls-7" d="M-1903.94,1352.97L16.06,654.13"/>
        </g>
        <g id="_Repetición_de_cuadrícula_-84" data-name="&amp;lt;Repetición de cuadrícula&amp;gt;">
          <path class="cls-7" d="M17.09,1352.97l1920-698.84"/>
        </g>
        <g id="_Repetición_de_cuadrícula_-85" data-name="&amp;lt;Repetición de cuadrícula&amp;gt;">
          <path class="cls-7" d="M-1903.94,1374.95L16.06,676.11"/>
        </g>
        <g id="_Repetición_de_cuadrícula_-86" data-name="&amp;lt;Repetición de cuadrícula&amp;gt;">
          <path class="cls-7" d="M17.09,1374.95l1920-698.84"/>
        </g>
        <g id="_Repetición_de_cuadrícula_-87" data-name="&amp;lt;Repetición de cuadrícula&amp;gt;">
          <path class="cls-7" d="M-1903.94,1396.93L16.06,698.09"/>
        </g>
        <g id="_Repetición_de_cuadrícula_-88" data-name="&amp;lt;Repetición de cuadrícula&amp;gt;">
          <path class="cls-7" d="M17.09,1396.93l1920-698.84"/>
        </g>
        <g id="_Repetición_de_cuadrícula_-89" data-name="&amp;lt;Repetición de cuadrícula&amp;gt;">
          <path class="cls-7" d="M-1903.94,1418.9L16.06,720.07"/>
        </g>
        <g id="_Repetición_de_cuadrícula_-90" data-name="&amp;lt;Repetición de cuadrícula&amp;gt;">
          <path class="cls-7" d="M17.09,1418.9l1920-698.84"/>
        </g>
        <g id="_Repetición_de_cuadrícula_-91" data-name="&amp;lt;Repetición de cuadrícula&amp;gt;">
          <path class="cls-7" d="M-1903.94,1440.88L16.06,742.05"/>
        </g>
        <g id="_Repetición_de_cuadrícula_-92" data-name="&amp;lt;Repetición de cuadrícula&amp;gt;">
          <path class="cls-7" d="M17.09,1440.88l1920-698.84"/>
        </g>
        <g id="_Repetición_de_cuadrícula_-93" data-name="&amp;lt;Repetición de cuadrícula&amp;gt;">
          <path class="cls-7" d="M-1903.94,1462.86L16.06,764.02"/>
        </g>
        <g id="_Repetición_de_cuadrícula_-94" data-name="&amp;lt;Repetición de cuadrícula&amp;gt;">
          <path class="cls-7" d="M17.09,1462.86l1920-698.84"/>
        </g>
        <g id="_Repetición_de_cuadrícula_-95" data-name="&amp;lt;Repetición de cuadrícula&amp;gt;">
          <path class="cls-7" d="M-1903.94,1484.84L16.06,786"/>
        </g>
        <g id="_Repetición_de_cuadrícula_-96" data-name="&amp;lt;Repetición de cuadrícula&amp;gt;">
          <path class="cls-7" d="M17.09,1484.84l1920-698.84"/>
        </g>
        <g id="_Repetición_de_cuadrícula_-97" data-name="&amp;lt;Repetición de cuadrícula&amp;gt;">
          <path class="cls-7" d="M-1903.94,1506.82L16.06,807.98"/>
        </g>
        <g id="_Repetición_de_cuadrícula_-98" data-name="&amp;lt;Repetición de cuadrícula&amp;gt;">
          <path class="cls-7" d="M17.09,1506.82l1920-698.84"/>
        </g>
        <g id="_Repetición_de_cuadrícula_-99" data-name="&amp;lt;Repetición de cuadrícula&amp;gt;">
          <path class="cls-7" d="M-1903.94,1528.8L16.06,829.96"/>
        </g>
        <g id="_Repetición_de_cuadrícula_-100" data-name="&amp;lt;Repetición de cuadrícula&amp;gt;">
          <path class="cls-7" d="M17.09,1528.8l1920-698.84"/>
        </g>
        <g id="_Repetición_de_cuadrícula_-101" data-name="&amp;lt;Repetición de cuadrícula&amp;gt;">
          <path class="cls-7" d="M-1903.94,1550.78L16.06,851.94"/>
        </g>
        <g id="_Repetición_de_cuadrícula_-102" data-name="&amp;lt;Repetición de cuadrícula&amp;gt;">
          <path class="cls-7" d="M17.09,1550.78l1920-698.84"/>
        </g>
        <g id="_Repetición_de_cuadrícula_-103" data-name="&amp;lt;Repetición de cuadrícula&amp;gt;">
          <path class="cls-7" d="M-1903.94,1572.76L16.06,873.92"/>
        </g>
        <g id="_Repetición_de_cuadrícula_-104" data-name="&amp;lt;Repetición de cuadrícula&amp;gt;">
          <path class="cls-7" d="M17.09,1572.76l1920-698.84"/>
        </g>
        <g id="_Repetición_de_cuadrícula_-105" data-name="&amp;lt;Repetición de cuadrícula&amp;gt;">
          <path class="cls-7" d="M-1903.94,1594.74L16.06,895.9"/>
        </g>
        <g id="_Repetición_de_cuadrícula_-106" data-name="&amp;lt;Repetición de cuadrícula&amp;gt;">
          <path class="cls-7" d="M17.09,1594.74l1920-698.84"/>
        </g>
        <g id="_Repetición_de_cuadrícula_-107" data-name="&amp;lt;Repetición de cuadrícula&amp;gt;">
          <path class="cls-7" d="M-1903.94,1616.71L16.06,917.88"/>
        </g>
        <g id="_Repetición_de_cuadrícula_-108" data-name="&amp;lt;Repetición de cuadrícula&amp;gt;">
          <path class="cls-7" d="M17.09,1616.71l1920-698.84"/>
        </g>
        <g id="_Repetición_de_cuadrícula_-109" data-name="&amp;lt;Repetición de cuadrícula&amp;gt;">
          <path class="cls-7" d="M-1903.94,1638.69L16.06,939.86"/>
        </g>
        <g id="_Repetición_de_cuadrícula_-110" data-name="&amp;lt;Repetición de cuadrícula&amp;gt;">
          <path class="cls-7" d="M17.09,1638.69l1920-698.84"/>
        </g>
        <g id="_Repetición_de_cuadrícula_-111" data-name="&amp;lt;Repetición de cuadrícula&amp;gt;">
          <path class="cls-7" d="M-1903.94,1660.67L16.06,961.84"/>
        </g>
        <g id="_Repetición_de_cuadrícula_-112" data-name="&amp;lt;Repetición de cuadrícula&amp;gt;">
          <path class="cls-7" d="M17.09,1660.67l1920-698.84"/>
        </g>
        <g id="_Repetición_de_cuadrícula_-113" data-name="&amp;lt;Repetición de cuadrícula&amp;gt;">
          <path class="cls-7" d="M-1903.94,1682.65L16.06,983.81"/>
        </g>
        <g id="_Repetición_de_cuadrícula_-114" data-name="&amp;lt;Repetición de cuadrícula&amp;gt;">
          <path class="cls-7" d="M17.09,1682.65l1920-698.84"/>
        </g>
        <g id="_Repetición_de_cuadrícula_-115" data-name="&amp;lt;Repetición de cuadrícula&amp;gt;">
          <path class="cls-7" d="M-1903.94,1704.63L16.06,1005.79"/>
        </g>
        <g id="_Repetición_de_cuadrícula_-116" data-name="&amp;lt;Repetición de cuadrícula&amp;gt;">
          <path class="cls-7" d="M17.09,1704.63l1920-698.84"/>
        </g>
        <g id="_Repetición_de_cuadrícula_-117" data-name="&amp;lt;Repetición de cuadrícula&amp;gt;">
          <path class="cls-7" d="M-1903.94,1726.61L16.06,1027.77"/>
        </g>
        <g id="_Repetición_de_cuadrícula_-118" data-name="&amp;lt;Repetición de cuadrícula&amp;gt;">
          <path class="cls-7" d="M17.09,1726.61l1920-698.84"/>
        </g>
        <g id="_Repetición_de_cuadrícula_-119" data-name="&amp;lt;Repetición de cuadrícula&amp;gt;">
          <path class="cls-7" d="M-1903.94,1748.59L16.06,1049.75"/>
        </g>
        <g id="_Repetición_de_cuadrícula_-120" data-name="&amp;lt;Repetición de cuadrícula&amp;gt;">
          <path class="cls-7" d="M17.09,1748.59l1920-698.84"/>
        </g>
        <g id="_Repetición_de_cuadrícula_-121" data-name="&amp;lt;Repetición de cuadrícula&amp;gt;">
          <path class="cls-7" d="M-1903.94,1770.57L16.06,1071.73"/>
        </g>
        <g id="_Repetición_de_cuadrícula_-122" data-name="&amp;lt;Repetición de cuadrícula&amp;gt;">
          <path class="cls-7" d="M17.09,1770.57l1920-698.84"/>
        </g>
      </g>
    </g>
    <g>
      <g id="_Repetición_de_cuadrícula_-123" data-name="&amp;lt;Repetición de cuadrícula&amp;gt;">
        <g>
          <polygon class="cls-5" points="17.85 339.54 17.85 198.92 -368.71 339.54 17.85 339.54"/>
          <polygon class="cls-5" points="17.85 58.3 17.85 198.92 404.4 58.3 17.85 58.3"/>
        </g>
      </g>
      <g id="_Repetición_de_cuadrícula_-124" data-name="&amp;lt;Repetición de cuadrícula&amp;gt;">
        <g>
          <polygon class="cls-5" points="790.96 339.54 790.96 198.92 404.4 339.54 790.96 339.54"/>
          <polygon class="cls-5" points="790.96 58.3 790.96 198.92 1177.52 58.3 790.96 58.3"/>
        </g>
      </g>
      <g id="_Repetición_de_cuadrícula_-125" data-name="&amp;lt;Repetición de cuadrícula&amp;gt;">
        <g>
          <polygon class="cls-5" points="1564.07 339.54 1564.07 198.92 1177.52 339.54 1564.07 339.54"/>
          <polygon class="cls-5" points="1564.07 58.3 1564.07 198.92 1950.63 58.3 1564.07 58.3"/>
        </g>
      </g>
      <g id="_Repetición_de_cuadrícula_-126" data-name="&amp;lt;Repetición de cuadrícula&amp;gt;">
        <g>
          <polygon class="cls-5" points="17.85 620.78 17.85 480.16 -368.71 620.78 17.85 620.78"/>
          <polygon class="cls-5" points="17.85 339.54 17.85 480.16 404.4 339.54 17.85 339.54"/>
        </g>
      </g>
      <g id="_Repetición_de_cuadrícula_-127" data-name="&amp;lt;Repetición de cuadrícula&amp;gt;">
        <g>
          <polygon class="cls-5" points="790.96 620.78 790.96 480.16 404.4 620.78 790.96 620.78"/>
          <polygon class="cls-5" points="790.96 339.54 790.96 480.16 1177.52 339.54 790.96 339.54"/>
        </g>
      </g>
      <g id="_Repetición_de_cuadrícula_-128" data-name="&amp;lt;Repetición de cuadrícula&amp;gt;">
        <g>
          <polygon class="cls-5" points="1564.07 620.78 1564.07 480.16 1177.52 620.78 1564.07 620.78"/>
          <polygon class="cls-5" points="1564.07 339.54 1564.07 480.16 1950.63 339.54 1564.07 339.54"/>
        </g>
      </g>
      <g id="_Repetición_de_cuadrícula_-129" data-name="&amp;lt;Repetición de cuadrícula&amp;gt;">
        <g>
          <polygon class="cls-5" points="17.85 902.02 17.85 761.4 -368.71 902.02 17.85 902.02"/>
          <polygon class="cls-5" points="17.85 620.78 17.85 761.4 404.4 620.78 17.85 620.78"/>
        </g>
      </g>
      <g id="_Repetición_de_cuadrícula_-130" data-name="&amp;lt;Repetición de cuadrícula&amp;gt;">
        <g>
          <polygon class="cls-5" points="790.96 902.02 790.96 761.4 404.4 902.02 790.96 902.02"/>
          <polygon class="cls-5" points="790.96 620.78 790.96 761.4 1177.52 620.78 790.96 620.78"/>
        </g>
      </g>
      <g id="_Repetición_de_cuadrícula_-131" data-name="&amp;lt;Repetición de cuadrícula&amp;gt;">
        <g>
          <polygon class="cls-5" points="1564.07 902.02 1564.07 761.4 1177.52 902.02 1564.07 902.02"/>
          <polygon class="cls-5" points="1564.07 620.78 1564.07 761.4 1950.63 620.78 1564.07 620.78"/>
        </g>
      </g>
      <g id="_Repetición_de_cuadrícula_-132" data-name="&amp;lt;Repetición de cuadrícula&amp;gt;">
        <g>
          <polygon class="cls-5" points="17.85 1183.26 17.85 1042.64 -368.71 1183.26 17.85 1183.26"/>
          <polygon class="cls-5" points="17.85 902.02 17.85 1042.64 404.4 902.02 17.85 902.02"/>
        </g>
      </g>
      <g id="_Repetición_de_cuadrícula_-133" data-name="&amp;lt;Repetición de cuadrícula&amp;gt;">
        <g>
          <polygon class="cls-5" points="790.96 1183.26 790.96 1042.64 404.4 1183.26 790.96 1183.26"/>
          <polygon class="cls-5" points="790.96 902.02 790.96 1042.64 1177.52 902.02 790.96 902.02"/>
        </g>
      </g>
      <g id="_Repetición_de_cuadrícula_-134" data-name="&amp;lt;Repetición de cuadrícula&amp;gt;">
        <g>
          <polygon class="cls-5" points="1564.07 1183.26 1564.07 1042.64 1177.52 1183.26 1564.07 1183.26"/>
          <polygon class="cls-5" points="1564.07 902.02 1564.07 1042.64 1950.63 902.02 1564.07 902.02"/>
        </g>
      </g>
    </g>
  </g>
  <g>
    <g class="cls-11">
      <g>
        <line class="cls-8" x1="-1795.72" y1="86.25" x2="1093.06" y2="-965.17"/>
        <line class="cls-8" x1="-1755.1" y1="341" x2="1133.67" y2="-710.42"/>
      </g>
      <g>
        <line class="cls-8" x1="-1838.86" y1="8.1" x2="1049.92" y2="-1043.32"/>
        <line class="cls-8" x1="-1798.25" y1="262.86" x2="1090.53" y2="-788.56"/>
      </g>
      <line class="cls-8" x1="-1749.66" y1="221.28" x2="1139.12" y2="-830.14"/>
    </g>
    <rect class="cls-8" x="-1795.72" y="-1533.75" width="2164.03" height="1080"/>
  </g>
</svg>