<?xml version="1.0" encoding="UTF-8"?>
<svg id="Capa_1" data-name="Capa 1" xmlns="http://www.w3.org/2000/svg" xmlns:xlink="http://www.w3.org/1999/xlink" viewBox="0 0 1920 1081">
  <defs>
    <style>
      .cls-1 {
        clip-path: url(#clippath-6);
      }

      .cls-2 {
        clip-path: url(#clippath-7);
      }

      .cls-3 {
        fill: #e5dfd3;
      }

      .cls-4 {
        clip-path: url(#clippath-4);
      }

      .cls-5 {
        fill: #fff;
      }

      .cls-6, .cls-7 {
        fill: none;
      }

      .cls-8 {
        clip-path: url(#clippath-1);
      }

      .cls-9 {
        clip-path: url(#clippath-5);
      }

      .cls-10 {
        clip-path: url(#clippath-3);
      }

      .cls-11, .cls-12 {
        fill: #f6f2ea;
      }

      .cls-12 {
        stroke: #e5dfd3;
        stroke-width: 3px;
      }

      .cls-12, .cls-7 {
        stroke-miterlimit: 10;
      }

      .cls-7 {
        stroke: #ffb9c9;
        stroke-width: .5px;
      }

      .cls-13 {
        clip-path: url(#clippath-2);
      }

      .cls-14 {
        clip-path: url(#clippath);
      }
    </style>
    <clipPath id="clippath">
      <rect class="cls-3" width="1920" height="1081"/>
    </clipPath>
    <clipPath id="clippath-1">
      <rect class="cls-6" x="-84.11" y="-127.67" width="2234.38" height="1336.34"/>
    </clipPath>
    <clipPath id="clippath-2">
      <rect class="cls-3" x="1939.59" width="1920" height="1081"/>
    </clipPath>
    <clipPath id="clippath-3">
      <rect class="cls-6" x="1649.86" y="-93.56" width="2499.47" height="1268.13"/>
    </clipPath>
    <clipPath id="clippath-4">
      <rect class="cls-5" y="1127.58" width="1920" height="1081"/>
    </clipPath>
    <clipPath id="clippath-5">
      <rect class="cls-6" x="-1030.37" y="553.5" width="3963.69" height="2229.74"/>
    </clipPath>
    <clipPath id="clippath-6">
      <rect class="cls-6" x="1955.33" y="1127.58" width="1922.66" height="1081.58"/>
    </clipPath>
    <clipPath id="clippath-7">
      <rect class="cls-7" x="143.88" y="-1533.75" width="2164.03" height="1080"/>
    </clipPath>
  </defs>
  <g>
    <rect class="cls-3" width="1920" height="1081"/>
    <g class="cls-14">
      <g class="cls-8">
        <g>
          <g id="_Repetición_de_cuadrícula_" data-name="&amp;lt;Repetición de cuadrícula&amp;gt;">
            <polygon class="cls-11" points="-84.11 -200.86 -84.11 254.5 157.67 166.54 157.67 -288.81 -84.11 -200.86"/>
          </g>
          <g id="_Repetición_de_cuadrícula_-2" data-name="&amp;lt;Repetición de cuadrícula&amp;gt;">
            <polygon class="cls-11" points="399.46 -200.86 399.46 254.5 641.24 166.54 641.24 -288.81 399.46 -200.86"/>
          </g>
          <g id="_Repetición_de_cuadrícula_-3" data-name="&amp;lt;Repetición de cuadrícula&amp;gt;">
            <polygon class="cls-11" points="883.03 -200.86 883.03 254.5 1124.82 166.54 1124.82 -288.81 883.03 -200.86"/>
          </g>
          <g id="_Repetición_de_cuadrícula_-4" data-name="&amp;lt;Repetición de cuadrícula&amp;gt;">
            <polygon class="cls-11" points="1366.6 -200.86 1366.6 254.5 1608.39 166.54 1608.39 -288.81 1366.6 -200.86"/>
          </g>
          <g id="_Repetición_de_cuadrícula_-5" data-name="&amp;lt;Repetición de cuadrícula&amp;gt;">
            <polygon class="cls-11" points="1850.17 -200.86 1850.17 254.5 2091.96 166.54 2091.96 -288.81 1850.17 -200.86"/>
          </g>
          <g id="_Repetición_de_cuadrícula_-6" data-name="&amp;lt;Repetición de cuadrícula&amp;gt;">
            <polygon class="cls-11" points="-84.11 331.45 -84.11 786.81 157.67 698.85 157.67 243.49 -84.11 331.45"/>
          </g>
          <g id="_Repetición_de_cuadrícula_-7" data-name="&amp;lt;Repetición de cuadrícula&amp;gt;">
            <polygon class="cls-11" points="157.67 65.3 157.67 520.65 399.46 432.7 399.46 -22.66 157.67 65.3"/>
          </g>
          <g id="_Repetición_de_cuadrícula_-8" data-name="&amp;lt;Repetición de cuadrícula&amp;gt;">
            <polygon class="cls-11" points="399.46 331.45 399.46 786.81 641.24 698.85 641.24 243.49 399.46 331.45"/>
          </g>
          <g id="_Repetición_de_cuadrícula_-9" data-name="&amp;lt;Repetición de cuadrícula&amp;gt;">
            <polygon class="cls-11" points="641.24 65.3 641.24 520.65 883.03 432.7 883.03 -22.66 641.24 65.3"/>
          </g>
          <g id="_Repetición_de_cuadrícula_-10" data-name="&amp;lt;Repetición de cuadrícula&amp;gt;">
            <polygon class="cls-11" points="883.03 331.45 883.03 786.81 1124.82 698.85 1124.82 243.49 883.03 331.45"/>
          </g>
          <g id="_Repetición_de_cuadrícula_-11" data-name="&amp;lt;Repetición de cuadrícula&amp;gt;">
            <polygon class="cls-11" points="1124.82 65.3 1124.82 520.65 1366.6 432.7 1366.6 -22.66 1124.82 65.3"/>
          </g>
          <g id="_Repetición_de_cuadrícula_-12" data-name="&amp;lt;Repetición de cuadrícula&amp;gt;">
            <polygon class="cls-11" points="1366.6 331.45 1366.6 786.81 1608.39 698.85 1608.39 243.49 1366.6 331.45"/>
          </g>
          <g id="_Repetición_de_cuadrícula_-13" data-name="&amp;lt;Repetición de cuadrícula&amp;gt;">
            <polygon class="cls-11" points="1608.39 65.3 1608.39 520.65 1850.17 432.7 1850.17 -22.66 1608.39 65.3"/>
          </g>
          <g id="_Repetición_de_cuadrícula_-14" data-name="&amp;lt;Repetición de cuadrícula&amp;gt;">
            <polygon class="cls-11" points="1850.17 331.45 1850.17 786.81 2091.96 698.85 2091.96 243.49 1850.17 331.45"/>
          </g>
          <g id="_Repetición_de_cuadrícula_-15" data-name="&amp;lt;Repetición de cuadrícula&amp;gt;">
            <polygon class="cls-11" points="-84.11 863.76 -84.11 1319.11 157.67 1231.16 157.67 775.8 -84.11 863.76"/>
          </g>
          <g id="_Repetición_de_cuadrícula_-16" data-name="&amp;lt;Repetición de cuadrícula&amp;gt;">
            <polygon class="cls-11" points="157.67 597.6 157.67 1052.96 399.46 965 399.46 509.65 157.67 597.6"/>
          </g>
          <g id="_Repetición_de_cuadrícula_-17" data-name="&amp;lt;Repetición de cuadrícula&amp;gt;">
            <polygon class="cls-11" points="399.46 863.76 399.46 1319.11 641.24 1231.16 641.24 775.8 399.46 863.76"/>
          </g>
          <g id="_Repetición_de_cuadrícula_-18" data-name="&amp;lt;Repetición de cuadrícula&amp;gt;">
            <polygon class="cls-11" points="641.24 597.6 641.24 1052.96 883.03 965 883.03 509.65 641.24 597.6"/>
          </g>
          <g id="_Repetición_de_cuadrícula_-19" data-name="&amp;lt;Repetición de cuadrícula&amp;gt;">
            <polygon class="cls-11" points="883.03 863.76 883.03 1319.11 1124.82 1231.16 1124.82 775.8 883.03 863.76"/>
          </g>
          <g id="_Repetición_de_cuadrícula_-20" data-name="&amp;lt;Repetición de cuadrícula&amp;gt;">
            <polygon class="cls-11" points="1124.82 597.6 1124.82 1052.96 1366.6 965 1366.6 509.65 1124.82 597.6"/>
          </g>
          <g id="_Repetición_de_cuadrícula_-21" data-name="&amp;lt;Repetición de cuadrícula&amp;gt;">
            <polygon class="cls-11" points="1366.6 863.76 1366.6 1319.11 1608.39 1231.16 1608.39 775.8 1366.6 863.76"/>
          </g>
          <g id="_Repetición_de_cuadrícula_-22" data-name="&amp;lt;Repetición de cuadrícula&amp;gt;">
            <polygon class="cls-11" points="1608.39 597.6 1608.39 1052.96 1850.17 965 1850.17 509.65 1608.39 597.6"/>
          </g>
          <g id="_Repetición_de_cuadrícula_-23" data-name="&amp;lt;Repetición de cuadrícula&amp;gt;">
            <polygon class="cls-11" points="1850.17 863.76 1850.17 1319.11 2091.96 1231.16 2091.96 775.8 1850.17 863.76"/>
          </g>
          <g id="_Repetición_de_cuadrícula_-24" data-name="&amp;lt;Repetición de cuadrícula&amp;gt;">
            <polygon class="cls-11" points="157.67 1129.91 157.67 1585.27 399.46 1497.31 399.46 1041.96 157.67 1129.91"/>
          </g>
          <g id="_Repetición_de_cuadrícula_-25" data-name="&amp;lt;Repetición de cuadrícula&amp;gt;">
            <polygon class="cls-11" points="641.24 1129.91 641.24 1585.27 883.03 1497.31 883.03 1041.96 641.24 1129.91"/>
          </g>
          <g id="_Repetición_de_cuadrícula_-26" data-name="&amp;lt;Repetición de cuadrícula&amp;gt;">
            <polygon class="cls-11" points="1124.82 1129.91 1124.82 1585.27 1366.6 1497.31 1366.6 1041.96 1124.82 1129.91"/>
          </g>
          <g id="_Repetición_de_cuadrícula_-27" data-name="&amp;lt;Repetición de cuadrícula&amp;gt;">
            <polygon class="cls-11" points="1608.39 1129.91 1608.39 1585.27 1850.17 1497.31 1850.17 1041.96 1608.39 1129.91"/>
          </g>
        </g>
      </g>
    </g>
  </g>
  <g>
    <rect class="cls-3" x="1939.59" width="1920" height="1081"/>
    <g class="cls-13">
      <g class="cls-10">
        <g>
          <g id="_Repetición_de_cuadrícula_-28" data-name="&amp;lt;Repetición de cuadrícula&amp;gt;">
            <polygon class="cls-11" points="1372.81 -22.54 1372.81 217.32 1649.86 116.54 1649.86 -123.32 1372.81 -22.54"/>
          </g>
          <g id="_Repetición_de_cuadrícula_-29" data-name="&amp;lt;Repetición de cuadrícula&amp;gt;">
            <polygon class="cls-11" points="1649.86 -222.62 1649.86 17.24 1926.9 -83.54 1926.9 -323.41 1649.86 -222.62"/>
          </g>
          <g id="_Repetición_de_cuadrícula_-30" data-name="&amp;lt;Repetición de cuadrícula&amp;gt;">
            <polygon class="cls-11" points="1649.86 377.62 1649.86 617.49 1372.81 516.71 1372.81 276.84 1649.86 377.62"/>
          </g>
          <g id="_Repetición_de_cuadrícula_-31" data-name="&amp;lt;Repetición de cuadrícula&amp;gt;">
            <polygon class="cls-11" points="1926.9 177.54 1926.9 417.41 1649.86 316.62 1649.86 76.76 1926.9 177.54"/>
          </g>
          <g id="_Repetición_de_cuadrícula_-32" data-name="&amp;lt;Repetición de cuadrícula&amp;gt;">
            <polygon class="cls-11" points="1372.81 777.79 1372.81 1017.65 1649.86 916.87 1649.86 677.01 1372.81 777.79"/>
          </g>
          <g id="_Repetición_de_cuadrícula_-33" data-name="&amp;lt;Repetición de cuadrícula&amp;gt;">
            <polygon class="cls-11" points="1649.86 577.71 1649.86 817.57 1926.9 716.79 1926.9 476.92 1649.86 577.71"/>
          </g>
          <g id="_Repetición_de_cuadrícula_-34" data-name="&amp;lt;Repetición de cuadrícula&amp;gt;">
            <polygon class="cls-11" points="1649.86 1177.95 1649.86 1417.82 1372.81 1317.04 1372.81 1077.17 1649.86 1177.95"/>
          </g>
          <g id="_Repetición_de_cuadrícula_-35" data-name="&amp;lt;Repetición de cuadrícula&amp;gt;">
            <polygon class="cls-11" points="1926.9 977.87 1926.9 1217.74 1649.86 1116.95 1649.86 877.09 1926.9 977.87"/>
          </g>
        </g>
      </g>
    </g>
  </g>
  <g>
    <rect class="cls-5" y="1127.58" width="1920" height="1081"/>
    <g class="cls-4">
      <g class="cls-9">
        <g>
          <g>
            <polygon class="cls-12" points="108.2 829.62 108.2 691.56 -271.32 829.62 108.2 829.62"/>
            <polygon class="cls-12" points="108.2 553.5 108.2 691.56 487.72 553.5 108.2 553.5"/>
          </g>
          <g>
            <polygon class="cls-12" points="867.24 691.56 867.24 553.5 487.72 691.56 867.24 691.56"/>
            <polygon class="cls-12" points="867.24 415.44 867.24 553.5 1246.77 415.44 867.24 415.44"/>
          </g>
          <g>
            <polygon class="cls-12" points="1626.29 829.62 1626.29 691.56 1246.77 829.62 1626.29 829.62"/>
            <polygon class="cls-12" points="1626.29 553.5 1626.29 691.56 2005.81 553.5 1626.29 553.5"/>
          </g>
          <g>
            <polygon class="cls-12" points="108.2 1105.75 108.2 967.69 -271.32 1105.75 108.2 1105.75"/>
            <polygon class="cls-12" points="108.2 829.62 108.2 967.69 487.72 829.62 108.2 829.62"/>
          </g>
          <g>
            <polygon class="cls-12" points="867.24 967.69 867.24 829.62 487.72 967.69 867.24 967.69"/>
            <polygon class="cls-12" points="867.24 691.56 867.24 829.62 1246.77 691.56 867.24 691.56"/>
          </g>
          <g>
            <polygon class="cls-12" points="1626.29 1105.75 1626.29 967.69 1246.77 1105.75 1626.29 1105.75"/>
            <polygon class="cls-12" points="1626.29 829.62 1626.29 967.69 2005.81 829.62 1626.29 829.62"/>
          </g>
          <polygon class="cls-12" points="867.24 967.69 867.24 1105.75 1246.77 967.69 867.24 967.69"/>
        </g>
      </g>
    </g>
  </g>
  <g class="cls-1">
    <g>
      <g id="_Repetición_de_cuadrícula_-36" data-name="&amp;lt;Repetición de cuadrícula&amp;gt;">
        <g>
          <polygon class="cls-5" points="1184.33 339.54 1184.33 198.92 797.77 339.54 1184.33 339.54"/>
          <polygon class="cls-5" points="1184.33 58.3 1184.33 198.92 1570.89 58.3 1184.33 58.3"/>
        </g>
      </g>
      <g id="_Repetición_de_cuadrícula_-37" data-name="&amp;lt;Repetición de cuadrícula&amp;gt;">
        <polygon class="cls-5" points="1957.44 339.54 1957.44 198.92 1570.89 339.54 1957.44 339.54"/>
      </g>
      <g id="_Repetición_de_cuadrícula_-38" data-name="&amp;lt;Repetición de cuadrícula&amp;gt;">
        <g>
          <polygon class="cls-5" points="1184.33 620.78 1184.33 480.16 797.77 620.78 1184.33 620.78"/>
          <polygon class="cls-5" points="1184.33 339.54 1184.33 480.16 1570.89 339.54 1184.33 339.54"/>
        </g>
      </g>
      <g id="_Repetición_de_cuadrícula_-39" data-name="&amp;lt;Repetición de cuadrícula&amp;gt;">
        <polygon class="cls-5" points="1957.44 620.78 1957.44 480.16 1570.89 620.78 1957.44 620.78"/>
      </g>
      <g id="_Repetición_de_cuadrícula_-40" data-name="&amp;lt;Repetición de cuadrícula&amp;gt;">
        <g>
          <polygon class="cls-5" points="1184.33 902.02 1184.33 761.4 797.77 902.02 1184.33 902.02"/>
          <polygon class="cls-5" points="1184.33 620.78 1184.33 761.4 1570.89 620.78 1184.33 620.78"/>
        </g>
      </g>
      <g id="_Repetición_de_cuadrícula_-41" data-name="&amp;lt;Repetición de cuadrícula&amp;gt;">
        <polygon class="cls-5" points="1957.44 902.02 1957.44 761.4 1570.89 902.02 1957.44 902.02"/>
      </g>
      <g id="_Repetición_de_cuadrícula_-42" data-name="&amp;lt;Repetición de cuadrícula&amp;gt;">
        <g>
          <polygon class="cls-5" points="1184.33 1183.26 1184.33 1042.64 797.77 1183.26 1184.33 1183.26"/>
          <polygon class="cls-5" points="1184.33 902.02 1184.33 1042.64 1570.89 902.02 1184.33 902.02"/>
        </g>
      </g>
      <g id="_Repetición_de_cuadrícula_-43" data-name="&amp;lt;Repetición de cuadrícula&amp;gt;">
        <polygon class="cls-5" points="1957.44 1183.26 1957.44 1042.64 1570.89 1183.26 1957.44 1183.26"/>
      </g>
    </g>
  </g>
  <g>
    <g class="cls-2">
      <g>
        <line class="cls-7" x1="143.88" y1="86.25" x2="3032.66" y2="-965.17"/>
        <line class="cls-7" x1="184.49" y1="341" x2="3073.27" y2="-710.42"/>
      </g>
      <g>
        <line class="cls-7" x1="100.74" y1="8.1" x2="2989.51" y2="-1043.32"/>
        <line class="cls-7" x1="141.35" y1="262.86" x2="3030.12" y2="-788.56"/>
      </g>
      <line class="cls-7" x1="189.93" y1="221.28" x2="3078.71" y2="-830.14"/>
    </g>
    <rect class="cls-7" x="143.88" y="-1533.75" width="2164.03" height="1080"/>
  </g>
</svg>