<?xml version="1.0" encoding="UTF-8"?>
<svg id="Capa_1" data-name="Capa 1" xmlns="http://www.w3.org/2000/svg" xmlns:xlink="http://www.w3.org/1999/xlink" viewBox="0 0 1920 1081">
  <defs>
    <style>
      .cls-1 {
        clip-path: url(#clippath-6);
      }

      .cls-2 {
        clip-path: url(#clippath-7);
      }

      .cls-3 {
        fill: #e5dfd3;
      }

      .cls-4 {
        clip-path: url(#clippath-4);
      }

      .cls-5 {
        fill: #f8b4a3;
      }

      .cls-6 {
        clip-path: url(#clippath-9);
      }

      .cls-7 {
        clip-path: url(#clippath-10);
      }

      .cls-8 {
        fill: #fff;
      }

      .cls-9 {
        clip-path: url(#clippath-11);
      }

      .cls-10 {
        fill: #5f0229;
      }

      .cls-11 {
        fill: none;
      }

      .cls-12 {
        clip-path: url(#clippath-1);
      }

      .cls-13 {
        clip-path: url(#clippath-5);
      }

      .cls-14 {
        clip-path: url(#clippath-8);
      }

      .cls-15 {
        clip-path: url(#clippath-3);
      }

      .cls-16, .cls-17 {
        fill: #f6f2ea;
      }

      .cls-18 {
        fill: #e31837;
      }

      .cls-17 {
        stroke: #e5dfd3;
        stroke-miterlimit: 10;
        stroke-width: 3px;
      }

      .cls-19 {
        clip-path: url(#clippath-2);
      }

      .cls-20 {
        clip-path: url(#clippath);
      }
    </style>
    <clipPath id="clippath">
      <rect class="cls-18" x="-1967.39" y="0" width="1920" height="1081"/>
    </clipPath>
    <clipPath id="clippath-1">
      <rect class="cls-11" x="-2257.12" y="-93.56" width="2499.47" height="1268.13"/>
    </clipPath>
    <clipPath id="clippath-2">
      <rect class="cls-11" x="-1967.39" y="-1110.99" width="1919.84" height="1081.17"/>
    </clipPath>
    <clipPath id="clippath-3">
      <rect class="cls-11" x="-3015.1" y="-1979.83" width="4015.43" height="2818.67"/>
    </clipPath>
    <clipPath id="clippath-4">
      <rect class="cls-18" x="-1967.39" y="1127.58" width="1920" height="1081"/>
    </clipPath>
    <clipPath id="clippath-5">
      <rect class="cls-11" x="-2020.8" y="835.79" width="2026.15" height="1664.58"/>
    </clipPath>
    <clipPath id="clippath-6">
      <rect class="cls-5" x=".52" width="1920" height="1081"/>
    </clipPath>
    <clipPath id="clippath-7">
      <rect class="cls-11" x="-52.22" y="-291.52" width="2025.49" height="1664.03"/>
    </clipPath>
    <clipPath id="clippath-8">
      <rect class="cls-3" x="2665.34" y="1125.84" width="1919.84" height="1081.17"/>
    </clipPath>
    <clipPath id="clippath-9">
      <rect class="cls-11" x="1617.62" y="257.01" width="4015.43" height="2818.67"/>
    </clipPath>
    <clipPath id="clippath-10">
      <rect class="cls-8" x="2665.75" y="16.17" width="1920" height="1081"/>
    </clipPath>
    <clipPath id="clippath-11">
      <rect class="cls-11" x="1635.38" y="-557.91" width="3963.69" height="2229.74"/>
    </clipPath>
  </defs>
  <g>
    <rect class="cls-18" x="-1967.39" y="0" width="1920" height="1081"/>
    <g class="cls-20">
      <g class="cls-12">
        <g>
          <g id="_Repetición_de_cuadrícula_" data-name="&amp;lt;Repetición de cuadrícula&amp;gt;">
            <polygon class="cls-5" points="236.28 -222.62 236.28 17.24 -40.76 -83.54 -40.76 -323.41 236.28 -222.62"/>
          </g>
          <g id="_Repetición_de_cuadrícula_-2" data-name="&amp;lt;Repetición de cuadrícula&amp;gt;">
            <polygon class="cls-5" points="-40.76 177.54 -40.76 417.41 236.28 316.62 236.28 76.76 -40.76 177.54"/>
          </g>
          <g id="_Repetición_de_cuadrícula_-3" data-name="&amp;lt;Repetición de cuadrícula&amp;gt;">
            <polygon class="cls-5" points="236.28 -22.54 236.28 217.32 513.33 116.54 513.33 -123.32 236.28 -22.54"/>
          </g>
          <g id="_Repetición_de_cuadrícula_-4" data-name="&amp;lt;Repetición de cuadrícula&amp;gt;">
            <polygon class="cls-5" points="236.28 577.71 236.28 817.57 -40.76 716.79 -40.76 476.92 236.28 577.71"/>
          </g>
          <g id="_Repetición_de_cuadrícula_-5" data-name="&amp;lt;Repetición de cuadrícula&amp;gt;">
            <polygon class="cls-5" points="513.32 377.62 513.32 617.49 236.28 516.71 236.28 276.84 513.32 377.62"/>
          </g>
          <g id="_Repetición_de_cuadrícula_-6" data-name="&amp;lt;Repetición de cuadrícula&amp;gt;">
            <polygon class="cls-5" points="-40.76 977.87 -40.76 1217.74 236.28 1116.95 236.28 877.09 -40.76 977.87"/>
          </g>
          <g id="_Repetición_de_cuadrícula_-7" data-name="&amp;lt;Repetición de cuadrícula&amp;gt;">
            <polygon class="cls-5" points="236.28 777.79 236.28 1017.65 513.33 916.87 513.33 677.01 236.28 777.79"/>
          </g>
          <g id="_Repetición_de_cuadrícula_-8" data-name="&amp;lt;Repetición de cuadrícula&amp;gt;">
            <polygon class="cls-5" points="513.32 1177.95 513.32 1417.82 236.28 1317.04 236.28 1077.17 513.32 1177.95"/>
          </g>
        </g>
      </g>
    </g>
  </g>
  <g class="cls-19">
    <g class="cls-15">
      <g>
        <path class="cls-10" d="M301.34,8.83H-251.4v-175.41l552.74-201.07V8.83Z"/>
        <path class="cls-10" d="M1406.82,8.83h-552.74v-175.41l552.74-201.07V8.83Z"/>
        <path class="cls-10" d="M301.34,411.58H-251.4v-175.41L301.34,35.1v376.48Z"/>
        <path class="cls-10" d="M854.08,210.2H301.34V34.8l552.74-201.07V210.2Z"/>
        <path class="cls-10" d="M1406.82,411.58h-552.74v-175.41L1406.82,35.1v376.48Z"/>
        <path class="cls-10" d="M301.34,814.33H-251.4v-175.41l552.74-201.07v376.48Z"/>
        <path class="cls-10" d="M854.08,612.95H301.34v-175.41l552.74-201.07v376.48Z"/>
        <path class="cls-10" d="M1406.82,814.33h-552.74v-175.41l552.74-201.07v376.48Z"/>
        <path class="cls-10" d="M854.08,1015.71H301.34v-175.41l552.74-201.07v376.48Z"/>
      </g>
    </g>
  </g>
  <g>
    <rect class="cls-18" x="-1967.39" y="1127.58" width="1920" height="1081"/>
    <g class="cls-4">
      <g class="cls-13">
        <g id="_Repetición_de_cuadrícula_-9" data-name="&amp;lt;Repetición de cuadrícula&amp;gt;">
          <polygon class="cls-10" points="-146.02 880.2 -146.02 1086.61 113.42 992.23 113.42 880.2 -146.02 880.2"/>
        </g>
      </g>
    </g>
  </g>
  <g>
    <rect class="cls-5" x=".52" width="1920" height="1081"/>
    <g class="cls-1">
      <g class="cls-2">
        <g>
          <g id="_Repetición_de_cuadrícula_-10" data-name="&amp;lt;Repetición de cuadrícula&amp;gt;">
            <polygon class="cls-18" points="221.22 -190.06 221.22 16.28 480.57 -78.07 480.57 -190.06 221.22 -190.06"/>
          </g>
          <g id="_Repetición_de_cuadrícula_-11" data-name="&amp;lt;Repetición de cuadrícula&amp;gt;">
            <polygon class="cls-18" points="764.22 -190.06 764.22 16.28 1023.57 -78.07 1023.57 -190.06 764.22 -190.06"/>
          </g>
          <g id="_Repetición_de_cuadrícula_-12" data-name="&amp;lt;Repetición de cuadrícula&amp;gt;">
            <polygon class="cls-18" points="1307.21 -190.06 1307.21 16.28 1566.57 -78.07 1566.57 -190.06 1307.21 -190.06"/>
          </g>
          <g id="_Repetición_de_cuadrícula_-13" data-name="&amp;lt;Repetición de cuadrícula&amp;gt;">
            <polygon class="cls-18" points="1850.21 -190.06 1850.21 16.28 2109.56 -78.07 2109.56 -190.06 1850.21 -190.06"/>
          </g>
          <g id="_Repetición_de_cuadrícula_-14" data-name="&amp;lt;Repetición de cuadrícula&amp;gt;">
            <g>
              <polygon class="cls-18" points="25.43 112.62 25.43 -93.72 -233.92 .63 -233.92 112.62 25.43 112.62"/>
              <polygon class="cls-18" points="-50.28 35.03 -50.28 241.38 209.08 147.03 209.08 35.03 -50.28 35.03"/>
            </g>
          </g>
          <g id="_Repetición_de_cuadrícula_-15" data-name="&amp;lt;Repetición de cuadrícula&amp;gt;">
            <g>
              <polygon class="cls-18" points="568.43 112.62 568.43 -93.72 309.08 .63 309.08 112.62 568.43 112.62"/>
              <polygon class="cls-18" points="492.72 35.03 492.72 241.38 752.07 147.03 752.07 35.03 492.72 35.03"/>
            </g>
          </g>
          <g id="_Repetición_de_cuadrícula_-16" data-name="&amp;lt;Repetición de cuadrícula&amp;gt;">
            <g>
              <polygon class="cls-18" points="1111.43 112.62 1111.43 -93.72 852.07 .63 852.07 112.62 1111.43 112.62"/>
              <polygon class="cls-18" points="1035.71 35.03 1035.71 241.38 1295.07 147.03 1295.07 35.03 1035.71 35.03"/>
            </g>
          </g>
          <g id="_Repetición_de_cuadrícula_-17" data-name="&amp;lt;Repetición de cuadrícula&amp;gt;">
            <g>
              <polygon class="cls-18" points="1654.42 112.62 1654.42 -93.72 1395.07 .63 1395.07 112.62 1654.42 112.62"/>
              <polygon class="cls-18" points="1578.71 35.03 1578.71 241.38 1838.06 147.03 1838.06 35.03 1578.71 35.03"/>
            </g>
          </g>
          <g id="_Repetición_de_cuadrícula_-18" data-name="&amp;lt;Repetición de cuadrícula&amp;gt;">
            <g>
              <polygon class="cls-18" points="296.93 337.72 296.93 131.38 37.58 225.72 37.58 337.72 296.93 337.72"/>
              <polygon class="cls-18" points="221.22 260.13 221.22 466.47 480.57 372.13 480.57 260.13 221.22 260.13"/>
            </g>
          </g>
          <g id="_Repetición_de_cuadrícula_-19" data-name="&amp;lt;Repetición de cuadrícula&amp;gt;">
            <g>
              <polygon class="cls-18" points="839.93 337.72 839.93 131.38 580.57 225.72 580.57 337.72 839.93 337.72"/>
              <polygon class="cls-18" points="764.22 260.13 764.22 466.47 1023.57 372.13 1023.57 260.13 764.22 260.13"/>
            </g>
          </g>
          <g id="_Repetición_de_cuadrícula_-20" data-name="&amp;lt;Repetición de cuadrícula&amp;gt;">
            <g>
              <polygon class="cls-18" points="1382.92 337.72 1382.92 131.38 1123.57 225.72 1123.57 337.72 1382.92 337.72"/>
              <polygon class="cls-18" points="1307.21 260.13 1307.21 466.47 1566.57 372.13 1566.57 260.13 1307.21 260.13"/>
            </g>
          </g>
          <g id="_Repetición_de_cuadrícula_-21" data-name="&amp;lt;Repetición de cuadrícula&amp;gt;">
            <g>
              <polygon class="cls-18" points="1925.92 337.72 1925.92 131.38 1666.57 225.72 1666.57 337.72 1925.92 337.72"/>
              <polygon class="cls-18" points="1850.21 260.13 1850.21 466.47 2109.56 372.13 2109.56 260.13 1850.21 260.13"/>
            </g>
          </g>
          <g id="_Repetición_de_cuadrícula_-22" data-name="&amp;lt;Repetición de cuadrícula&amp;gt;">
            <g>
              <polygon class="cls-18" points="25.43 562.82 25.43 356.47 -233.92 450.82 -233.92 562.82 25.43 562.82"/>
              <polygon class="cls-18" points="-50.28 485.23 -50.28 691.57 209.08 597.23 209.08 485.23 -50.28 485.23"/>
            </g>
          </g>
          <g id="_Repetición_de_cuadrícula_-23" data-name="&amp;lt;Repetición de cuadrícula&amp;gt;">
            <g>
              <polygon class="cls-18" points="568.43 562.82 568.43 356.47 309.08 450.82 309.08 562.82 568.43 562.82"/>
              <polygon class="cls-18" points="492.72 485.23 492.72 691.57 752.07 597.23 752.07 485.23 492.72 485.23"/>
            </g>
          </g>
          <g id="_Repetición_de_cuadrícula_-24" data-name="&amp;lt;Repetición de cuadrícula&amp;gt;">
            <g>
              <polygon class="cls-18" points="1111.43 562.82 1111.43 356.47 852.07 450.82 852.07 562.82 1111.43 562.82"/>
              <polygon class="cls-18" points="1035.71 485.23 1035.71 691.57 1295.07 597.23 1295.07 485.23 1035.71 485.23"/>
            </g>
          </g>
          <g id="_Repetición_de_cuadrícula_-25" data-name="&amp;lt;Repetición de cuadrícula&amp;gt;">
            <g>
              <polygon class="cls-18" points="1654.42 562.82 1654.42 356.47 1395.07 450.82 1395.07 562.82 1654.42 562.82"/>
              <polygon class="cls-18" points="1578.71 485.23 1578.71 691.57 1838.06 597.23 1838.06 485.23 1578.71 485.23"/>
            </g>
          </g>
          <g id="_Repetición_de_cuadrícula_-26" data-name="&amp;lt;Repetición de cuadrícula&amp;gt;">
            <g>
              <polygon class="cls-18" points="296.93 787.92 296.93 581.57 37.58 675.92 37.58 787.92 296.93 787.92"/>
              <polygon class="cls-18" points="221.22 710.33 221.22 916.67 480.57 822.32 480.57 710.33 221.22 710.33"/>
            </g>
          </g>
          <g id="_Repetición_de_cuadrícula_-27" data-name="&amp;lt;Repetición de cuadrícula&amp;gt;">
            <g>
              <polygon class="cls-18" points="839.93 787.92 839.93 581.57 580.57 675.92 580.57 787.92 839.93 787.92"/>
              <polygon class="cls-18" points="764.22 710.33 764.22 916.67 1023.57 822.32 1023.57 710.33 764.22 710.33"/>
            </g>
          </g>
          <g id="_Repetición_de_cuadrícula_-28" data-name="&amp;lt;Repetición de cuadrícula&amp;gt;">
            <g>
              <polygon class="cls-18" points="1382.92 787.92 1382.92 581.57 1123.57 675.92 1123.57 787.92 1382.92 787.92"/>
              <polygon class="cls-18" points="1307.21 710.33 1307.21 916.67 1566.57 822.32 1566.57 710.33 1307.21 710.33"/>
            </g>
          </g>
          <g id="_Repetición_de_cuadrícula_-29" data-name="&amp;lt;Repetición de cuadrícula&amp;gt;">
            <g>
              <polygon class="cls-18" points="1925.92 787.92 1925.92 581.57 1666.57 675.92 1666.57 787.92 1925.92 787.92"/>
              <polygon class="cls-18" points="1850.21 710.33 1850.21 916.67 2109.56 822.32 2109.56 710.33 1850.21 710.33"/>
            </g>
          </g>
          <g id="_Repetición_de_cuadrícula_-30" data-name="&amp;lt;Repetición de cuadrícula&amp;gt;">
            <g>
              <polygon class="cls-18" points="25.43 1013.01 25.43 806.67 -233.92 901.02 -233.92 1013.01 25.43 1013.01"/>
              <polygon class="cls-18" points="-50.28 935.42 -50.28 1141.77 209.08 1047.42 209.08 935.42 -50.28 935.42"/>
            </g>
          </g>
          <g id="_Repetición_de_cuadrícula_-31" data-name="&amp;lt;Repetición de cuadrícula&amp;gt;">
            <g>
              <polygon class="cls-18" points="568.43 1013.01 568.43 806.67 309.08 901.02 309.08 1013.01 568.43 1013.01"/>
              <polygon class="cls-18" points="492.72 935.42 492.72 1141.77 752.07 1047.42 752.07 935.42 492.72 935.42"/>
            </g>
          </g>
          <g id="_Repetición_de_cuadrícula_-32" data-name="&amp;lt;Repetición de cuadrícula&amp;gt;">
            <g>
              <polygon class="cls-18" points="1111.43 1013.01 1111.43 806.67 852.07 901.02 852.07 1013.01 1111.43 1013.01"/>
              <polygon class="cls-18" points="1035.71 935.42 1035.71 1141.77 1295.07 1047.42 1295.07 935.42 1035.71 935.42"/>
            </g>
          </g>
          <g id="_Repetición_de_cuadrícula_-33" data-name="&amp;lt;Repetición de cuadrícula&amp;gt;">
            <g>
              <polygon class="cls-18" points="1654.42 1013.01 1654.42 806.67 1395.07 901.02 1395.07 1013.01 1654.42 1013.01"/>
              <polygon class="cls-18" points="1578.71 935.42 1578.71 1141.77 1838.06 1047.42 1838.06 935.42 1578.71 935.42"/>
            </g>
          </g>
          <g id="_Repetición_de_cuadrícula_-34" data-name="&amp;lt;Repetición de cuadrícula&amp;gt;">
            <polygon class="cls-18" points="296.93 1238.11 296.93 1031.77 37.58 1126.11 37.58 1238.11 296.93 1238.11"/>
          </g>
          <g id="_Repetición_de_cuadrícula_-35" data-name="&amp;lt;Repetición de cuadrícula&amp;gt;">
            <polygon class="cls-18" points="839.93 1238.11 839.93 1031.77 580.57 1126.11 580.57 1238.11 839.93 1238.11"/>
          </g>
          <g id="_Repetición_de_cuadrícula_-36" data-name="&amp;lt;Repetición de cuadrícula&amp;gt;">
            <polygon class="cls-18" points="1382.92 1238.11 1382.92 1031.77 1123.57 1126.11 1123.57 1238.11 1382.92 1238.11"/>
          </g>
          <g id="_Repetición_de_cuadrícula_-37" data-name="&amp;lt;Repetición de cuadrícula&amp;gt;">
            <polygon class="cls-18" points="1925.92 1238.11 1925.92 1031.77 1666.57 1126.11 1666.57 1238.11 1925.92 1238.11"/>
          </g>
        </g>
      </g>
    </g>
  </g>
  <g>
    <rect class="cls-3" x="2665.34" y="1125.84" width="1919.84" height="1081.17"/>
    <g class="cls-14">
      <g class="cls-6">
        <g>
          <g id="_Repetición_de_cuadrícula_-38" data-name="&amp;lt;Repetición de cuadrícula&amp;gt;">
            <path class="cls-16" d="M1893.99,634.66h-552.74v-175.41l552.74-201.07v376.48Z"/>
          </g>
          <g id="_Repetición_de_cuadrícula_-39" data-name="&amp;lt;Repetición de cuadrícula&amp;gt;">
            <path class="cls-16" d="M2446.73,634.66h-552.74v-175.41l552.74-201.07v376.48Z"/>
          </g>
          <g id="_Repetición_de_cuadrícula_-40" data-name="&amp;lt;Repetición de cuadrícula&amp;gt;">
            <path class="cls-16" d="M1617.62,1071.14h-552.74v-175.41l552.74-201.07v376.48Z"/>
          </g>
          <g id="_Repetición_de_cuadrícula_-41" data-name="&amp;lt;Repetición de cuadrícula&amp;gt;">
            <path class="cls-16" d="M2170.36,1071.14h-552.74v-175.41l552.74-201.07v376.48Z"/>
          </g>
        </g>
      </g>
    </g>
  </g>
  <g>
    <rect class="cls-8" x="2665.75" y="16.17" width="1920" height="1081"/>
    <g class="cls-7">
      <g class="cls-9">
        <g>
          <polygon class="cls-17" points="2014.9 132.4 2014.9 -5.67 1635.38 132.4 2014.9 132.4"/>
          <polygon class="cls-17" points="2014.9 408.52 2014.9 270.46 1635.38 408.52 2014.9 408.52"/>
          <polygon class="cls-17" points="2014.9 684.64 2014.9 546.58 1635.38 684.64 2014.9 684.64"/>
          <polygon class="cls-17" points="2014.9 960.77 2014.9 822.71 1635.38 960.77 2014.9 960.77"/>
        </g>
      </g>
    </g>
  </g>
</svg>