<?xml version="1.0" encoding="UTF-8"?>
<svg id="Capa_1" data-name="Capa 1" xmlns="http://www.w3.org/2000/svg" xmlns:xlink="http://www.w3.org/1999/xlink" viewBox="0 0 1920 1081">
  <defs>
    <style>
      .cls-1 {
        stroke-width: 2px;
      }

      .cls-1, .cls-2, .cls-3, .cls-4 {
        fill: none;
      }

      .cls-1, .cls-2, .cls-4 {
        stroke-miterlimit: 10;
      }

      .cls-1, .cls-4 {
        stroke: #e31837;
      }

      .cls-5 {
        clip-path: url(#clippath-6);
      }

      .cls-6 {
        clip-path: url(#clippath-4);
      }

      .cls-7 {
        fill: #f8b4a3;
      }

      .cls-2 {
        stroke: #5f0229;
        stroke-width: 1px;
      }

      .cls-8 {
        fill: #5f0229;
      }

      .cls-4 {
        stroke-width: 1.33px;
      }

      .cls-9 {
        clip-path: url(#clippath-1);
      }

      .cls-10 {
        clip-path: url(#clippath-5);
      }

      .cls-11 {
        clip-path: url(#clippath-3);
      }

      .cls-12 {
        fill: #e31837;
      }

      .cls-13 {
        clip-path: url(#clippath-2);
      }

      .cls-14 {
        clip-path: url(#clippath);
      }
    </style>
    <clipPath id="clippath">
      <rect class="cls-8" y="-1114.73" width="1920" height="1081"/>
    </clipPath>
    <clipPath id="clippath-1">
      <rect class="cls-3" x="-52.74" y="-1406.25" width="2025.49" height="1664.03"/>
    </clipPath>
    <clipPath id="clippath-2">
      <rect class="cls-7" x="1973.41" width="1920" height="1081"/>
    </clipPath>
    <clipPath id="clippath-3">
      <rect class="cls-3" x="1077.6" y="-552.43" width="3906.29" height="2197.45"/>
    </clipPath>
    <clipPath id="clippath-4">
      <rect class="cls-7" x=".2" y=".39" width="1919.59" height="1080.77"/>
    </clipPath>
    <clipPath id="clippath-5">
      <rect class="cls-12" x="0" y="1105.72" width="1920" height="1081"/>
    </clipPath>
    <clipPath id="clippath-6">
      <rect class="cls-3" x="-52.74" y="814.2" width="2025.49" height="1664.03"/>
    </clipPath>
  </defs>
  <g>
    <rect class="cls-8" y="-1114.73" width="1920" height="1081"/>
    <g class="cls-14">
      <g class="cls-9">
        <g>
          <g id="_Repetición_de_cuadrícula_" data-name="&amp;lt;Repetición de cuadrícula&amp;gt;">
            <polygon class="cls-12" points="-27.3 -190.62 -27.3 15.73 232.06 -78.62 232.06 -190.62 -27.3 -190.62"/>
          </g>
          <g id="_Repetición_de_cuadrícula_-2" data-name="&amp;lt;Repetición de cuadrícula&amp;gt;">
            <g>
              <polygon class="cls-12" points="491.41 33.27 491.41 -173.07 232.06 -78.73 232.06 33.27 491.41 33.27"/>
              <polygon class="cls-12" points="415.7 -44.32 415.7 162.02 675.05 67.68 675.05 -44.32 415.7 -44.32"/>
            </g>
          </g>
          <g id="_Repetición_de_cuadrícula_-3" data-name="&amp;lt;Repetición de cuadrícula&amp;gt;">
            <polygon class="cls-12" points="858.69 -190.62 858.69 15.73 1118.05 -78.62 1118.05 -190.62 858.69 -190.62"/>
          </g>
          <g id="_Repetición_de_cuadrícula_-4" data-name="&amp;lt;Repetición de cuadrícula&amp;gt;">
            <g>
              <polygon class="cls-12" points="1377.4 33.27 1377.4 -173.07 1118.05 -78.73 1118.05 33.27 1377.4 33.27"/>
              <polygon class="cls-12" points="1301.69 -44.32 1301.69 162.02 1561.05 67.68 1561.05 -44.32 1301.69 -44.32"/>
            </g>
          </g>
          <g id="_Repetición_de_cuadrícula_-5" data-name="&amp;lt;Repetición de cuadrícula&amp;gt;">
            <polygon class="cls-12" points="1744.69 -190.62 1744.69 15.73 2004.04 -78.62 2004.04 -190.62 1744.69 -190.62"/>
          </g>
          <g id="_Repetición_de_cuadrícula_-6" data-name="&amp;lt;Repetición de cuadrícula&amp;gt;">
            <g>
              <polygon class="cls-12" points="48.42 179.57 48.42 -26.78 -210.94 67.57 -210.94 179.57 48.42 179.57"/>
              <polygon class="cls-12" points="-27.3 101.98 -27.3 308.32 232.06 213.97 232.06 101.98 -27.3 101.98"/>
            </g>
          </g>
          <g id="_Repetición_de_cuadrícula_-7" data-name="&amp;lt;Repetición de cuadrícula&amp;gt;">
            <g>
              <polygon class="cls-12" points="491.41 325.86 491.41 119.52 232.06 213.87 232.06 325.86 491.41 325.86"/>
              <polygon class="cls-12" points="415.7 248.27 415.7 454.62 675.05 360.27 675.05 248.27 415.7 248.27"/>
            </g>
          </g>
          <g id="_Repetición_de_cuadrícula_-8" data-name="&amp;lt;Repetición de cuadrícula&amp;gt;">
            <g>
              <polygon class="cls-12" points="934.41 179.57 934.41 -26.78 675.05 67.57 675.05 179.57 934.41 179.57"/>
              <polygon class="cls-12" points="858.69 101.98 858.69 308.32 1118.05 213.97 1118.05 101.98 858.69 101.98"/>
            </g>
          </g>
          <g id="_Repetición_de_cuadrícula_-9" data-name="&amp;lt;Repetición de cuadrícula&amp;gt;">
            <g>
              <polygon class="cls-12" points="1377.4 325.86 1377.4 119.52 1118.05 213.87 1118.05 325.86 1377.4 325.86"/>
              <polygon class="cls-12" points="1301.69 248.27 1301.69 454.62 1561.05 360.27 1561.05 248.27 1301.69 248.27"/>
            </g>
          </g>
          <g id="_Repetición_de_cuadrícula_-10" data-name="&amp;lt;Repetición de cuadrícula&amp;gt;">
            <g>
              <polygon class="cls-12" points="1820.4 179.57 1820.4 -26.78 1561.05 67.57 1561.05 179.57 1820.4 179.57"/>
              <polygon class="cls-12" points="1744.69 101.98 1744.69 308.32 2004.04 213.97 2004.04 101.98 1744.69 101.98"/>
            </g>
          </g>
        </g>
      </g>
    </g>
  </g>
  <g>
    <rect class="cls-7" x="1973.41" width="1920" height="1081"/>
    <g class="cls-13">
      <g class="cls-11">
        <g>
          <g id="_Repetición_de_cuadrícula_-11" data-name="&amp;lt;Repetición de cuadrícula&amp;gt;">
            <polygon class="cls-4" points="1440.27 127.55 1440.27 -8.51 1066.25 127.55 1440.27 127.55"/>
          </g>
          <g id="_Repetición_de_cuadrícula_-12" data-name="&amp;lt;Repetición de cuadrícula&amp;gt;">
            <g>
              <polygon class="cls-4" points="1440.27 401.01 1440.27 264.95 1066.25 401.01 1440.27 401.01"/>
              <polygon class="cls-4" points="1440.27 128.88 1440.27 264.95 1814.3 128.88 1440.27 128.88"/>
            </g>
          </g>
          <g id="_Repetición_de_cuadrícula_-13" data-name="&amp;lt;Repetición de cuadrícula&amp;gt;">
            <polygon class="cls-4" points="2195.89 264.28 2195.89 128.22 1821.87 264.28 2195.89 264.28"/>
          </g>
          <g id="_Repetición_de_cuadrícula_-14" data-name="&amp;lt;Repetición de cuadrícula&amp;gt;">
            <g>
              <polygon class="cls-4" points="1440.27 674.47 1440.27 538.4 1066.25 674.47 1440.27 674.47"/>
              <polygon class="cls-4" points="1440.27 402.34 1440.27 538.4 1814.3 402.34 1440.27 402.34"/>
            </g>
          </g>
          <g id="_Repetición_de_cuadrícula_-15" data-name="&amp;lt;Repetición de cuadrícula&amp;gt;">
            <polygon class="cls-4" points="2195.89 537.74 2195.89 401.68 1821.87 537.74 2195.89 537.74"/>
          </g>
          <g id="_Repetición_de_cuadrícula_-16" data-name="&amp;lt;Repetición de cuadrícula&amp;gt;">
            <g>
              <polygon class="cls-4" points="1440.27 947.93 1440.27 811.86 1066.25 947.93 1440.27 947.93"/>
              <polygon class="cls-4" points="1440.27 675.8 1440.27 811.86 1814.3 675.8 1440.27 675.8"/>
            </g>
          </g>
          <g id="_Repetición_de_cuadrícula_-17" data-name="&amp;lt;Repetición de cuadrícula&amp;gt;">
            <polygon class="cls-4" points="2195.89 811.2 2195.89 675.13 1821.87 811.2 2195.89 811.2"/>
          </g>
          <g id="_Repetición_de_cuadrícula_-18" data-name="&amp;lt;Repetición de cuadrícula&amp;gt;">
            <polygon class="cls-4" points="1440.27 949.26 1440.27 1085.32 1814.3 949.26 1440.27 949.26"/>
          </g>
          <g id="_Repetición_de_cuadrícula_-19" data-name="&amp;lt;Repetición de cuadrícula&amp;gt;">
            <polygon class="cls-4" points="2195.89 1084.66 2195.89 948.59 1821.87 1084.66 2195.89 1084.66"/>
          </g>
        </g>
      </g>
    </g>
  </g>
  <g>
    <rect class="cls-7" x=".2" y=".39" width="1919.59" height="1080.77"/>
    <g class="cls-6">
      <g>
        <path class="cls-1" d="M1797.21,912.76h320.01v63.68l-320.01,116.41v-180.09Z"/>
        <path class="cls-1" d="M1797.21,572.7h320.01v63.68l-320.01,116.41v-180.09Z"/>
        <path class="cls-1" d="M1797.21,232.63h320.01v63.68l-320.01,116.41v-180.09Z"/>
        <path class="cls-1" d="M1797.21-107.43h320.01v63.68l-320.01,116.41V-107.43Z"/>
      </g>
      <g>
        <path class="cls-1" d="M1797.32,1316.71h-320.01v-210.63l320.01-116.41v327.04Z"/>
        <path class="cls-1" d="M1797.32,976.64h-320.01v-210.63l320.01-116.41v327.04Z"/>
        <path class="cls-1" d="M1797.32,636.57h-320.01v-210.63l320.01-116.41v327.04Z"/>
        <path class="cls-1" d="M1797.32,296.51h-320.01V85.88l320.01-116.41v327.04Z"/>
      </g>
      <g>
        <path class="cls-1" d="M1157.28,912.76h320.01v63.68l-320.01,116.41v-180.09Z"/>
        <path class="cls-1" d="M1157.28,572.7h320.01v63.68l-320.01,116.41v-180.09Z"/>
        <path class="cls-1" d="M1157.28,232.63h320.01v63.68l-320.01,116.41v-180.09Z"/>
        <path class="cls-1" d="M1157.28-107.43h320.01v63.68l-320.01,116.41V-107.43Z"/>
      </g>
      <g>
        <path class="cls-1" d="M1157.39,1316.71h-320.01v-210.63l320.01-116.41v327.04Z"/>
        <path class="cls-1" d="M1157.39,976.64h-320.01v-210.63l320.01-116.41v327.04Z"/>
        <path class="cls-1" d="M1157.39,636.57h-320.01v-210.63l320.01-116.41v327.04Z"/>
        <path class="cls-1" d="M1157.39,296.51h-320.01V85.88l320.01-116.41v327.04Z"/>
      </g>
      <g>
        <path class="cls-1" d="M517.34,912.76h320.01v63.68l-320.01,116.41v-180.09Z"/>
        <path class="cls-1" d="M517.34,572.7h320.01v63.68l-320.01,116.41v-180.09Z"/>
        <path class="cls-1" d="M517.34,232.63h320.01v63.68l-320.01,116.41v-180.09Z"/>
        <path class="cls-1" d="M517.34-107.43h320.01v63.68l-320.01,116.41V-107.43Z"/>
      </g>
      <g>
        <path class="cls-1" d="M517.45,1316.71H197.45v-210.63l320.01-116.41v327.04Z"/>
        <path class="cls-1" d="M517.45,976.64H197.45v-210.63l320.01-116.41v327.04Z"/>
        <path class="cls-1" d="M517.45,636.57H197.45v-210.63l320.01-116.41v327.04Z"/>
        <path class="cls-1" d="M517.45,296.51H197.45V85.88L517.45-30.53v327.04Z"/>
      </g>
      <g>
        <path class="cls-1" d="M-122.59,912.76H197.42v63.68l-320.01,116.41v-180.09Z"/>
        <path class="cls-1" d="M-122.59,572.7H197.42v63.68l-320.01,116.41v-180.09Z"/>
        <path class="cls-1" d="M-122.59,232.63H197.42v63.68l-320.01,116.41v-180.09Z"/>
        <path class="cls-1" d="M-122.59-107.43H197.42v63.68L-122.59,72.66V-107.43Z"/>
      </g>
    </g>
  </g>
  <g>
    <rect class="cls-12" x="0" y="1105.72" width="1920" height="1081"/>
    <g class="cls-10">
      <g class="cls-5">
        <g>
          <g id="_Repetición_de_cuadrícula_-20" data-name="&amp;lt;Repetición de cuadrícula&amp;gt;">
            <polygon class="cls-2" points="170.07 750.55 170.07 621.79 -89.29 716.14 -89.29 828.14 94.35 828.14 94.35 956.89 353.71 862.54 353.71 750.55 170.07 750.55"/>
          </g>
          <g id="_Repetición_de_cuadrícula_-21" data-name="&amp;lt;Repetición de cuadrícula&amp;gt;">
            <polygon class="cls-2" points="839.41 750.55 839.41 621.79 580.05 716.14 580.05 828.14 763.69 828.14 763.69 956.89 1023.05 862.54 1023.05 750.55 839.41 750.55"/>
          </g>
          <g id="_Repetición_de_cuadrícula_-22" data-name="&amp;lt;Repetición de cuadrícula&amp;gt;">
            <polygon class="cls-2" points="1508.75 750.55 1508.75 621.79 1249.39 716.14 1249.39 828.14 1433.03 828.14 1433.03 956.89 1692.39 862.54 1692.39 750.55 1508.75 750.55"/>
          </g>
          <g id="_Repetición_de_cuadrícula_-23" data-name="&amp;lt;Repetición de cuadrícula&amp;gt;">
            <polygon class="cls-2" points="2178.09 750.55 2178.09 621.79 1918.73 716.14 1918.73 828.14 2102.37 828.14 2102.37 956.89 2361.73 862.54 2361.73 750.55 2178.09 750.55"/>
          </g>
          <g id="_Repetición_de_cuadrícula_-24" data-name="&amp;lt;Repetición de cuadrícula&amp;gt;">
            <polygon class="cls-2" points="-164.6 904.37 -164.6 775.62 -423.96 869.97 -423.96 981.96 -240.32 981.96 -240.32 1110.72 19.04 1016.37 19.04 904.37 -164.6 904.37"/>
          </g>
          <g id="_Repetición_de_cuadrícula_-25" data-name="&amp;lt;Repetición de cuadrícula&amp;gt;">
            <polygon class="cls-2" points="504.74 904.37 504.74 775.62 245.38 869.97 245.38 981.96 429.02 981.96 429.02 1110.72 688.38 1016.37 688.38 904.37 504.74 904.37"/>
          </g>
          <g id="_Repetición_de_cuadrícula_-26" data-name="&amp;lt;Repetición de cuadrícula&amp;gt;">
            <polygon class="cls-2" points="1174.08 904.37 1174.08 775.62 914.72 869.97 914.72 981.96 1098.36 981.96 1098.36 1110.72 1357.72 1016.37 1357.72 904.37 1174.08 904.37"/>
          </g>
          <g id="_Repetición_de_cuadrícula_-27" data-name="&amp;lt;Repetición de cuadrícula&amp;gt;">
            <polygon class="cls-2" points="1843.42 904.37 1843.42 775.62 1584.06 869.97 1584.06 981.96 1767.7 981.96 1767.7 1110.72 2027.06 1016.37 2027.06 904.37 1843.42 904.37"/>
          </g>
          <g id="_Repetición_de_cuadrícula_-28" data-name="&amp;lt;Repetición de cuadrícula&amp;gt;">
            <polygon class="cls-2" points="170.07 1058.2 170.07 929.45 -89.29 1023.79 -89.29 1135.79 94.35 1135.79 94.35 1264.54 353.71 1170.2 353.71 1058.2 170.07 1058.2"/>
          </g>
          <g id="_Repetición_de_cuadrícula_-29" data-name="&amp;lt;Repetición de cuadrícula&amp;gt;">
            <polygon class="cls-2" points="839.41 1058.2 839.41 929.45 580.05 1023.79 580.05 1135.79 763.69 1135.79 763.69 1264.54 1023.05 1170.2 1023.05 1058.2 839.41 1058.2"/>
          </g>
          <g id="_Repetición_de_cuadrícula_-30" data-name="&amp;lt;Repetición de cuadrícula&amp;gt;">
            <polygon class="cls-2" points="1508.75 1058.2 1508.75 929.45 1249.39 1023.79 1249.39 1135.79 1433.03 1135.79 1433.03 1264.54 1692.39 1170.2 1692.39 1058.2 1508.75 1058.2"/>
          </g>
          <g id="_Repetición_de_cuadrícula_-31" data-name="&amp;lt;Repetición de cuadrícula&amp;gt;">
            <polygon class="cls-2" points="2178.09 1058.2 2178.09 929.45 1918.73 1023.79 1918.73 1135.79 2102.37 1135.79 2102.37 1264.54 2361.73 1170.2 2361.73 1058.2 2178.09 1058.2"/>
          </g>
        </g>
      </g>
    </g>
  </g>
</svg>