<?xml version="1.0" encoding="UTF-8"?>
<svg id="Capa_1" data-name="Capa 1" xmlns="http://www.w3.org/2000/svg" xmlns:xlink="http://www.w3.org/1999/xlink" viewBox="0 0 1920 1081">
  <defs>
    <style>
      .cls-1 {
        clip-path: url(#clippath-6);
      }

      .cls-2 {
        clip-path: url(#clippath-7);
      }

      .cls-3 {
        clip-path: url(#clippath-4);
      }

      .cls-4 {
        fill: #f8b4a3;
      }

      .cls-5 {
        fill: #fff;
      }

      .cls-6, .cls-7 {
        fill: none;
      }

      .cls-6, .cls-8 {
        stroke: #e31837;
      }

      .cls-6, .cls-8, .cls-9 {
        stroke-miterlimit: 10;
      }

      .cls-10 {
        fill: #5f0229;
      }

      .cls-11 {
        clip-path: url(#clippath-1);
      }

      .cls-8 {
        fill: url(#New_Pattern);
      }

      .cls-12 {
        clip-path: url(#clippath-5);
      }

      .cls-13 {
        clip-path: url(#clippath-3);
      }

      .cls-14 {
        fill: #e31837;
      }

      .cls-9 {
        fill: #f6f2ea;
        stroke: #e5dfd3;
        stroke-width: 3px;
      }

      .cls-15 {
        clip-path: url(#clippath-2);
      }

      .cls-16 {
        clip-path: url(#clippath);
      }
    </style>
    <clipPath id="clippath">
      <rect class="cls-14" x="-1967.39" y="1110.99" width="1920" height="1081"/>
    </clipPath>
    <clipPath id="clippath-1">
      <rect class="cls-7" x="-2257.12" y="1017.43" width="2499.47" height="1268.13"/>
    </clipPath>
    <clipPath id="clippath-2">
      <rect class="cls-7" x="-1967.39" y="0" width="1919.84" height="1081.17"/>
    </clipPath>
    <clipPath id="clippath-3">
      <rect class="cls-7" x="-3015.1" y="-868.84" width="4015.43" height="2818.67"/>
    </clipPath>
    <clipPath id="clippath-4">
      <rect class="cls-4" x=".52" y="1110.99" width="1920" height="1081"/>
    </clipPath>
    <clipPath id="clippath-5">
      <rect class="cls-7" x="-52.22" y="819.48" width="2025.49" height="1664.03"/>
    </clipPath>
    <clipPath id="clippath-6">
      <rect class="cls-5" x="2665.75" y="1127.16" width="1920" height="1081"/>
    </clipPath>
    <clipPath id="clippath-7">
      <rect class="cls-7" x="1635.38" y="553.08" width="3963.69" height="2229.74"/>
    </clipPath>
    <pattern id="New_Pattern" data-name="New Pattern" x="0" y="0" width="567.83" height="590.76" patternTransform="translate(231.92 2554.7)" patternUnits="userSpaceOnUse" viewBox="0 0 567.83 590.76">
      <g>
        <rect class="cls-7" width="567.83" height="590.76"/>
        <g>
          <g>
            <line class="cls-6" x1="283.55" y1="468.65" x2="352.46" y2="443.57"/>
            <g>
              <polygon class="cls-6" points="567.33 443.57 567.33 532.83 283.55 636.45 283.55 443.57 567.33 443.57"/>
              <line class="cls-6" x1="283.55" y1="483.87" x2="394.27" y2="443.57"/>
              <line class="cls-6" x1="283.55" y1="499.09" x2="436.08" y2="443.57"/>
              <line class="cls-6" x1="283.55" y1="514.31" x2="477.89" y2="443.57"/>
              <line class="cls-6" x1="283.55" y1="529.53" x2="519.71" y2="443.57"/>
              <line class="cls-6" x1="561.52" y1="443.57" x2="283.55" y2="544.75"/>
              <line class="cls-6" x1=".5" y1="662.99" x2="567.33" y2="456.68"/>
              <line class="cls-6" x1=".5" y1="678.2" x2="567.33" y2="471.89"/>
              <line class="cls-6" x1=".5" y1="693.42" x2="567.33" y2="487.11"/>
              <line class="cls-6" x1=".5" y1="708.64" x2="567.33" y2="502.33"/>
              <line class="cls-6" x1=".5" y1="723.86" x2="567.33" y2="517.55"/>
              <line class="cls-6" x1=".5" y1="737.96" x2="567.33" y2="532.83"/>
            </g>
            <line class="cls-6" x1="283.55" y1="453.44" x2="310.65" y2="443.57"/>
            <line class="cls-6" x1="283.55" y1="529.53" x2="519.71" y2="443.57"/>
          </g>
          <polygon class="cls-6" points="283.55 544.75 283.55 737.96 .5 737.96 .5 647.77 283.55 544.75"/>
        </g>
        <g>
          <g>
            <line class="cls-6" x1="283.55" y1="173.27" x2="352.46" y2="148.19"/>
            <g>
              <polygon class="cls-6" points="567.33 148.19 567.33 237.45 283.55 341.07 283.55 148.19 567.33 148.19"/>
              <line class="cls-6" x1="283.55" y1="188.49" x2="394.27" y2="148.19"/>
              <line class="cls-6" x1="283.55" y1="203.71" x2="436.08" y2="148.19"/>
              <line class="cls-6" x1="283.55" y1="218.93" x2="477.89" y2="148.19"/>
              <line class="cls-6" x1="283.55" y1="234.15" x2="519.71" y2="148.19"/>
              <line class="cls-6" x1="561.52" y1="148.19" x2="283.55" y2="249.36"/>
              <line class="cls-6" x1=".5" y1="367.6" x2="567.33" y2="161.29"/>
              <line class="cls-6" x1=".5" y1="382.82" x2="567.33" y2="176.51"/>
              <line class="cls-6" x1=".5" y1="398.04" x2="567.33" y2="191.73"/>
              <line class="cls-6" x1=".5" y1="413.26" x2="567.33" y2="206.95"/>
              <line class="cls-6" x1=".5" y1="428.48" x2="567.33" y2="222.17"/>
              <line class="cls-6" x1=".5" y1="442.57" x2="567.33" y2="237.45"/>
            </g>
            <line class="cls-6" x1="283.55" y1="158.05" x2="310.65" y2="148.19"/>
            <line class="cls-6" x1="283.55" y1="234.15" x2="519.71" y2="148.19"/>
            <line class="cls-6" x1="284.12" y1="416.25" x2="215.21" y2="441.33"/>
            <line class="cls-6" x1="284.12" y1="431.47" x2="257.02" y2="441.33"/>
            <line class="cls-6" x1="284.12" y1="401.04" x2="173.4" y2="441.33"/>
            <line class="cls-6" x1="284.12" y1="385.82" x2="131.59" y2="441.33"/>
            <line class="cls-6" x1="284.12" y1="370.6" x2="89.78" y2="441.33"/>
            <line class="cls-6" x1="284.12" y1="355.38" x2="47.96" y2="441.33"/>
          </g>
          <polygon class="cls-6" points="283.55 249.36 283.55 442.57 .5 442.57 .5 352.39 283.55 249.36"/>
        </g>
        <g>
          <g>
            <g>
              <polygon class="cls-6" points="567.33 -147.19 567.33 -57.93 283.55 45.68 283.55 -147.19 567.33 -147.19"/>
              <line class="cls-6" x1=".5" y1="72.22" x2="567.33" y2="-134.09"/>
              <line class="cls-6" x1=".5" y1="87.44" x2="567.33" y2="-118.87"/>
              <line class="cls-6" x1=".5" y1="102.66" x2="567.33" y2="-103.65"/>
              <line class="cls-6" x1=".5" y1="117.88" x2="567.33" y2="-88.43"/>
              <line class="cls-6" x1=".5" y1="133.09" x2="567.33" y2="-73.22"/>
              <line class="cls-6" x1=".5" y1="147.19" x2="567.33" y2="-57.93"/>
            </g>
            <line class="cls-6" x1="284.12" y1="120.87" x2="215.21" y2="145.95"/>
            <line class="cls-6" x1="284.12" y1="136.09" x2="257.02" y2="145.95"/>
            <line class="cls-6" x1="284.12" y1="105.65" x2="173.4" y2="145.95"/>
            <line class="cls-6" x1="284.12" y1="90.43" x2="131.59" y2="145.95"/>
            <line class="cls-6" x1="284.12" y1="75.22" x2="89.78" y2="145.95"/>
            <line class="cls-6" x1="284.12" y1="60" x2="47.96" y2="145.95"/>
          </g>
          <polygon class="cls-6" points="283.55 -46.02 283.55 147.19 .5 147.19 .5 57 283.55 -46.02"/>
        </g>
      </g>
    </pattern>
  </defs>
  <g>
    <rect class="cls-14" x="-1967.39" y="1110.99" width="1920" height="1081"/>
    <g class="cls-16">
      <g class="cls-11">
        <g>
          <g id="_Repetición_de_cuadrícula_" data-name="&amp;lt;Repetición de cuadrícula&amp;gt;">
            <polygon class="cls-4" points="236.28 888.37 236.28 1128.23 -40.76 1027.45 -40.76 787.59 236.28 888.37"/>
          </g>
          <g id="_Repetición_de_cuadrícula_-2" data-name="&amp;lt;Repetición de cuadrícula&amp;gt;">
            <polygon class="cls-4" points="236.28 1088.45 236.28 1328.32 513.33 1227.53 513.33 987.67 236.28 1088.45"/>
          </g>
        </g>
      </g>
    </g>
  </g>
  <g class="cls-15">
    <g class="cls-13">
      <g>
        <path class="cls-10" d="M301.34,314.32H-251.4v-175.41L301.34-62.16v376.48Z"/>
        <path class="cls-10" d="M854.08,112.94H301.34V-62.47l552.74-201.07V112.94Z"/>
        <path class="cls-10" d="M1406.82,314.32h-552.74v-175.41L1406.82-62.16v376.48Z"/>
        <path class="cls-10" d="M301.34,717.07H-251.4v-175.41l552.74-201.07v376.48Z"/>
        <path class="cls-10" d="M854.08,515.69H301.34v-175.41l552.74-201.07v376.48Z"/>
        <path class="cls-10" d="M1406.82,717.07h-552.74v-175.41l552.74-201.07v376.48Z"/>
        <path class="cls-10" d="M301.34,1119.82H-251.4v-175.41l552.74-201.07v376.48Z"/>
        <path class="cls-10" d="M854.08,918.44H301.34v-175.41l552.74-201.07v376.48Z"/>
        <path class="cls-10" d="M1406.82,1119.82h-552.74v-175.41l552.74-201.07v376.48Z"/>
        <path class="cls-10" d="M854.08,1321.2H301.34v-175.41l552.74-201.07v376.48Z"/>
      </g>
    </g>
  </g>
  <rect class="cls-10" x=".38" width="1920.29" height="1081.16"/>
  <g>
    <rect class="cls-4" x=".52" y="1110.99" width="1920" height="1081"/>
    <g class="cls-3">
      <g class="cls-12">
        <g>
          <g id="_Repetición_de_cuadrícula_-3" data-name="&amp;lt;Repetición de cuadrícula&amp;gt;">
            <g>
              <polygon class="cls-14" points="25.43 773.42 25.43 567.08 -233.92 661.43 -233.92 773.42 25.43 773.42"/>
              <polygon class="cls-14" points="-50.28 695.83 -50.28 902.18 209.08 807.83 209.08 695.83 -50.28 695.83"/>
            </g>
          </g>
          <g id="_Repetición_de_cuadrícula_-4" data-name="&amp;lt;Repetición de cuadrícula&amp;gt;">
            <g>
              <polygon class="cls-14" points="568.43 773.42 568.43 567.08 309.08 661.43 309.08 773.42 568.43 773.42"/>
              <polygon class="cls-14" points="492.72 695.83 492.72 902.18 752.07 807.83 752.07 695.83 492.72 695.83"/>
            </g>
          </g>
          <g id="_Repetición_de_cuadrícula_-5" data-name="&amp;lt;Repetición de cuadrícula&amp;gt;">
            <g>
              <polygon class="cls-14" points="1111.43 773.42 1111.43 567.08 852.07 661.43 852.07 773.42 1111.43 773.42"/>
              <polygon class="cls-14" points="1035.71 695.83 1035.71 902.18 1295.07 807.83 1295.07 695.83 1035.71 695.83"/>
            </g>
          </g>
          <g id="_Repetición_de_cuadrícula_-6" data-name="&amp;lt;Repetición de cuadrícula&amp;gt;">
            <g>
              <polygon class="cls-14" points="1654.42 773.42 1654.42 567.08 1395.07 661.43 1395.07 773.42 1654.42 773.42"/>
              <polygon class="cls-14" points="1578.71 695.83 1578.71 902.18 1838.06 807.83 1838.06 695.83 1578.71 695.83"/>
            </g>
          </g>
          <g id="_Repetición_de_cuadrícula_-7" data-name="&amp;lt;Repetición de cuadrícula&amp;gt;">
            <g>
              <polygon class="cls-14" points="296.93 998.52 296.93 792.18 37.58 886.52 37.58 998.52 296.93 998.52"/>
              <polygon class="cls-14" points="221.22 920.93 221.22 1127.27 480.57 1032.93 480.57 920.93 221.22 920.93"/>
            </g>
          </g>
          <g id="_Repetición_de_cuadrícula_-8" data-name="&amp;lt;Repetición de cuadrícula&amp;gt;">
            <g>
              <polygon class="cls-14" points="839.93 998.52 839.93 792.18 580.57 886.52 580.57 998.52 839.93 998.52"/>
              <polygon class="cls-14" points="764.22 920.93 764.22 1127.27 1023.57 1032.93 1023.57 920.93 764.22 920.93"/>
            </g>
          </g>
          <g id="_Repetición_de_cuadrícula_-9" data-name="&amp;lt;Repetición de cuadrícula&amp;gt;">
            <g>
              <polygon class="cls-14" points="1382.92 998.52 1382.92 792.18 1123.57 886.52 1123.57 998.52 1382.92 998.52"/>
              <polygon class="cls-14" points="1307.21 920.93 1307.21 1127.27 1566.57 1032.93 1566.57 920.93 1307.21 920.93"/>
            </g>
          </g>
          <g id="_Repetición_de_cuadrícula_-10" data-name="&amp;lt;Repetición de cuadrícula&amp;gt;">
            <g>
              <polygon class="cls-14" points="1925.92 998.52 1925.92 792.18 1666.57 886.52 1666.57 998.52 1925.92 998.52"/>
              <polygon class="cls-14" points="1850.21 920.93 1850.21 1127.27 2109.56 1032.93 2109.56 920.93 1850.21 920.93"/>
            </g>
          </g>
          <g id="_Repetición_de_cuadrícula_-11" data-name="&amp;lt;Repetición de cuadrícula&amp;gt;">
            <polygon class="cls-14" points="25.43 1223.62 25.43 1017.27 -233.92 1111.62 -233.92 1223.62 25.43 1223.62"/>
          </g>
          <g id="_Repetición_de_cuadrícula_-12" data-name="&amp;lt;Repetición de cuadrícula&amp;gt;">
            <polygon class="cls-14" points="568.43 1223.62 568.43 1017.27 309.08 1111.62 309.08 1223.62 568.43 1223.62"/>
          </g>
          <g id="_Repetición_de_cuadrícula_-13" data-name="&amp;lt;Repetición de cuadrícula&amp;gt;">
            <polygon class="cls-14" points="1111.43 1223.62 1111.43 1017.27 852.07 1111.62 852.07 1223.62 1111.43 1223.62"/>
          </g>
          <g id="_Repetición_de_cuadrícula_-14" data-name="&amp;lt;Repetición de cuadrícula&amp;gt;">
            <polygon class="cls-14" points="1654.42 1223.62 1654.42 1017.27 1395.07 1111.62 1395.07 1223.62 1654.42 1223.62"/>
          </g>
        </g>
      </g>
    </g>
  </g>
  <g>
    <rect class="cls-5" x="2665.75" y="1127.16" width="1920" height="1081"/>
    <g class="cls-1">
      <g class="cls-2">
        <g>
          <polygon class="cls-9" points="2014.9 691.14 2014.9 553.08 1635.38 691.14 2014.9 691.14"/>
          <polygon class="cls-9" points="2014.9 967.26 2014.9 829.2 1635.38 967.26 2014.9 967.26"/>
        </g>
      </g>
    </g>
  </g>
  <rect class="cls-8" x="-30.28" width="1950.28" height="1081.17"/>
</svg>