<?xml version="1.0" encoding="UTF-8"?>
<svg id="Capa_1" data-name="Capa 1" xmlns="http://www.w3.org/2000/svg" xmlns:xlink="http://www.w3.org/1999/xlink" viewBox="0 0 1920 1081">
  <defs>
    <style>
      .cls-1, .cls-2 {
        stroke-width: 2px;
      }

      .cls-1, .cls-2, .cls-3, .cls-4, .cls-5 {
        fill: none;
      }

      .cls-1, .cls-2, .cls-3, .cls-5 {
        stroke-miterlimit: 10;
      }

      .cls-1, .cls-3, .cls-5 {
        stroke: #e31837;
      }

      .cls-6 {
        clip-path: url(#clippath-7);
      }

      .cls-7 {
        clip-path: url(#clippath-4);
      }

      .cls-8 {
        fill: #f8b4a3;
      }

      .cls-9 {
        clip-path: url(#clippath-9);
      }

      .cls-2 {
        stroke: #f8b4a3;
      }

      .cls-10 {
        fill: #5f0229;
      }

      .cls-5 {
        stroke-width: 1.33px;
      }

      .cls-11 {
        clip-path: url(#clippath-1);
      }

      .cls-12 {
        clip-path: url(#clippath-5);
      }

      .cls-13 {
        clip-path: url(#clippath-8);
      }

      .cls-14 {
        clip-path: url(#clippath-3);
      }

      .cls-15 {
        fill: #e31837;
      }

      .cls-16 {
        clip-path: url(#clippath-2);
      }

      .cls-17 {
        clip-path: url(#clippath);
      }
    </style>
    <clipPath id="clippath">
      <rect class="cls-4" x="1967.39" y="0" width="1919.84" height="1081.17"/>
    </clipPath>
    <clipPath id="clippath-1">
      <rect class="cls-4" x="1301.04" y="-601.13" width="3252.69" height="2283.26"/>
    </clipPath>
    <clipPath id="clippath-2">
      <rect class="cls-10" y="1105.72" width="1920" height="1081"/>
    </clipPath>
    <clipPath id="clippath-3">
      <rect class="cls-4" x="-52.74" y="814.2" width="2025.49" height="1664.03"/>
    </clipPath>
    <clipPath id="clippath-4">
      <rect class="cls-8" width="1920" height="1081"/>
    </clipPath>
    <clipPath id="clippath-5">
      <rect class="cls-4" x="-895.81" y="-552.43" width="3906.29" height="2197.45"/>
    </clipPath>
    <clipPath id="clippath-6">
      <rect class="cls-10" x="1964.55" y="1105.72" width="1922.26" height="1080.26"/>
    </clipPath>
    <clipPath id="clippath-7">
      <rect class="cls-8" x="-1973.21" y=".39" width="1919.59" height="1080.77"/>
    </clipPath>
    <clipPath id="clippath-8">
      <rect class="cls-15" x="1964.61" y="-1111.67" width="1920" height="1081"/>
    </clipPath>
    <clipPath id="clippath-9">
      <rect class="cls-4" x="1392.05" y="-1465.44" width="3065.13" height="1788.54"/>
    </clipPath>
  </defs>
  <g class="cls-17">
    <g class="cls-11">
      <g>
        <g id="_Repetición_de_cuadrícula_" data-name="&amp;lt;Repetición de cuadrícula&amp;gt;">
          <path class="cls-2" d="M2195.34,29.48h-447.75v-161.53l447.75-162.88V29.48Z"/>
        </g>
        <g id="_Repetición_de_cuadrícula_-2" data-name="&amp;lt;Repetición de cuadrícula&amp;gt;">
          <path class="cls-2" d="M1746.41,192.49h-447.75V30.96l447.75-162.88V192.49Z"/>
        </g>
        <g id="_Repetición_de_cuadrícula_-3" data-name="&amp;lt;Repetición de cuadrícula&amp;gt;">
          <path class="cls-2" d="M2195.34,355.5h-447.75v-161.53l447.75-162.88v324.41Z"/>
        </g>
        <g id="_Repetición_de_cuadrícula_-4" data-name="&amp;lt;Repetición de cuadrícula&amp;gt;">
          <path class="cls-2" d="M1746.41,518.52h-447.75v-161.53l447.75-162.88v324.41Z"/>
        </g>
        <g id="_Repetición_de_cuadrícula_-5" data-name="&amp;lt;Repetición de cuadrícula&amp;gt;">
          <path class="cls-2" d="M2195.34,681.53h-447.75v-161.53l447.75-162.88v324.41Z"/>
        </g>
        <g id="_Repetición_de_cuadrícula_-6" data-name="&amp;lt;Repetición de cuadrícula&amp;gt;">
          <path class="cls-2" d="M1746.41,844.54h-447.75v-161.53l447.75-162.88v324.41Z"/>
        </g>
        <g id="_Repetición_de_cuadrícula_-7" data-name="&amp;lt;Repetición de cuadrícula&amp;gt;">
          <path class="cls-2" d="M2195.34,1007.56h-447.75v-161.53l447.75-162.88v324.41Z"/>
        </g>
        <g id="_Repetición_de_cuadrícula_-8" data-name="&amp;lt;Repetición de cuadrícula&amp;gt;">
          <path class="cls-2" d="M1746.41,1170.57h-447.75v-161.53l447.75-162.88v324.41Z"/>
        </g>
        <g id="_Repetición_de_cuadrícula_-9" data-name="&amp;lt;Repetición de cuadrícula&amp;gt;">
          <path class="cls-2" d="M2195.34,1333.58h-447.75v-161.53l447.75-162.88v324.41Z"/>
        </g>
      </g>
    </g>
  </g>
  <g>
    <rect class="cls-10" y="1105.72" width="1920" height="1081"/>
    <g class="cls-16">
      <g class="cls-14">
        <g>
          <g id="_Repetición_de_cuadrícula_-10" data-name="&amp;lt;Repetición de cuadrícula&amp;gt;">
            <polygon class="cls-3" points="170.07 750.55 170.07 621.79 -89.29 716.14 -89.29 828.14 94.35 828.14 94.35 956.89 353.71 862.54 353.71 750.55 170.07 750.55"/>
          </g>
          <g id="_Repetición_de_cuadrícula_-11" data-name="&amp;lt;Repetición de cuadrícula&amp;gt;">
            <polygon class="cls-3" points="839.41 750.55 839.41 621.79 580.05 716.14 580.05 828.14 763.69 828.14 763.69 956.89 1023.05 862.54 1023.05 750.55 839.41 750.55"/>
          </g>
          <g id="_Repetición_de_cuadrícula_-12" data-name="&amp;lt;Repetición de cuadrícula&amp;gt;">
            <polygon class="cls-3" points="1508.75 750.55 1508.75 621.79 1249.39 716.14 1249.39 828.14 1433.03 828.14 1433.03 956.89 1692.39 862.54 1692.39 750.55 1508.75 750.55"/>
          </g>
          <g id="_Repetición_de_cuadrícula_-13" data-name="&amp;lt;Repetición de cuadrícula&amp;gt;">
            <polygon class="cls-3" points="2178.09 750.55 2178.09 621.79 1918.73 716.14 1918.73 828.14 2102.37 828.14 2102.37 956.89 2361.73 862.54 2361.73 750.55 2178.09 750.55"/>
          </g>
          <g id="_Repetición_de_cuadrícula_-14" data-name="&amp;lt;Repetición de cuadrícula&amp;gt;">
            <polygon class="cls-3" points="-164.6 904.37 -164.6 775.62 -423.96 869.97 -423.96 981.96 -240.32 981.96 -240.32 1110.72 19.04 1016.37 19.04 904.37 -164.6 904.37"/>
          </g>
          <g id="_Repetición_de_cuadrícula_-15" data-name="&amp;lt;Repetición de cuadrícula&amp;gt;">
            <polygon class="cls-3" points="504.74 904.37 504.74 775.62 245.38 869.97 245.38 981.96 429.02 981.96 429.02 1110.72 688.38 1016.37 688.38 904.37 504.74 904.37"/>
          </g>
          <g id="_Repetición_de_cuadrícula_-16" data-name="&amp;lt;Repetición de cuadrícula&amp;gt;">
            <polygon class="cls-3" points="1174.08 904.37 1174.08 775.62 914.72 869.97 914.72 981.96 1098.36 981.96 1098.36 1110.72 1357.72 1016.37 1357.72 904.37 1174.08 904.37"/>
          </g>
          <g id="_Repetición_de_cuadrícula_-17" data-name="&amp;lt;Repetición de cuadrícula&amp;gt;">
            <polygon class="cls-3" points="1843.42 904.37 1843.42 775.62 1584.06 869.97 1584.06 981.96 1767.7 981.96 1767.7 1110.72 2027.06 1016.37 2027.06 904.37 1843.42 904.37"/>
          </g>
          <g id="_Repetición_de_cuadrícula_-18" data-name="&amp;lt;Repetición de cuadrícula&amp;gt;">
            <polygon class="cls-3" points="170.07 1058.2 170.07 929.45 -89.29 1023.79 -89.29 1135.79 94.35 1135.79 94.35 1264.54 353.71 1170.2 353.71 1058.2 170.07 1058.2"/>
          </g>
          <g id="_Repetición_de_cuadrícula_-19" data-name="&amp;lt;Repetición de cuadrícula&amp;gt;">
            <polygon class="cls-3" points="839.41 1058.2 839.41 929.45 580.05 1023.79 580.05 1135.79 763.69 1135.79 763.69 1264.54 1023.05 1170.2 1023.05 1058.2 839.41 1058.2"/>
          </g>
          <g id="_Repetición_de_cuadrícula_-20" data-name="&amp;lt;Repetición de cuadrícula&amp;gt;">
            <polygon class="cls-3" points="1508.75 1058.2 1508.75 929.45 1249.39 1023.79 1249.39 1135.79 1433.03 1135.79 1433.03 1264.54 1692.39 1170.2 1692.39 1058.2 1508.75 1058.2"/>
          </g>
          <g id="_Repetición_de_cuadrícula_-21" data-name="&amp;lt;Repetición de cuadrícula&amp;gt;">
            <polygon class="cls-3" points="2178.09 1058.2 2178.09 929.45 1918.73 1023.79 1918.73 1135.79 2102.37 1135.79 2102.37 1264.54 2361.73 1170.2 2361.73 1058.2 2178.09 1058.2"/>
          </g>
        </g>
      </g>
    </g>
  </g>
  <g>
    <rect class="cls-8" width="1920" height="1081"/>
    <g class="cls-7">
      <g class="cls-12">
        <g>
          <g id="_Repetición_de_cuadrícula_-22" data-name="&amp;lt;Repetición de cuadrícula&amp;gt;">
            <polygon class="cls-5" points="978.1 127.55 978.1 -8.51 604.08 127.55 978.1 127.55"/>
          </g>
          <g id="_Repetición_de_cuadrícula_-23" data-name="&amp;lt;Repetición de cuadrícula&amp;gt;">
            <g>
              <polygon class="cls-5" points="222.48 264.28 222.48 128.22 -151.54 264.28 222.48 264.28"/>
              <polygon class="cls-5" points="222.48 -7.85 222.48 128.22 596.51 -7.85 222.48 -7.85"/>
            </g>
          </g>
          <g id="_Repetición_de_cuadrícula_-24" data-name="&amp;lt;Repetición de cuadrícula&amp;gt;">
            <g>
              <polygon class="cls-5" points="978.1 401.01 978.1 264.95 604.08 401.01 978.1 401.01"/>
              <polygon class="cls-5" points="978.1 128.88 978.1 264.95 1352.13 128.88 978.1 128.88"/>
            </g>
          </g>
          <g id="_Repetición_de_cuadrícula_-25" data-name="&amp;lt;Repetición de cuadrícula&amp;gt;">
            <g>
              <polygon class="cls-5" points="1733.72 264.28 1733.72 128.22 1359.7 264.28 1733.72 264.28"/>
              <polygon class="cls-5" points="1733.72 -7.85 1733.72 128.22 2107.75 -7.85 1733.72 -7.85"/>
            </g>
          </g>
          <g id="_Repetición_de_cuadrícula_-26" data-name="&amp;lt;Repetición de cuadrícula&amp;gt;">
            <g>
              <polygon class="cls-5" points="222.48 537.74 222.48 401.68 -151.54 537.74 222.48 537.74"/>
              <polygon class="cls-5" points="222.48 265.61 222.48 401.68 596.51 265.61 222.48 265.61"/>
            </g>
          </g>
          <g id="_Repetición_de_cuadrícula_-27" data-name="&amp;lt;Repetición de cuadrícula&amp;gt;">
            <g>
              <polygon class="cls-5" points="978.1 674.47 978.1 538.4 604.08 674.47 978.1 674.47"/>
              <polygon class="cls-5" points="978.1 402.34 978.1 538.4 1352.13 402.34 978.1 402.34"/>
            </g>
          </g>
          <g id="_Repetición_de_cuadrícula_-28" data-name="&amp;lt;Repetición de cuadrícula&amp;gt;">
            <g>
              <polygon class="cls-5" points="1733.72 537.74 1733.72 401.68 1359.7 537.74 1733.72 537.74"/>
              <polygon class="cls-5" points="1733.72 265.61 1733.72 401.68 2107.75 265.61 1733.72 265.61"/>
            </g>
          </g>
          <g id="_Repetición_de_cuadrícula_-29" data-name="&amp;lt;Repetición de cuadrícula&amp;gt;">
            <g>
              <polygon class="cls-5" points="222.48 811.2 222.48 675.13 -151.54 811.2 222.48 811.2"/>
              <polygon class="cls-5" points="222.48 539.07 222.48 675.13 596.51 539.07 222.48 539.07"/>
            </g>
          </g>
          <g id="_Repetición_de_cuadrícula_-30" data-name="&amp;lt;Repetición de cuadrícula&amp;gt;">
            <g>
              <polygon class="cls-5" points="978.1 947.93 978.1 811.86 604.08 947.93 978.1 947.93"/>
              <polygon class="cls-5" points="978.1 675.8 978.1 811.86 1352.13 675.8 978.1 675.8"/>
            </g>
          </g>
          <g id="_Repetición_de_cuadrícula_-31" data-name="&amp;lt;Repetición de cuadrícula&amp;gt;">
            <g>
              <polygon class="cls-5" points="1733.72 811.2 1733.72 675.13 1359.7 811.2 1733.72 811.2"/>
              <polygon class="cls-5" points="1733.72 539.07 1733.72 675.13 2107.75 539.07 1733.72 539.07"/>
            </g>
          </g>
          <g id="_Repetición_de_cuadrícula_-32" data-name="&amp;lt;Repetición de cuadrícula&amp;gt;">
            <g>
              <polygon class="cls-5" points="222.48 1084.66 222.48 948.59 -151.54 1084.66 222.48 1084.66"/>
              <polygon class="cls-5" points="222.48 812.53 222.48 948.59 596.51 812.53 222.48 812.53"/>
            </g>
          </g>
          <g id="_Repetición_de_cuadrícula_-33" data-name="&amp;lt;Repetición de cuadrícula&amp;gt;">
            <polygon class="cls-5" points="978.1 949.26 978.1 1085.32 1352.13 949.26 978.1 949.26"/>
          </g>
          <g id="_Repetición_de_cuadrícula_-34" data-name="&amp;lt;Repetición de cuadrícula&amp;gt;">
            <g>
              <polygon class="cls-5" points="1733.72 1084.66 1733.72 948.59 1359.7 1084.66 1733.72 1084.66"/>
              <polygon class="cls-5" points="1733.72 812.53 1733.72 948.59 2107.75 812.53 1733.72 812.53"/>
            </g>
          </g>
        </g>
      </g>
    </g>
  </g>
  <rect class="cls-10" x="1964.55" y="1105.72" width="1922.26" height="1080.26"/>
  <g>
    <rect class="cls-8" x="-1973.21" y=".39" width="1919.59" height="1080.77"/>
    <g class="cls-6">
      <g>
        <path class="cls-1" d="M-176.2,912.76H143.81v63.68l-320.01,116.41v-180.09Z"/>
        <path class="cls-1" d="M-176.2,572.7H143.81v63.68l-320.01,116.41v-180.09Z"/>
        <path class="cls-1" d="M-176.2,232.63H143.81v63.68l-320.01,116.41v-180.09Z"/>
        <path class="cls-1" d="M-176.2-107.43H143.81v63.68L-176.2,72.66V-107.43Z"/>
      </g>
    </g>
  </g>
  <g>
    <rect class="cls-15" x="1964.61" y="-1111.67" width="1920" height="1081"/>
    <g class="cls-13">
      <g class="cls-9">
        <g>
          <g id="_Repetición_de_cuadrícula_-37" data-name="&amp;lt;Repetición de cuadrícula&amp;gt;">
            <g>
              <polygon class="cls-10" points="1038.41 -135.77 1038.41 134.06 1339.42 20.69 1339.42 -249.14 1038.41 -135.77"/>
              <polygon class="cls-10" points="1640.42 133.93 1640.42 403.75 1339.42 290.38 1339.42 20.56 1640.42 133.93"/>
            </g>
          </g>
          <g id="_Repetición_de_cuadrícula_-38" data-name="&amp;lt;Repetición de cuadrícula&amp;gt;">
            <g>
              <polygon class="cls-10" points="1503.08 -135.77 1503.08 134.06 1804.08 20.69 1804.08 -249.14 1503.08 -135.77"/>
              <polygon class="cls-10" points="2105.09 133.93 2105.09 403.75 1804.08 290.38 1804.08 20.56 2105.09 133.93"/>
            </g>
          </g>
        </g>
      </g>
    </g>
  </g>
</svg>