<?xml version="1.0" encoding="UTF-8"?>
<svg id="Capa_1" data-name="Capa 1" xmlns="http://www.w3.org/2000/svg" xmlns:xlink="http://www.w3.org/1999/xlink" viewBox="0 0 1920 1081">
  <defs>
    <style>
      .cls-1 {
        clip-path: url(#clippath-6);
      }

      .cls-2 {
        clip-path: url(#clippath-7);
      }

      .cls-3 {
        clip-path: url(#clippath-4);
      }

      .cls-4 {
        fill: #f8b4a3;
      }

      .cls-5 {
        fill: #5f0229;
      }

      .cls-6 {
        fill: none;
      }

      .cls-7 {
        clip-path: url(#clippath-1);
      }

      .cls-8 {
        clip-path: url(#clippath-5);
      }

      .cls-9 {
        clip-path: url(#clippath-8);
      }

      .cls-10 {
        fill: #e31837;
      }

      .cls-11 {
        clip-path: url(#clippath-2);
      }

      .cls-12 {
        clip-path: url(#clippath);
      }
    </style>
    <clipPath id="clippath">
      <rect class="cls-10" x="1973.41" y="-1127.58" width="1920" height="1081"/>
    </clipPath>
    <clipPath id="clippath-1">
      <rect class="cls-6" x="1683.67" y="-1221.14" width="2499.47" height="1268.13"/>
    </clipPath>
    <clipPath id="clippath-2">
      <rect class="cls-5" x="0" width="1920" height="1081"/>
    </clipPath>
    <clipPath id="clippath-4">
      <rect class="cls-5" y="1109.68" width="1920" height="1081"/>
    </clipPath>
    <clipPath id="clippath-5">
      <rect class="cls-6" x="-52.74" y="818.16" width="2025.49" height="1664.03"/>
    </clipPath>
    <clipPath id="clippath-6">
      <rect class="cls-10" y="-1127.58" width="1920" height="1081"/>
    </clipPath>
    <clipPath id="clippath-7">
      <rect class="cls-6" x="-1971.6" y="-2234.52" width="5858.15" height="3295.45"/>
    </clipPath>
    <clipPath id="clippath-8">
      <rect class="cls-6" x="0" y="0" width="1919.56" height="1081.53"/>
    </clipPath>
  </defs>
  <g>
    <rect class="cls-10" x="1973.41" y="-1127.58" width="1920" height="1081"/>
    <g class="cls-12">
      <g class="cls-7">
        <g>
          <g id="_Repetición_de_cuadrícula_" data-name="&amp;lt;Repetición de cuadrícula&amp;gt;">
            <polygon class="cls-4" points="1683.68 -149.71 1683.68 90.16 1960.72 -10.63 1960.72 -250.49 1683.68 -149.71"/>
          </g>
          <g id="_Repetición_de_cuadrícula_-2" data-name="&amp;lt;Repetición de cuadrícula&amp;gt;">
            <polygon class="cls-4" points="1683.68 50.37 1683.68 290.24 1406.63 189.46 1406.63 -50.41 1683.68 50.37"/>
          </g>
        </g>
      </g>
    </g>
  </g>
  <g>
    <rect class="cls-5" x="0" width="1920" height="1081"/>
    <g class="cls-11">
      <rect class="cls-5" x="-1036.77" y="-558.41" width="3859.15" height="2173.31"/>
    </g>
  </g>
  <g>
    <rect class="cls-5" y="1109.68" width="1920" height="1081"/>
    <g class="cls-3">
      <g class="cls-8">
        <g>
          <g id="_Repetición_de_cuadrícula_-3" data-name="&amp;lt;Repetición de cuadrícula&amp;gt;">
            <g>
              <polygon class="cls-10" points="491.41 794.72 491.41 588.38 232.06 682.72 232.06 794.72 491.41 794.72"/>
              <polygon class="cls-10" points="415.7 717.13 415.7 923.47 675.05 829.13 675.05 717.13 415.7 717.13"/>
            </g>
          </g>
          <g id="_Repetición_de_cuadrícula_-4" data-name="&amp;lt;Repetición de cuadrícula&amp;gt;">
            <g>
              <polygon class="cls-10" points="1377.4 794.72 1377.4 588.38 1118.05 682.72 1118.05 794.72 1377.4 794.72"/>
              <polygon class="cls-10" points="1301.69 717.13 1301.69 923.47 1561.05 829.13 1561.05 717.13 1301.69 717.13"/>
            </g>
          </g>
          <g id="_Repetición_de_cuadrícula_-5" data-name="&amp;lt;Repetición de cuadrícula&amp;gt;">
            <g>
              <polygon class="cls-10" points="48.42 941.02 48.42 734.67 -210.94 829.02 -210.94 941.02 48.42 941.02"/>
              <polygon class="cls-10" points="-27.3 863.43 -27.3 1069.77 232.06 975.42 232.06 863.43 -27.3 863.43"/>
            </g>
          </g>
          <g id="_Repetición_de_cuadrícula_-6" data-name="&amp;lt;Repetición de cuadrícula&amp;gt;">
            <g>
              <polygon class="cls-10" points="491.41 1087.31 491.41 880.97 232.06 975.31 232.06 1087.31 491.41 1087.31"/>
              <polygon class="cls-10" points="415.7 1009.72 415.7 1216.07 675.05 1121.72 675.05 1009.72 415.7 1009.72"/>
            </g>
          </g>
          <g id="_Repetición_de_cuadrícula_-7" data-name="&amp;lt;Repetición de cuadrícula&amp;gt;">
            <g>
              <polygon class="cls-10" points="934.41 941.02 934.41 734.67 675.05 829.02 675.05 941.02 934.41 941.02"/>
              <polygon class="cls-10" points="858.69 863.43 858.69 1069.77 1118.05 975.42 1118.05 863.43 858.69 863.43"/>
            </g>
          </g>
          <g id="_Repetición_de_cuadrícula_-8" data-name="&amp;lt;Repetición de cuadrícula&amp;gt;">
            <g>
              <polygon class="cls-10" points="1377.4 1087.31 1377.4 880.97 1118.05 975.31 1118.05 1087.31 1377.4 1087.31"/>
              <polygon class="cls-10" points="1301.69 1009.72 1301.69 1216.07 1561.05 1121.72 1561.05 1009.72 1301.69 1009.72"/>
            </g>
          </g>
          <g id="_Repetición_de_cuadrícula_-9" data-name="&amp;lt;Repetición de cuadrícula&amp;gt;">
            <g>
              <polygon class="cls-10" points="1820.4 941.02 1820.4 734.67 1561.05 829.02 1561.05 941.02 1820.4 941.02"/>
              <polygon class="cls-10" points="1744.69 863.43 1744.69 1069.77 2004.04 975.42 2004.04 863.43 1744.69 863.43"/>
            </g>
          </g>
          <g id="_Repetición_de_cuadrícula_-10" data-name="&amp;lt;Repetición de cuadrícula&amp;gt;">
            <polygon class="cls-10" points="48.42 1233.61 48.42 1027.26 -210.94 1121.61 -210.94 1233.61 48.42 1233.61"/>
          </g>
          <g id="_Repetición_de_cuadrícula_-11" data-name="&amp;lt;Repetición de cuadrícula&amp;gt;">
            <polygon class="cls-10" points="934.41 1233.61 934.41 1027.26 675.05 1121.61 675.05 1233.61 934.41 1233.61"/>
          </g>
          <g id="_Repetición_de_cuadrícula_-12" data-name="&amp;lt;Repetición de cuadrícula&amp;gt;">
            <polygon class="cls-10" points="1820.4 1233.61 1820.4 1027.26 1561.05 1121.61 1561.05 1233.61 1820.4 1233.61"/>
          </g>
        </g>
      </g>
    </g>
  </g>
  <g>
    <rect class="cls-10" y="-1127.58" width="1920" height="1081"/>
    <g class="cls-1">
      <g class="cls-2">
        <g>
          <polygon class="cls-5" points="-288.85 -194.02 -288.85 10.03 272.07 -194.02 -288.85 -194.02"/>
          <polygon class="cls-5" points="832.98 10.03 832.98 -194.02 272.07 10.03 832.98 10.03"/>
          <polygon class="cls-5" points="1954.81 214.08 1954.81 10.03 1393.9 214.08 1954.81 214.08"/>
          <polygon class="cls-5" points="-288.85 214.08 -288.85 418.12 272.07 214.08 -288.85 214.08"/>
          <g>
            <polygon class="cls-5" points="832.98 418.12 832.98 214.08 272.07 418.12 832.98 418.12"/>
            <polygon class="cls-5" points="832.98 10.03 832.98 214.08 1393.9 10.03 832.98 10.03"/>
          </g>
          <polygon class="cls-5" points="1954.81 622.17 1954.81 418.12 1393.9 622.17 1954.81 622.17"/>
          <polygon class="cls-5" points="-288.85 622.17 -288.85 826.22 272.07 622.17 -288.85 622.17"/>
          <g>
            <polygon class="cls-5" points="832.98 826.22 832.98 622.17 272.07 826.22 832.98 826.22"/>
            <polygon class="cls-5" points="832.98 418.12 832.98 622.17 1393.9 418.12 832.98 418.12"/>
          </g>
          <polygon class="cls-5" points="1954.81 1030.27 1954.81 826.22 1393.9 1030.27 1954.81 1030.27"/>
          <polygon class="cls-5" points="-288.85 1030.27 -288.85 1234.32 272.07 1030.27 -288.85 1030.27"/>
          <g>
            <polygon class="cls-5" points="832.98 1234.32 832.98 1030.27 272.07 1234.32 832.98 1234.32"/>
            <polygon class="cls-5" points="832.98 826.22 832.98 1030.27 1393.9 826.22 832.98 826.22"/>
          </g>
        </g>
      </g>
    </g>
  </g>
  <g class="cls-9">
    <g>
      <g id="_Repetición_de_cuadrícula_-13" data-name="&amp;lt;Repetición de cuadrícula&amp;gt;">
        <polygon class="cls-10" points="0 -79.65 0 108.84 140.34 57.79 140.34 -130.71 0 -79.65"/>
      </g>
      <g id="_Repetición_de_cuadrícula_-14" data-name="&amp;lt;Repetición de cuadrícula&amp;gt;">
        <polygon class="cls-10" points="140.34 -175.43 140.34 13.07 280.68 -37.99 280.68 -226.48 140.34 -175.43"/>
      </g>
      <g id="_Repetición_de_cuadrícula_-15" data-name="&amp;lt;Repetición de cuadrícula&amp;gt;">
        <polygon class="cls-10" points="280.68 -79.65 280.68 108.84 421.03 57.79 421.03 -130.71 280.68 -79.65"/>
      </g>
      <g id="_Repetición_de_cuadrícula_-16" data-name="&amp;lt;Repetición de cuadrícula&amp;gt;">
        <polygon class="cls-10" points="421.03 -175.43 421.03 13.07 561.37 -37.99 561.37 -226.48 421.03 -175.43"/>
      </g>
      <g id="_Repetición_de_cuadrícula_-17" data-name="&amp;lt;Repetición de cuadrícula&amp;gt;">
        <polygon class="cls-10" points="561.37 -79.65 561.37 108.84 701.71 57.79 701.71 -130.71 561.37 -79.65"/>
      </g>
      <g id="_Repetición_de_cuadrícula_-18" data-name="&amp;lt;Repetición de cuadrícula&amp;gt;">
        <polygon class="cls-10" points="701.71 -175.43 701.71 13.07 842.05 -37.99 842.05 -226.48 701.71 -175.43"/>
      </g>
      <g id="_Repetición_de_cuadrícula_-19" data-name="&amp;lt;Repetición de cuadrícula&amp;gt;">
        <polygon class="cls-10" points="842.05 -79.65 842.05 108.84 982.39 57.79 982.39 -130.71 842.05 -79.65"/>
      </g>
      <g id="_Repetición_de_cuadrícula_-20" data-name="&amp;lt;Repetición de cuadrícula&amp;gt;">
        <polygon class="cls-10" points="982.39 -175.43 982.39 13.07 1122.73 -37.99 1122.73 -226.48 982.39 -175.43"/>
      </g>
      <g id="_Repetición_de_cuadrícula_-21" data-name="&amp;lt;Repetición de cuadrícula&amp;gt;">
        <polygon class="cls-10" points="1122.73 -79.65 1122.73 108.84 1263.08 57.79 1263.08 -130.71 1122.73 -79.65"/>
      </g>
      <g id="_Repetición_de_cuadrícula_-22" data-name="&amp;lt;Repetición de cuadrícula&amp;gt;">
        <polygon class="cls-10" points="1263.08 -175.43 1263.08 13.07 1403.42 -37.99 1403.42 -226.48 1263.08 -175.43"/>
      </g>
      <g id="_Repetición_de_cuadrícula_-23" data-name="&amp;lt;Repetición de cuadrícula&amp;gt;">
        <polygon class="cls-10" points="1403.42 -79.65 1403.42 108.84 1543.76 57.79 1543.76 -130.71 1403.42 -79.65"/>
      </g>
      <g id="_Repetición_de_cuadrícula_-24" data-name="&amp;lt;Repetición de cuadrícula&amp;gt;">
        <polygon class="cls-10" points="1543.76 -175.43 1543.76 13.07 1684.1 -37.99 1684.1 -226.48 1543.76 -175.43"/>
      </g>
      <g id="_Repetición_de_cuadrícula_-25" data-name="&amp;lt;Repetición de cuadrícula&amp;gt;">
        <polygon class="cls-10" points="1684.1 -79.65 1684.1 108.84 1824.44 57.79 1824.44 -130.71 1684.1 -79.65"/>
      </g>
      <g id="_Repetición_de_cuadrícula_-26" data-name="&amp;lt;Repetición de cuadrícula&amp;gt;">
        <polygon class="cls-10" points="1824.44 -175.43 1824.44 13.07 1964.79 -37.99 1964.79 -226.48 1824.44 -175.43"/>
      </g>
      <g id="_Repetición_de_cuadrícula_-27" data-name="&amp;lt;Repetición de cuadrícula&amp;gt;">
        <polygon class="cls-10" points="0 111.89 0 300.39 140.34 249.34 140.34 60.84 0 111.89"/>
      </g>
      <g id="_Repetición_de_cuadrícula_-28" data-name="&amp;lt;Repetición de cuadrícula&amp;gt;">
        <polygon class="cls-10" points="140.34 16.12 140.34 204.61 280.68 153.56 280.68 -34.93 140.34 16.12"/>
      </g>
      <g id="_Repetición_de_cuadrícula_-29" data-name="&amp;lt;Repetición de cuadrícula&amp;gt;">
        <polygon class="cls-10" points="280.68 111.89 280.68 300.39 421.03 249.34 421.03 60.84 280.68 111.89"/>
      </g>
      <g id="_Repetición_de_cuadrícula_-30" data-name="&amp;lt;Repetición de cuadrícula&amp;gt;">
        <polygon class="cls-10" points="421.03 16.12 421.03 204.61 561.37 153.56 561.37 -34.93 421.03 16.12"/>
      </g>
      <g id="_Repetición_de_cuadrícula_-31" data-name="&amp;lt;Repetición de cuadrícula&amp;gt;">
        <polygon class="cls-10" points="561.37 111.89 561.37 300.39 701.71 249.34 701.71 60.84 561.37 111.89"/>
      </g>
      <g id="_Repetición_de_cuadrícula_-32" data-name="&amp;lt;Repetición de cuadrícula&amp;gt;">
        <polygon class="cls-10" points="701.71 16.12 701.71 204.61 842.05 153.56 842.05 -34.93 701.71 16.12"/>
      </g>
      <g id="_Repetición_de_cuadrícula_-33" data-name="&amp;lt;Repetición de cuadrícula&amp;gt;">
        <polygon class="cls-10" points="842.05 111.89 842.05 300.39 982.39 249.34 982.39 60.84 842.05 111.89"/>
      </g>
      <g id="_Repetición_de_cuadrícula_-34" data-name="&amp;lt;Repetición de cuadrícula&amp;gt;">
        <polygon class="cls-10" points="982.39 16.12 982.39 204.61 1122.73 153.56 1122.73 -34.93 982.39 16.12"/>
      </g>
      <g id="_Repetición_de_cuadrícula_-35" data-name="&amp;lt;Repetición de cuadrícula&amp;gt;">
        <polygon class="cls-10" points="1122.73 111.89 1122.73 300.39 1263.08 249.34 1263.08 60.84 1122.73 111.89"/>
      </g>
      <g id="_Repetición_de_cuadrícula_-36" data-name="&amp;lt;Repetición de cuadrícula&amp;gt;">
        <polygon class="cls-10" points="1263.08 16.12 1263.08 204.61 1403.42 153.56 1403.42 -34.93 1263.08 16.12"/>
      </g>
      <g id="_Repetición_de_cuadrícula_-37" data-name="&amp;lt;Repetición de cuadrícula&amp;gt;">
        <polygon class="cls-10" points="1403.42 111.89 1403.42 300.39 1543.76 249.34 1543.76 60.84 1403.42 111.89"/>
      </g>
      <g id="_Repetición_de_cuadrícula_-38" data-name="&amp;lt;Repetición de cuadrícula&amp;gt;">
        <polygon class="cls-10" points="1543.76 16.12 1543.76 204.61 1684.1 153.56 1684.1 -34.93 1543.76 16.12"/>
      </g>
      <g id="_Repetición_de_cuadrícula_-39" data-name="&amp;lt;Repetición de cuadrícula&amp;gt;">
        <polygon class="cls-10" points="1684.1 111.89 1684.1 300.39 1824.44 249.34 1824.44 60.84 1684.1 111.89"/>
      </g>
      <g id="_Repetición_de_cuadrícula_-40" data-name="&amp;lt;Repetición de cuadrícula&amp;gt;">
        <polygon class="cls-10" points="1824.44 16.12 1824.44 204.61 1964.79 153.56 1964.79 -34.93 1824.44 16.12"/>
      </g>
      <g id="_Repetición_de_cuadrícula_-41" data-name="&amp;lt;Repetición de cuadrícula&amp;gt;">
        <polygon class="cls-10" points="0 303.44 0 491.94 140.34 440.88 140.34 252.39 0 303.44"/>
      </g>
      <g id="_Repetición_de_cuadrícula_-42" data-name="&amp;lt;Repetición de cuadrícula&amp;gt;">
        <polygon class="cls-10" points="140.34 207.67 140.34 396.16 280.68 345.11 280.68 156.61 140.34 207.67"/>
      </g>
      <g id="_Repetición_de_cuadrícula_-43" data-name="&amp;lt;Repetición de cuadrícula&amp;gt;">
        <polygon class="cls-10" points="280.68 303.44 280.68 491.94 421.03 440.88 421.03 252.39 280.68 303.44"/>
      </g>
      <g id="_Repetición_de_cuadrícula_-44" data-name="&amp;lt;Repetición de cuadrícula&amp;gt;">
        <polygon class="cls-10" points="421.03 207.67 421.03 396.16 561.37 345.11 561.37 156.61 421.03 207.67"/>
      </g>
      <g id="_Repetición_de_cuadrícula_-45" data-name="&amp;lt;Repetición de cuadrícula&amp;gt;">
        <polygon class="cls-10" points="561.37 303.44 561.37 491.94 701.71 440.88 701.71 252.39 561.37 303.44"/>
      </g>
      <g id="_Repetición_de_cuadrícula_-46" data-name="&amp;lt;Repetición de cuadrícula&amp;gt;">
        <polygon class="cls-10" points="701.71 207.67 701.71 396.16 842.05 345.11 842.05 156.61 701.71 207.67"/>
      </g>
      <g id="_Repetición_de_cuadrícula_-47" data-name="&amp;lt;Repetición de cuadrícula&amp;gt;">
        <polygon class="cls-10" points="842.05 303.44 842.05 491.94 982.39 440.88 982.39 252.39 842.05 303.44"/>
      </g>
      <g id="_Repetición_de_cuadrícula_-48" data-name="&amp;lt;Repetición de cuadrícula&amp;gt;">
        <polygon class="cls-10" points="982.39 207.67 982.39 396.16 1122.73 345.11 1122.73 156.61 982.39 207.67"/>
      </g>
      <g id="_Repetición_de_cuadrícula_-49" data-name="&amp;lt;Repetición de cuadrícula&amp;gt;">
        <polygon class="cls-10" points="1122.73 303.44 1122.73 491.94 1263.08 440.88 1263.08 252.39 1122.73 303.44"/>
      </g>
      <g id="_Repetición_de_cuadrícula_-50" data-name="&amp;lt;Repetición de cuadrícula&amp;gt;">
        <polygon class="cls-10" points="1263.08 207.67 1263.08 396.16 1403.42 345.11 1403.42 156.61 1263.08 207.67"/>
      </g>
      <g id="_Repetición_de_cuadrícula_-51" data-name="&amp;lt;Repetición de cuadrícula&amp;gt;">
        <polygon class="cls-10" points="1403.42 303.44 1403.42 491.94 1543.76 440.88 1543.76 252.39 1403.42 303.44"/>
      </g>
      <g id="_Repetición_de_cuadrícula_-52" data-name="&amp;lt;Repetición de cuadrícula&amp;gt;">
        <polygon class="cls-10" points="1543.76 207.67 1543.76 396.16 1684.1 345.11 1684.1 156.61 1543.76 207.67"/>
      </g>
      <g id="_Repetición_de_cuadrícula_-53" data-name="&amp;lt;Repetición de cuadrícula&amp;gt;">
        <polygon class="cls-10" points="1684.1 303.44 1684.1 491.94 1824.44 440.88 1824.44 252.39 1684.1 303.44"/>
      </g>
      <g id="_Repetición_de_cuadrícula_-54" data-name="&amp;lt;Repetición de cuadrícula&amp;gt;">
        <polygon class="cls-10" points="1824.44 207.67 1824.44 396.16 1964.79 345.11 1964.79 156.61 1824.44 207.67"/>
      </g>
      <g id="_Repetición_de_cuadrícula_-55" data-name="&amp;lt;Repetición de cuadrícula&amp;gt;">
        <polygon class="cls-10" points="0 494.99 0 683.48 140.34 632.43 140.34 443.94 0 494.99"/>
      </g>
      <g id="_Repetición_de_cuadrícula_-56" data-name="&amp;lt;Repetición de cuadrícula&amp;gt;">
        <polygon class="cls-10" points="140.34 399.22 140.34 587.71 280.68 536.66 280.68 348.16 140.34 399.22"/>
      </g>
      <g id="_Repetición_de_cuadrícula_-57" data-name="&amp;lt;Repetición de cuadrícula&amp;gt;">
        <polygon class="cls-10" points="280.68 494.99 280.68 683.48 421.03 632.43 421.03 443.94 280.68 494.99"/>
      </g>
      <g id="_Repetición_de_cuadrícula_-58" data-name="&amp;lt;Repetición de cuadrícula&amp;gt;">
        <polygon class="cls-10" points="421.03 399.22 421.03 587.71 561.37 536.66 561.37 348.16 421.03 399.22"/>
      </g>
      <g id="_Repetición_de_cuadrícula_-59" data-name="&amp;lt;Repetición de cuadrícula&amp;gt;">
        <polygon class="cls-10" points="561.37 494.99 561.37 683.48 701.71 632.43 701.71 443.94 561.37 494.99"/>
      </g>
      <g id="_Repetición_de_cuadrícula_-60" data-name="&amp;lt;Repetición de cuadrícula&amp;gt;">
        <polygon class="cls-10" points="701.71 399.22 701.71 587.71 842.05 536.66 842.05 348.16 701.71 399.22"/>
      </g>
      <g id="_Repetición_de_cuadrícula_-61" data-name="&amp;lt;Repetición de cuadrícula&amp;gt;">
        <polygon class="cls-10" points="842.05 494.99 842.05 683.48 982.39 632.43 982.39 443.94 842.05 494.99"/>
      </g>
      <g id="_Repetición_de_cuadrícula_-62" data-name="&amp;lt;Repetición de cuadrícula&amp;gt;">
        <polygon class="cls-10" points="982.39 399.22 982.39 587.71 1122.73 536.66 1122.73 348.16 982.39 399.22"/>
      </g>
      <g id="_Repetición_de_cuadrícula_-63" data-name="&amp;lt;Repetición de cuadrícula&amp;gt;">
        <polygon class="cls-10" points="1122.73 494.99 1122.73 683.48 1263.08 632.43 1263.08 443.94 1122.73 494.99"/>
      </g>
      <g id="_Repetición_de_cuadrícula_-64" data-name="&amp;lt;Repetición de cuadrícula&amp;gt;">
        <polygon class="cls-10" points="1263.08 399.22 1263.08 587.71 1403.42 536.66 1403.42 348.16 1263.08 399.22"/>
      </g>
      <g id="_Repetición_de_cuadrícula_-65" data-name="&amp;lt;Repetición de cuadrícula&amp;gt;">
        <polygon class="cls-10" points="1403.42 494.99 1403.42 683.48 1543.76 632.43 1543.76 443.94 1403.42 494.99"/>
      </g>
      <g id="_Repetición_de_cuadrícula_-66" data-name="&amp;lt;Repetición de cuadrícula&amp;gt;">
        <polygon class="cls-10" points="1543.76 399.22 1543.76 587.71 1684.1 536.66 1684.1 348.16 1543.76 399.22"/>
      </g>
      <g id="_Repetición_de_cuadrícula_-67" data-name="&amp;lt;Repetición de cuadrícula&amp;gt;">
        <polygon class="cls-10" points="1684.1 494.99 1684.1 683.48 1824.44 632.43 1824.44 443.94 1684.1 494.99"/>
      </g>
      <g id="_Repetición_de_cuadrícula_-68" data-name="&amp;lt;Repetición de cuadrícula&amp;gt;">
        <polygon class="cls-10" points="1824.44 399.22 1824.44 587.71 1964.79 536.66 1964.79 348.16 1824.44 399.22"/>
      </g>
      <g id="_Repetición_de_cuadrícula_-69" data-name="&amp;lt;Repetición de cuadrícula&amp;gt;">
        <polygon class="cls-10" points="0 686.54 0 875.03 140.34 823.98 140.34 635.48 0 686.54"/>
      </g>
      <g id="_Repetición_de_cuadrícula_-70" data-name="&amp;lt;Repetición de cuadrícula&amp;gt;">
        <polygon class="cls-10" points="140.34 590.76 140.34 779.26 280.68 728.21 280.68 539.71 140.34 590.76"/>
      </g>
      <g id="_Repetición_de_cuadrícula_-71" data-name="&amp;lt;Repetición de cuadrícula&amp;gt;">
        <polygon class="cls-10" points="280.68 686.54 280.68 875.03 421.03 823.98 421.03 635.48 280.68 686.54"/>
      </g>
      <g id="_Repetición_de_cuadrícula_-72" data-name="&amp;lt;Repetición de cuadrícula&amp;gt;">
        <polygon class="cls-10" points="421.03 590.76 421.03 779.26 561.37 728.21 561.37 539.71 421.03 590.76"/>
      </g>
      <g id="_Repetición_de_cuadrícula_-73" data-name="&amp;lt;Repetición de cuadrícula&amp;gt;">
        <polygon class="cls-10" points="561.37 686.54 561.37 875.03 701.71 823.98 701.71 635.48 561.37 686.54"/>
      </g>
      <g id="_Repetición_de_cuadrícula_-74" data-name="&amp;lt;Repetición de cuadrícula&amp;gt;">
        <polygon class="cls-10" points="701.71 590.76 701.71 779.26 842.05 728.21 842.05 539.71 701.71 590.76"/>
      </g>
      <g id="_Repetición_de_cuadrícula_-75" data-name="&amp;lt;Repetición de cuadrícula&amp;gt;">
        <polygon class="cls-10" points="842.05 686.54 842.05 875.03 982.39 823.98 982.39 635.48 842.05 686.54"/>
      </g>
      <g id="_Repetición_de_cuadrícula_-76" data-name="&amp;lt;Repetición de cuadrícula&amp;gt;">
        <polygon class="cls-10" points="982.39 590.76 982.39 779.26 1122.73 728.21 1122.73 539.71 982.39 590.76"/>
      </g>
      <g id="_Repetición_de_cuadrícula_-77" data-name="&amp;lt;Repetición de cuadrícula&amp;gt;">
        <polygon class="cls-10" points="1122.73 686.54 1122.73 875.03 1263.08 823.98 1263.08 635.48 1122.73 686.54"/>
      </g>
      <g id="_Repetición_de_cuadrícula_-78" data-name="&amp;lt;Repetición de cuadrícula&amp;gt;">
        <polygon class="cls-10" points="1263.08 590.76 1263.08 779.26 1403.42 728.21 1403.42 539.71 1263.08 590.76"/>
      </g>
      <g id="_Repetición_de_cuadrícula_-79" data-name="&amp;lt;Repetición de cuadrícula&amp;gt;">
        <polygon class="cls-10" points="1403.42 686.54 1403.42 875.03 1543.76 823.98 1543.76 635.48 1403.42 686.54"/>
      </g>
      <g id="_Repetición_de_cuadrícula_-80" data-name="&amp;lt;Repetición de cuadrícula&amp;gt;">
        <polygon class="cls-10" points="1543.76 590.76 1543.76 779.26 1684.1 728.21 1684.1 539.71 1543.76 590.76"/>
      </g>
      <g id="_Repetición_de_cuadrícula_-81" data-name="&amp;lt;Repetición de cuadrícula&amp;gt;">
        <polygon class="cls-10" points="1684.1 686.54 1684.1 875.03 1824.44 823.98 1824.44 635.48 1684.1 686.54"/>
      </g>
      <g id="_Repetición_de_cuadrícula_-82" data-name="&amp;lt;Repetición de cuadrícula&amp;gt;">
        <polygon class="cls-10" points="1824.44 590.76 1824.44 779.26 1964.79 728.21 1964.79 539.71 1824.44 590.76"/>
      </g>
      <g id="_Repetición_de_cuadrícula_-83" data-name="&amp;lt;Repetición de cuadrícula&amp;gt;">
        <polygon class="cls-10" points="0 878.08 0 1066.58 140.34 1015.53 140.34 827.03 0 878.08"/>
      </g>
      <g id="_Repetición_de_cuadrícula_-84" data-name="&amp;lt;Repetición de cuadrícula&amp;gt;">
        <polygon class="cls-10" points="140.34 782.31 140.34 970.81 280.68 919.75 280.68 731.26 140.34 782.31"/>
      </g>
      <g id="_Repetición_de_cuadrícula_-85" data-name="&amp;lt;Repetición de cuadrícula&amp;gt;">
        <polygon class="cls-10" points="280.68 878.08 280.68 1066.58 421.03 1015.53 421.03 827.03 280.68 878.08"/>
      </g>
      <g id="_Repetición_de_cuadrícula_-86" data-name="&amp;lt;Repetición de cuadrícula&amp;gt;">
        <polygon class="cls-10" points="421.03 782.31 421.03 970.81 561.37 919.75 561.37 731.26 421.03 782.31"/>
      </g>
      <g id="_Repetición_de_cuadrícula_-87" data-name="&amp;lt;Repetición de cuadrícula&amp;gt;">
        <polygon class="cls-10" points="561.37 878.08 561.37 1066.58 701.71 1015.53 701.71 827.03 561.37 878.08"/>
      </g>
      <g id="_Repetición_de_cuadrícula_-88" data-name="&amp;lt;Repetición de cuadrícula&amp;gt;">
        <polygon class="cls-10" points="701.71 782.31 701.71 970.81 842.05 919.75 842.05 731.26 701.71 782.31"/>
      </g>
      <g id="_Repetición_de_cuadrícula_-89" data-name="&amp;lt;Repetición de cuadrícula&amp;gt;">
        <polygon class="cls-10" points="842.05 878.08 842.05 1066.58 982.39 1015.53 982.39 827.03 842.05 878.08"/>
      </g>
      <g id="_Repetición_de_cuadrícula_-90" data-name="&amp;lt;Repetición de cuadrícula&amp;gt;">
        <polygon class="cls-10" points="982.39 782.31 982.39 970.81 1122.73 919.75 1122.73 731.26 982.39 782.31"/>
      </g>
      <g id="_Repetición_de_cuadrícula_-91" data-name="&amp;lt;Repetición de cuadrícula&amp;gt;">
        <polygon class="cls-10" points="1122.73 878.08 1122.73 1066.58 1263.08 1015.53 1263.08 827.03 1122.73 878.08"/>
      </g>
      <g id="_Repetición_de_cuadrícula_-92" data-name="&amp;lt;Repetición de cuadrícula&amp;gt;">
        <polygon class="cls-10" points="1263.08 782.31 1263.08 970.81 1403.42 919.75 1403.42 731.26 1263.08 782.31"/>
      </g>
      <g id="_Repetición_de_cuadrícula_-93" data-name="&amp;lt;Repetición de cuadrícula&amp;gt;">
        <polygon class="cls-10" points="1403.42 878.08 1403.42 1066.58 1543.76 1015.53 1543.76 827.03 1403.42 878.08"/>
      </g>
      <g id="_Repetición_de_cuadrícula_-94" data-name="&amp;lt;Repetición de cuadrícula&amp;gt;">
        <polygon class="cls-10" points="1543.76 782.31 1543.76 970.81 1684.1 919.75 1684.1 731.26 1543.76 782.31"/>
      </g>
      <g id="_Repetición_de_cuadrícula_-95" data-name="&amp;lt;Repetición de cuadrícula&amp;gt;">
        <polygon class="cls-10" points="1684.1 878.08 1684.1 1066.58 1824.44 1015.53 1824.44 827.03 1684.1 878.08"/>
      </g>
      <g id="_Repetición_de_cuadrícula_-96" data-name="&amp;lt;Repetición de cuadrícula&amp;gt;">
        <polygon class="cls-10" points="1824.44 782.31 1824.44 970.81 1964.79 919.75 1964.79 731.26 1824.44 782.31"/>
      </g>
      <g id="_Repetición_de_cuadrícula_-97" data-name="&amp;lt;Repetición de cuadrícula&amp;gt;">
        <polygon class="cls-10" points="0 1069.63 0 1258.13 140.34 1207.08 140.34 1018.58 0 1069.63"/>
      </g>
      <g id="_Repetición_de_cuadrícula_-98" data-name="&amp;lt;Repetición de cuadrícula&amp;gt;">
        <polygon class="cls-10" points="140.34 973.86 140.34 1162.35 280.68 1111.3 280.68 922.81 140.34 973.86"/>
      </g>
      <g id="_Repetición_de_cuadrícula_-99" data-name="&amp;lt;Repetición de cuadrícula&amp;gt;">
        <polygon class="cls-10" points="280.68 1069.63 280.68 1258.13 421.03 1207.08 421.03 1018.58 280.68 1069.63"/>
      </g>
      <g id="_Repetición_de_cuadrícula_-100" data-name="&amp;lt;Repetición de cuadrícula&amp;gt;">
        <polygon class="cls-10" points="421.03 973.86 421.03 1162.35 561.37 1111.3 561.37 922.81 421.03 973.86"/>
      </g>
      <g id="_Repetición_de_cuadrícula_-101" data-name="&amp;lt;Repetición de cuadrícula&amp;gt;">
        <polygon class="cls-10" points="561.37 1069.63 561.37 1258.13 701.71 1207.08 701.71 1018.58 561.37 1069.63"/>
      </g>
      <g id="_Repetición_de_cuadrícula_-102" data-name="&amp;lt;Repetición de cuadrícula&amp;gt;">
        <polygon class="cls-10" points="701.71 973.86 701.71 1162.35 842.05 1111.3 842.05 922.81 701.71 973.86"/>
      </g>
      <g id="_Repetición_de_cuadrícula_-103" data-name="&amp;lt;Repetición de cuadrícula&amp;gt;">
        <polygon class="cls-10" points="842.05 1069.63 842.05 1258.13 982.39 1207.08 982.39 1018.58 842.05 1069.63"/>
      </g>
      <g id="_Repetición_de_cuadrícula_-104" data-name="&amp;lt;Repetición de cuadrícula&amp;gt;">
        <polygon class="cls-10" points="982.39 973.86 982.39 1162.35 1122.73 1111.3 1122.73 922.81 982.39 973.86"/>
      </g>
      <g id="_Repetición_de_cuadrícula_-105" data-name="&amp;lt;Repetición de cuadrícula&amp;gt;">
        <polygon class="cls-10" points="1122.73 1069.63 1122.73 1258.13 1263.08 1207.08 1263.08 1018.58 1122.73 1069.63"/>
      </g>
      <g id="_Repetición_de_cuadrícula_-106" data-name="&amp;lt;Repetición de cuadrícula&amp;gt;">
        <polygon class="cls-10" points="1263.08 973.86 1263.08 1162.35 1403.42 1111.3 1403.42 922.81 1263.08 973.86"/>
      </g>
      <g id="_Repetición_de_cuadrícula_-107" data-name="&amp;lt;Repetición de cuadrícula&amp;gt;">
        <polygon class="cls-10" points="1403.42 1069.63 1403.42 1258.13 1543.76 1207.08 1543.76 1018.58 1403.42 1069.63"/>
      </g>
      <g id="_Repetición_de_cuadrícula_-108" data-name="&amp;lt;Repetición de cuadrícula&amp;gt;">
        <polygon class="cls-10" points="1543.76 973.86 1543.76 1162.35 1684.1 1111.3 1684.1 922.81 1543.76 973.86"/>
      </g>
      <g id="_Repetición_de_cuadrícula_-109" data-name="&amp;lt;Repetición de cuadrícula&amp;gt;">
        <polygon class="cls-10" points="1684.1 1069.63 1684.1 1258.13 1824.44 1207.08 1824.44 1018.58 1684.1 1069.63"/>
      </g>
      <g id="_Repetición_de_cuadrícula_-110" data-name="&amp;lt;Repetición de cuadrícula&amp;gt;">
        <polygon class="cls-10" points="1824.44 973.86 1824.44 1162.35 1964.79 1111.3 1964.79 922.81 1824.44 973.86"/>
      </g>
    </g>
  </g>
</svg>