<?xml version="1.0" encoding="UTF-8"?>
<svg id="Capa_1" data-name="Capa 1" xmlns="http://www.w3.org/2000/svg" xmlns:xlink="http://www.w3.org/1999/xlink" viewBox="0 0 1920 1081">
  <defs>
    <style>
      .cls-1 {
        clip-path: url(#clippath-6);
      }

      .cls-2 {
        clip-path: url(#clippath-7);
      }

      .cls-3 {
        clip-path: url(#clippath-4);
      }

      .cls-4 {
        fill: #f8b4a3;
      }

      .cls-5 {
        clip-path: url(#clippath-9);
      }

      .cls-6 {
        clip-path: url(#clippath-10);
      }

      .cls-7 {
        clip-path: url(#clippath-11);
      }

      .cls-8 {
        fill: #5f0229;
      }

      .cls-9 {
        fill: none;
      }

      .cls-10 {
        clip-path: url(#clippath-1);
      }

      .cls-11 {
        clip-path: url(#clippath-8);
      }

      .cls-12 {
        clip-path: url(#clippath-3);
      }

      .cls-13 {
        clip-path: url(#clippath-12);
      }

      .cls-14 {
        fill: #e31837;
      }

      .cls-15 {
        clip-path: url(#clippath-2);
      }

      .cls-16 {
        clip-path: url(#clippath-13);
      }

      .cls-17 {
        clip-path: url(#clippath);
      }
    </style>
    <clipPath id="clippath">
      <rect class="cls-8" x="-1973.41" y="-1144.79" width="1920" height="1081"/>
    </clipPath>
    <clipPath id="clippath-1">
      <rect class="cls-9" x="-2133.04" y="-1257.61" width="2239.26" height="1306.64"/>
    </clipPath>
    <clipPath id="clippath-2">
      <rect class="cls-14" x="0" y="0" width="1920" height="1081"/>
    </clipPath>
    <clipPath id="clippath-3">
      <rect class="cls-9" x="-289.73" y="-93.56" width="2499.47" height="1268.13"/>
    </clipPath>
    <clipPath id="clippath-4">
      <rect class="cls-8" x="-1973.41" y="1127.58" width="1920" height="1081"/>
    </clipPath>
    <clipPath id="clippath-6">
      <rect class="cls-9" y="-1110.99" width="1919.84" height="1081.17"/>
    </clipPath>
    <clipPath id="clippath-7">
      <rect class="cls-9" x="-1047.72" y="-1979.83" width="4015.43" height="2818.67"/>
    </clipPath>
    <clipPath id="clippath-8">
      <rect class="cls-14" y="1127.58" width="1920" height="1081"/>
    </clipPath>
    <clipPath id="clippath-9">
      <rect class="cls-9" x="-53.41" y="835.79" width="2026.15" height="1664.58"/>
    </clipPath>
    <clipPath id="clippath-10">
      <rect class="cls-14" x="-1973.41" width="1920" height="1081"/>
    </clipPath>
    <clipPath id="clippath-11">
      <rect class="cls-9" x="-3945.01" y="-1106.94" width="5858.15" height="3295.45"/>
    </clipPath>
    <clipPath id="clippath-12">
      <rect class="cls-4" x="1967.91" width="1920" height="1081"/>
    </clipPath>
    <clipPath id="clippath-13">
      <rect class="cls-9" x="1915.16" y="-291.52" width="2025.49" height="1664.03"/>
    </clipPath>
  </defs>
  <g>
    <rect class="cls-8" x="-1973.41" y="-1144.79" width="1920" height="1081"/>
    <g class="cls-17">
      <g class="cls-10">
        <g>
          <g id="_Grid_Repeat_" data-name="&amp;lt;Grid Repeat&amp;gt;">
            <polygon class="cls-14" points="85.21 -89.17 85.21 107.95 -134.7 25.13 -134.7 -172 85.21 -89.17"/>
          </g>
          <g id="_Grid_Repeat_-2" data-name="&amp;lt;Grid Repeat&amp;gt;">
            <polygon class="cls-14" points="424.67 -89.17 424.67 107.95 204.77 25.13 204.77 -172 424.67 -89.17"/>
          </g>
        </g>
      </g>
    </g>
  </g>
  <g>
    <rect class="cls-14" x="0" y="0" width="1920" height="1081"/>
    <g class="cls-15">
      <g class="cls-12">
        <g>
          <g id="_Repetición_de_cuadrícula_" data-name="&amp;lt;Repetición de cuadrícula&amp;gt;">
            <polygon class="cls-4" points="541.4 -222.62 541.4 17.24 264.35 -83.54 264.35 -323.41 541.4 -222.62"/>
          </g>
          <g id="_Repetición_de_cuadrícula_-2" data-name="&amp;lt;Repetición de cuadrícula&amp;gt;">
            <polygon class="cls-4" points="1095.49 -222.62 1095.49 17.24 818.44 -83.54 818.44 -323.41 1095.49 -222.62"/>
          </g>
          <g id="_Repetición_de_cuadrícula_-3" data-name="&amp;lt;Repetición de cuadrícula&amp;gt;">
            <polygon class="cls-4" points="1649.58 -222.62 1649.58 17.24 1372.53 -83.54 1372.53 -323.41 1649.58 -222.62"/>
          </g>
          <g id="_Repetición_de_cuadrícula_-4" data-name="&amp;lt;Repetición de cuadrícula&amp;gt;">
            <polygon class="cls-4" points="-12.69 -22.54 -12.69 217.32 264.35 116.54 264.35 -123.32 -12.69 -22.54"/>
          </g>
          <g id="_Repetición_de_cuadrícula_-5" data-name="&amp;lt;Repetición de cuadrícula&amp;gt;">
            <polygon class="cls-4" points="264.35 177.54 264.35 417.41 541.4 316.62 541.4 76.76 264.35 177.54"/>
          </g>
          <g id="_Repetición_de_cuadrícula_-6" data-name="&amp;lt;Repetición de cuadrícula&amp;gt;">
            <polygon class="cls-4" points="541.4 -22.54 541.4 217.32 818.44 116.54 818.44 -123.32 541.4 -22.54"/>
          </g>
          <g id="_Repetición_de_cuadrícula_-7" data-name="&amp;lt;Repetición de cuadrícula&amp;gt;">
            <polygon class="cls-4" points="818.44 177.54 818.44 417.41 1095.49 316.62 1095.49 76.76 818.44 177.54"/>
          </g>
          <g id="_Repetición_de_cuadrícula_-8" data-name="&amp;lt;Repetición de cuadrícula&amp;gt;">
            <polygon class="cls-4" points="1095.49 -22.54 1095.49 217.32 1372.53 116.54 1372.53 -123.32 1095.49 -22.54"/>
          </g>
          <g id="_Repetición_de_cuadrícula_-9" data-name="&amp;lt;Repetición de cuadrícula&amp;gt;">
            <polygon class="cls-4" points="1372.53 177.54 1372.53 417.41 1649.58 316.62 1649.58 76.76 1372.53 177.54"/>
          </g>
          <g id="_Repetición_de_cuadrícula_-10" data-name="&amp;lt;Repetición de cuadrícula&amp;gt;">
            <polygon class="cls-4" points="1649.58 -22.54 1649.58 217.32 1926.62 116.54 1926.62 -123.32 1649.58 -22.54"/>
          </g>
          <g id="_Repetición_de_cuadrícula_-11" data-name="&amp;lt;Repetición de cuadrícula&amp;gt;">
            <polygon class="cls-4" points="264.35 377.62 264.35 617.49 -12.69 516.71 -12.69 276.84 264.35 377.62"/>
          </g>
          <g id="_Repetición_de_cuadrícula_-12" data-name="&amp;lt;Repetición de cuadrícula&amp;gt;">
            <polygon class="cls-4" points="541.4 577.71 541.4 817.57 264.35 716.79 264.35 476.92 541.4 577.71"/>
          </g>
          <g id="_Repetición_de_cuadrícula_-13" data-name="&amp;lt;Repetición de cuadrícula&amp;gt;">
            <polygon class="cls-4" points="818.44 377.62 818.44 617.49 541.4 516.71 541.4 276.84 818.44 377.62"/>
          </g>
          <g id="_Repetición_de_cuadrícula_-14" data-name="&amp;lt;Repetición de cuadrícula&amp;gt;">
            <polygon class="cls-4" points="1095.49 577.71 1095.49 817.57 818.44 716.79 818.44 476.92 1095.49 577.71"/>
          </g>
          <g id="_Repetición_de_cuadrícula_-15" data-name="&amp;lt;Repetición de cuadrícula&amp;gt;">
            <polygon class="cls-4" points="1372.53 377.62 1372.53 617.49 1095.49 516.71 1095.49 276.84 1372.53 377.62"/>
          </g>
          <g id="_Repetición_de_cuadrícula_-16" data-name="&amp;lt;Repetición de cuadrícula&amp;gt;">
            <polygon class="cls-4" points="1649.58 577.71 1649.58 817.57 1372.53 716.79 1372.53 476.92 1649.58 577.71"/>
          </g>
          <g id="_Repetición_de_cuadrícula_-17" data-name="&amp;lt;Repetición de cuadrícula&amp;gt;">
            <polygon class="cls-4" points="1926.62 377.62 1926.62 617.49 1649.58 516.71 1649.58 276.84 1926.62 377.62"/>
          </g>
          <g id="_Repetición_de_cuadrícula_-18" data-name="&amp;lt;Repetición de cuadrícula&amp;gt;">
            <polygon class="cls-4" points="-12.69 777.79 -12.69 1017.65 264.35 916.87 264.35 677.01 -12.69 777.79"/>
          </g>
          <g id="_Repetición_de_cuadrícula_-19" data-name="&amp;lt;Repetición de cuadrícula&amp;gt;">
            <polygon class="cls-4" points="264.35 977.87 264.35 1217.74 541.4 1116.95 541.4 877.09 264.35 977.87"/>
          </g>
          <g id="_Repetición_de_cuadrícula_-20" data-name="&amp;lt;Repetición de cuadrícula&amp;gt;">
            <polygon class="cls-4" points="541.4 777.79 541.4 1017.65 818.44 916.87 818.44 677.01 541.4 777.79"/>
          </g>
          <g id="_Repetición_de_cuadrícula_-21" data-name="&amp;lt;Repetición de cuadrícula&amp;gt;">
            <polygon class="cls-4" points="818.44 977.87 818.44 1217.74 1095.49 1116.95 1095.49 877.09 818.44 977.87"/>
          </g>
          <g id="_Repetición_de_cuadrícula_-22" data-name="&amp;lt;Repetición de cuadrícula&amp;gt;">
            <polygon class="cls-4" points="1095.49 777.79 1095.49 1017.65 1372.53 916.87 1372.53 677.01 1095.49 777.79"/>
          </g>
          <g id="_Repetición_de_cuadrícula_-23" data-name="&amp;lt;Repetición de cuadrícula&amp;gt;">
            <polygon class="cls-4" points="1372.53 977.87 1372.53 1217.74 1649.58 1116.95 1649.58 877.09 1372.53 977.87"/>
          </g>
          <g id="_Repetición_de_cuadrícula_-24" data-name="&amp;lt;Repetición de cuadrícula&amp;gt;">
            <polygon class="cls-4" points="1649.58 777.79 1649.58 1017.65 1926.62 916.87 1926.62 677.01 1649.58 777.79"/>
          </g>
          <g id="_Repetición_de_cuadrícula_-25" data-name="&amp;lt;Repetición de cuadrícula&amp;gt;">
            <polygon class="cls-4" points="264.35 1177.95 264.35 1417.82 -12.69 1317.04 -12.69 1077.17 264.35 1177.95"/>
          </g>
          <g id="_Repetición_de_cuadrícula_-26" data-name="&amp;lt;Repetición de cuadrícula&amp;gt;">
            <polygon class="cls-4" points="818.44 1177.95 818.44 1417.82 541.4 1317.04 541.4 1077.17 818.44 1177.95"/>
          </g>
          <g id="_Repetición_de_cuadrícula_-27" data-name="&amp;lt;Repetición de cuadrícula&amp;gt;">
            <polygon class="cls-4" points="1372.53 1177.95 1372.53 1417.82 1095.49 1317.04 1095.49 1077.17 1372.53 1177.95"/>
          </g>
          <g id="_Repetición_de_cuadrícula_-28" data-name="&amp;lt;Repetición de cuadrícula&amp;gt;">
            <polygon class="cls-4" points="1926.62 1177.95 1926.62 1417.82 1649.58 1317.04 1649.58 1077.17 1926.62 1177.95"/>
          </g>
        </g>
      </g>
    </g>
  </g>
  <g>
    <rect class="cls-8" x="-1973.41" y="1127.58" width="1920" height="1081"/>
    <g class="cls-3">
      <rect class="cls-8" x="-3010.18" y="569.17" width="3859.15" height="2173.31"/>
    </g>
  </g>
  <g class="cls-1">
    <g class="cls-2">
      <g>
        <path class="cls-8" d="M57.76,8.83H-494.98v-175.41L57.76-367.65V8.83Z"/>
        <path class="cls-8" d="M1163.25,8.83h-552.74v-175.41l552.74-201.07V8.83Z"/>
        <path class="cls-8" d="M2268.73,8.83h-552.74v-175.41l552.74-201.07V8.83Z"/>
        <path class="cls-8" d="M57.76,411.58H-494.98v-175.41L57.76,35.1v376.48Z"/>
        <path class="cls-8" d="M610.51,210.2H57.76V34.8l552.74-201.07V210.2Z"/>
        <path class="cls-8" d="M1163.25,411.58h-552.74v-175.41L1163.25,35.1v376.48Z"/>
        <path class="cls-8" d="M1715.99,210.2h-552.74V34.8l552.74-201.07V210.2Z"/>
        <path class="cls-8" d="M2268.73,411.58h-552.74v-175.41l552.74-201.07v376.48Z"/>
        <path class="cls-8" d="M57.76,814.33H-494.98v-175.41L57.76,437.85v376.48Z"/>
        <path class="cls-8" d="M610.51,612.95H57.76v-175.41l552.74-201.07v376.48Z"/>
        <path class="cls-8" d="M1163.25,814.33h-552.74v-175.41l552.74-201.07v376.48Z"/>
        <path class="cls-8" d="M1715.99,612.95h-552.74v-175.41l552.74-201.07v376.48Z"/>
        <path class="cls-8" d="M2268.73,814.33h-552.74v-175.41l552.74-201.07v376.48Z"/>
        <path class="cls-8" d="M610.51,1015.71H57.76v-175.41l552.74-201.07v376.48Z"/>
        <path class="cls-8" d="M1715.99,1015.71h-552.74v-175.41l552.74-201.07v376.48Z"/>
      </g>
    </g>
  </g>
  <g>
    <rect class="cls-14" y="1127.58" width="1920" height="1081"/>
    <g class="cls-11">
      <g class="cls-5">
        <g>
          <g id="_Repetición_de_cuadrícula_-29" data-name="&amp;lt;Repetición de cuadrícula&amp;gt;">
            <g>
              <polygon class="cls-8" points="414.17 880.33 414.17 673.92 154.73 768.3 154.73 880.33 414.17 880.33"/>
              <polygon class="cls-8" points="376.81 733.63 376.81 940.04 636.25 845.67 636.25 733.63 376.81 733.63"/>
            </g>
          </g>
          <g id="_Repetición_de_cuadrícula_-30" data-name="&amp;lt;Repetición de cuadrícula&amp;gt;">
            <g>
              <polygon class="cls-8" points="1377.21 880.33 1377.21 673.92 1117.77 768.3 1117.77 880.33 1377.21 880.33"/>
              <polygon class="cls-8" points="1339.85 733.63 1339.85 940.04 1599.29 845.67 1599.29 733.63 1339.85 733.63"/>
            </g>
          </g>
          <g id="_Repetición_de_cuadrícula_-31" data-name="&amp;lt;Repetición de cuadrícula&amp;gt;">
            <polygon class="cls-8" points="-104.71 880.2 -104.71 1086.61 154.73 992.23 154.73 880.2 -104.71 880.2"/>
          </g>
          <g id="_Repetición_de_cuadrícula_-32" data-name="&amp;lt;Repetición de cuadrícula&amp;gt;">
            <g>
              <polygon class="cls-8" points="414.17 1173.46 414.17 967.04 154.73 1061.42 154.73 1173.46 414.17 1173.46"/>
              <polygon class="cls-8" points="376.81 1026.76 376.81 1233.17 636.25 1138.79 636.25 1026.76 376.81 1026.76"/>
            </g>
          </g>
          <g id="_Repetición_de_cuadrícula_-33" data-name="&amp;lt;Repetición de cuadrícula&amp;gt;">
            <g>
              <polygon class="cls-8" points="895.69 1026.89 895.69 820.48 636.25 914.86 636.25 1026.89 895.69 1026.89"/>
              <polygon class="cls-8" points="858.33 880.2 858.33 1086.61 1117.77 992.23 1117.77 880.2 858.33 880.2"/>
            </g>
          </g>
          <g id="_Repetición_de_cuadrícula_-34" data-name="&amp;lt;Repetición de cuadrícula&amp;gt;">
            <g>
              <polygon class="cls-8" points="1377.21 1173.46 1377.21 967.04 1117.77 1061.42 1117.77 1173.46 1377.21 1173.46"/>
              <polygon class="cls-8" points="1339.85 1026.76 1339.85 1233.17 1599.29 1138.79 1599.29 1026.76 1339.85 1026.76"/>
            </g>
          </g>
          <g id="_Repetición_de_cuadrícula_-35" data-name="&amp;lt;Repetición de cuadrícula&amp;gt;">
            <g>
              <polygon class="cls-8" points="1858.73 1026.89 1858.73 820.48 1599.29 914.86 1599.29 1026.89 1858.73 1026.89"/>
              <polygon class="cls-8" points="1821.37 880.2 1821.37 1086.61 2080.81 992.23 2080.81 880.2 1821.37 880.2"/>
            </g>
          </g>
        </g>
      </g>
    </g>
  </g>
  <g>
    <rect class="cls-14" x="-1973.41" width="1920" height="1081"/>
    <g class="cls-6">
      <g class="cls-7">
        <g>
          <polygon class="cls-8" points="2225.07 117.36 2225.07 -86.69 1664.15 117.36 2225.07 117.36"/>
          <polygon class="cls-8" points="-18.6 117.36 -18.6 321.41 542.32 117.36 -18.6 117.36"/>
          <g>
            <polygon class="cls-8" points="1103.24 321.41 1103.24 117.36 542.32 321.41 1103.24 321.41"/>
            <polygon class="cls-8" points="1103.24 -86.69 1103.24 117.36 1664.15 -86.69 1103.24 -86.69"/>
          </g>
          <polygon class="cls-8" points="2225.07 525.46 2225.07 321.41 1664.15 525.46 2225.07 525.46"/>
          <polygon class="cls-8" points="-18.6 525.46 -18.6 729.51 542.32 525.46 -18.6 525.46"/>
          <g>
            <polygon class="cls-8" points="1103.24 729.51 1103.24 525.46 542.32 729.51 1103.24 729.51"/>
            <polygon class="cls-8" points="1103.24 321.41 1103.24 525.46 1664.15 321.41 1103.24 321.41"/>
          </g>
          <polygon class="cls-8" points="2225.07 933.56 2225.07 729.51 1664.15 933.56 2225.07 933.56"/>
          <polygon class="cls-8" points="-18.6 933.56 -18.6 1137.61 542.32 933.56 -18.6 933.56"/>
          <g>
            <polygon class="cls-8" points="1103.24 1137.61 1103.24 933.56 542.32 1137.61 1103.24 1137.61"/>
            <polygon class="cls-8" points="1103.24 729.51 1103.24 933.56 1664.15 729.51 1103.24 729.51"/>
          </g>
        </g>
      </g>
    </g>
  </g>
  <g>
    <rect class="cls-4" x="1967.91" width="1920" height="1081"/>
    <g class="cls-13">
      <g class="cls-16">
        <g>
          <g id="_Repetición_de_cuadrícula_-36" data-name="&amp;lt;Repetición de cuadrícula&amp;gt;">
            <g>
              <polygon class="cls-14" points="1992.82 112.62 1992.82 -93.72 1733.47 .63 1733.47 112.62 1992.82 112.62"/>
              <polygon class="cls-14" points="1917.11 35.03 1917.11 241.38 2176.46 147.03 2176.46 35.03 1917.11 35.03"/>
            </g>
          </g>
          <g id="_Repetición_de_cuadrícula_-37" data-name="&amp;lt;Repetición de cuadrícula&amp;gt;">
            <g>
              <polygon class="cls-14" points="1992.82 562.82 1992.82 356.47 1733.47 450.82 1733.47 562.82 1992.82 562.82"/>
              <polygon class="cls-14" points="1917.11 485.23 1917.11 691.57 2176.46 597.23 2176.46 485.23 1917.11 485.23"/>
            </g>
          </g>
          <g id="_Repetición_de_cuadrícula_-38" data-name="&amp;lt;Repetición de cuadrícula&amp;gt;">
            <g>
              <polygon class="cls-14" points="1992.82 1013.01 1992.82 806.67 1733.47 901.02 1733.47 1013.01 1992.82 1013.01"/>
              <polygon class="cls-14" points="1917.11 935.42 1917.11 1141.77 2176.46 1047.42 2176.46 935.42 1917.11 935.42"/>
            </g>
          </g>
        </g>
      </g>
    </g>
  </g>
</svg>