<?xml version="1.0" encoding="UTF-8"?>
<svg id="Capa_1" data-name="Capa 1" xmlns="http://www.w3.org/2000/svg" xmlns:xlink="http://www.w3.org/1999/xlink" viewBox="0 0 1920 1081">
  <defs>
    <style>
      .cls-1, .cls-2 {
        stroke: #f8b4a3;
      }

      .cls-1, .cls-2, .cls-3, .cls-4, .cls-5 {
        fill: none;
      }

      .cls-1, .cls-2, .cls-3, .cls-5 {
        stroke-miterlimit: 10;
      }

      .cls-6 {
        clip-path: url(#clippath-6);
      }

      .cls-7 {
        clip-path: url(#clippath-7);
      }

      .cls-8 {
        clip-path: url(#clippath-4);
      }

      .cls-9 {
        fill: #f8b4a3;
      }

      .cls-10 {
        clip-path: url(#clippath-9);
      }

      .cls-11 {
        clip-path: url(#clippath-10);
      }

      .cls-12 {
        fill: #4a453d;
      }

      .cls-2 {
        stroke-width: 2px;
      }

      .cls-3, .cls-5 {
        stroke: #e31837;
      }

      .cls-13 {
        fill: #5f0229;
      }

      .cls-5 {
        stroke-width: 1.33px;
      }

      .cls-14 {
        clip-path: url(#clippath-1);
      }

      .cls-15 {
        clip-path: url(#clippath-5);
      }

      .cls-16 {
        clip-path: url(#clippath-8);
      }

      .cls-17 {
        clip-path: url(#clippath-3);
      }

      .cls-18 {
        fill: #e31837;
      }

      .cls-19 {
        fill: #29251d;
      }

      .cls-20 {
        clip-path: url(#clippath-2);
      }

      .cls-21 {
        clip-path: url(#clippath);
      }
    </style>
    <clipPath id="clippath">
      <rect class="cls-4" y="0" width="1919.84" height="1081.17"/>
    </clipPath>
    <clipPath id="clippath-1">
      <rect class="cls-4" x="-666.35" y="-601.13" width="3252.69" height="2283.26"/>
    </clipPath>
    <clipPath id="clippath-2">
      <rect class="cls-13" x="-1967.39" y="1105.72" width="1920" height="1081"/>
    </clipPath>
    <clipPath id="clippath-3">
      <rect class="cls-4" x="-2020.13" y="814.2" width="2025.49" height="1664.03"/>
    </clipPath>
    <clipPath id="clippath-4">
      <rect class="cls-9" x="-1967.39" y="0" width="1920" height="1081"/>
    </clipPath>
    <clipPath id="clippath-5">
      <rect class="cls-4" x="-2863.2" y="-552.43" width="3906.29" height="2197.45"/>
    </clipPath>
    <clipPath id="clippath-6">
      <rect class="cls-13" x="-2.84" y="1105.72" width="1922.26" height="1080.26"/>
    </clipPath>
    <clipPath id="clippath-7">
      <rect class="cls-18" x="-2.77" y="-1111.67" width="1920" height="1081"/>
    </clipPath>
    <clipPath id="clippath-8">
      <rect class="cls-4" x="-575.33" y="-1465.44" width="3065.13" height="1788.54"/>
    </clipPath>
    <clipPath id="clippath-9">
      <rect class="cls-12" x="2665.75" y="1095.58" width="1920" height="1081"/>
    </clipPath>
    <clipPath id="clippath-10">
      <rect class="cls-4" x="694.15" y="-11.36" width="5858.15" height="3295.45"/>
    </clipPath>
  </defs>
  <rect class="cls-18" y="0" width="1920" height="1081"/>
  <g class="cls-21">
    <g class="cls-14">
      <g>
        <g id="_Repetición_de_cuadrícula_" data-name="&amp;lt;Repetición de cuadrícula&amp;gt;">
          <path class="cls-2" d="M227.96,29.48H-219.79v-161.53l447.75-162.88V29.48Z"/>
        </g>
        <g id="_Repetición_de_cuadrícula_-2" data-name="&amp;lt;Repetición de cuadrícula&amp;gt;">
          <path class="cls-2" d="M1125.83,29.48h-447.75v-161.53l447.75-162.88V29.48Z"/>
        </g>
        <g id="_Repetición_de_cuadrícula_-3" data-name="&amp;lt;Repetición de cuadrícula&amp;gt;">
          <path class="cls-2" d="M2023.7,29.48h-447.75v-161.53l447.75-162.88V29.48Z"/>
        </g>
        <g id="_Repetición_de_cuadrícula_-4" data-name="&amp;lt;Repetición de cuadrícula&amp;gt;">
          <path class="cls-2" d="M227.96,355.5H-219.79v-161.53L227.96,31.09v324.41Z"/>
        </g>
        <g id="_Repetición_de_cuadrícula_-5" data-name="&amp;lt;Repetición de cuadrícula&amp;gt;">
          <path class="cls-2" d="M676.89,192.49H229.15V30.96l447.75-162.88V192.49Z"/>
        </g>
        <g id="_Repetición_de_cuadrícula_-6" data-name="&amp;lt;Repetición de cuadrícula&amp;gt;">
          <path class="cls-2" d="M1125.83,355.5h-447.75v-161.53L1125.83,31.09v324.41Z"/>
        </g>
        <g id="_Repetición_de_cuadrícula_-7" data-name="&amp;lt;Repetición de cuadrícula&amp;gt;">
          <path class="cls-2" d="M1574.77,192.49h-447.75V30.96l447.75-162.88V192.49Z"/>
        </g>
        <g id="_Repetición_de_cuadrícula_-8" data-name="&amp;lt;Repetición de cuadrícula&amp;gt;">
          <path class="cls-2" d="M2023.7,355.5h-447.75v-161.53L2023.7,31.09v324.41Z"/>
        </g>
        <g id="_Repetición_de_cuadrícula_-9" data-name="&amp;lt;Repetición de cuadrícula&amp;gt;">
          <path class="cls-2" d="M227.96,681.53H-219.79v-161.53l447.75-162.88v324.41Z"/>
        </g>
        <g id="_Repetición_de_cuadrícula_-10" data-name="&amp;lt;Repetición de cuadrícula&amp;gt;">
          <path class="cls-2" d="M676.89,518.52H229.15v-161.53l447.75-162.88v324.41Z"/>
        </g>
        <g id="_Repetición_de_cuadrícula_-11" data-name="&amp;lt;Repetición de cuadrícula&amp;gt;">
          <path class="cls-2" d="M1125.83,681.53h-447.75v-161.53l447.75-162.88v324.41Z"/>
        </g>
        <g id="_Repetición_de_cuadrícula_-12" data-name="&amp;lt;Repetición de cuadrícula&amp;gt;">
          <path class="cls-2" d="M1574.77,518.52h-447.75v-161.53l447.75-162.88v324.41Z"/>
        </g>
        <g id="_Repetición_de_cuadrícula_-13" data-name="&amp;lt;Repetición de cuadrícula&amp;gt;">
          <path class="cls-2" d="M2023.7,681.53h-447.75v-161.53l447.75-162.88v324.41Z"/>
        </g>
        <g id="_Repetición_de_cuadrícula_-14" data-name="&amp;lt;Repetición de cuadrícula&amp;gt;">
          <path class="cls-2" d="M227.96,1007.56H-219.79v-161.53l447.75-162.88v324.41Z"/>
        </g>
        <g id="_Repetición_de_cuadrícula_-15" data-name="&amp;lt;Repetición de cuadrícula&amp;gt;">
          <path class="cls-2" d="M676.89,844.54H229.15v-161.53l447.75-162.88v324.41Z"/>
        </g>
        <g id="_Repetición_de_cuadrícula_-16" data-name="&amp;lt;Repetición de cuadrícula&amp;gt;">
          <path class="cls-2" d="M1125.83,1007.56h-447.75v-161.53l447.75-162.88v324.41Z"/>
        </g>
        <g id="_Repetición_de_cuadrícula_-17" data-name="&amp;lt;Repetición de cuadrícula&amp;gt;">
          <path class="cls-2" d="M1574.77,844.54h-447.75v-161.53l447.75-162.88v324.41Z"/>
        </g>
        <g id="_Repetición_de_cuadrícula_-18" data-name="&amp;lt;Repetición de cuadrícula&amp;gt;">
          <path class="cls-2" d="M2023.7,1007.56h-447.75v-161.53l447.75-162.88v324.41Z"/>
        </g>
        <g id="_Repetición_de_cuadrícula_-19" data-name="&amp;lt;Repetición de cuadrícula&amp;gt;">
          <path class="cls-2" d="M227.96,1333.58H-219.79v-161.53l447.75-162.88v324.41Z"/>
        </g>
        <g id="_Repetición_de_cuadrícula_-20" data-name="&amp;lt;Repetición de cuadrícula&amp;gt;">
          <path class="cls-2" d="M676.89,1170.57H229.15v-161.53l447.75-162.88v324.41Z"/>
        </g>
        <g id="_Repetición_de_cuadrícula_-21" data-name="&amp;lt;Repetición de cuadrícula&amp;gt;">
          <path class="cls-2" d="M1125.83,1333.58h-447.75v-161.53l447.75-162.88v324.41Z"/>
        </g>
        <g id="_Repetición_de_cuadrícula_-22" data-name="&amp;lt;Repetición de cuadrícula&amp;gt;">
          <path class="cls-2" d="M1574.77,1170.57h-447.75v-161.53l447.75-162.88v324.41Z"/>
        </g>
        <g id="_Repetición_de_cuadrícula_-23" data-name="&amp;lt;Repetición de cuadrícula&amp;gt;">
          <path class="cls-2" d="M2023.7,1333.58h-447.75v-161.53l447.75-162.88v324.41Z"/>
        </g>
      </g>
    </g>
  </g>
  <g>
    <rect class="cls-13" x="-1967.39" y="1105.72" width="1920" height="1081"/>
    <g class="cls-20">
      <g class="cls-17">
        <g>
          <g id="_Repetición_de_cuadrícula_-24" data-name="&amp;lt;Repetición de cuadrícula&amp;gt;">
            <polygon class="cls-3" points="210.7 750.55 210.7 621.79 -48.65 716.14 -48.65 828.14 134.99 828.14 134.99 956.89 394.34 862.54 394.34 750.55 210.7 750.55"/>
          </g>
          <g id="_Repetición_de_cuadrícula_-25" data-name="&amp;lt;Repetición de cuadrícula&amp;gt;">
            <polygon class="cls-3" points="-123.97 904.37 -123.97 775.62 -383.32 869.97 -383.32 981.96 -199.68 981.96 -199.68 1110.72 59.67 1016.37 59.67 904.37 -123.97 904.37"/>
          </g>
          <g id="_Repetición_de_cuadrícula_-26" data-name="&amp;lt;Repetición de cuadrícula&amp;gt;">
            <polygon class="cls-3" points="210.7 1058.2 210.7 929.45 -48.65 1023.79 -48.65 1135.79 134.99 1135.79 134.99 1264.54 394.34 1170.2 394.34 1058.2 210.7 1058.2"/>
          </g>
        </g>
      </g>
    </g>
  </g>
  <g>
    <rect class="cls-9" x="-1967.39" y="0" width="1920" height="1081"/>
    <g class="cls-8">
      <g class="cls-15">
        <g>
          <g id="_Repetición_de_cuadrícula_-27" data-name="&amp;lt;Repetición de cuadrícula&amp;gt;">
            <polygon class="cls-5" points="521.95 127.55 521.95 -8.51 147.93 127.55 521.95 127.55"/>
          </g>
          <g id="_Repetición_de_cuadrícula_-28" data-name="&amp;lt;Repetición de cuadrícula&amp;gt;">
            <polygon class="cls-5" points="-233.66 -7.85 -233.66 128.22 140.36 -7.85 -233.66 -7.85"/>
          </g>
          <g id="_Repetición_de_cuadrícula_-29" data-name="&amp;lt;Repetición de cuadrícula&amp;gt;">
            <g>
              <polygon class="cls-5" points="521.95 401.01 521.95 264.95 147.93 401.01 521.95 401.01"/>
              <polygon class="cls-5" points="521.95 128.88 521.95 264.95 895.98 128.88 521.95 128.88"/>
            </g>
          </g>
          <g id="_Repetición_de_cuadrícula_-30" data-name="&amp;lt;Repetición de cuadrícula&amp;gt;">
            <g>
              <polygon class="cls-5" points="1277.57 264.28 1277.57 128.22 903.55 264.28 1277.57 264.28"/>
              <polygon class="cls-5" points="1277.57 -7.85 1277.57 128.22 1651.6 -7.85 1277.57 -7.85"/>
            </g>
          </g>
          <g id="_Repetición_de_cuadrícula_-31" data-name="&amp;lt;Repetición de cuadrícula&amp;gt;">
            <polygon class="cls-5" points="-233.66 265.61 -233.66 401.68 140.36 265.61 -233.66 265.61"/>
          </g>
          <g id="_Repetición_de_cuadrícula_-32" data-name="&amp;lt;Repetición de cuadrícula&amp;gt;">
            <g>
              <polygon class="cls-5" points="521.95 674.47 521.95 538.4 147.93 674.47 521.95 674.47"/>
              <polygon class="cls-5" points="521.95 402.34 521.95 538.4 895.98 402.34 521.95 402.34"/>
            </g>
          </g>
          <g id="_Repetición_de_cuadrícula_-33" data-name="&amp;lt;Repetición de cuadrícula&amp;gt;">
            <g>
              <polygon class="cls-5" points="1277.57 537.74 1277.57 401.68 903.55 537.74 1277.57 537.74"/>
              <polygon class="cls-5" points="1277.57 265.61 1277.57 401.68 1651.6 265.61 1277.57 265.61"/>
            </g>
          </g>
          <g id="_Repetición_de_cuadrícula_-34" data-name="&amp;lt;Repetición de cuadrícula&amp;gt;">
            <polygon class="cls-5" points="-233.66 539.07 -233.66 675.13 140.36 539.07 -233.66 539.07"/>
          </g>
          <g id="_Repetición_de_cuadrícula_-35" data-name="&amp;lt;Repetición de cuadrícula&amp;gt;">
            <g>
              <polygon class="cls-5" points="521.95 947.93 521.95 811.86 147.93 947.93 521.95 947.93"/>
              <polygon class="cls-5" points="521.95 675.8 521.95 811.86 895.98 675.8 521.95 675.8"/>
            </g>
          </g>
          <g id="_Repetición_de_cuadrícula_-36" data-name="&amp;lt;Repetición de cuadrícula&amp;gt;">
            <g>
              <polygon class="cls-5" points="1277.57 811.2 1277.57 675.13 903.55 811.2 1277.57 811.2"/>
              <polygon class="cls-5" points="1277.57 539.07 1277.57 675.13 1651.6 539.07 1277.57 539.07"/>
            </g>
          </g>
          <g id="_Repetición_de_cuadrícula_-37" data-name="&amp;lt;Repetición de cuadrícula&amp;gt;">
            <polygon class="cls-5" points="-233.66 812.53 -233.66 948.59 140.36 812.53 -233.66 812.53"/>
          </g>
          <g id="_Repetición_de_cuadrícula_-38" data-name="&amp;lt;Repetición de cuadrícula&amp;gt;">
            <polygon class="cls-5" points="521.95 949.26 521.95 1085.32 895.98 949.26 521.95 949.26"/>
          </g>
          <g id="_Repetición_de_cuadrícula_-39" data-name="&amp;lt;Repetición de cuadrícula&amp;gt;">
            <g>
              <polygon class="cls-5" points="1277.57 1084.66 1277.57 948.59 903.55 1084.66 1277.57 1084.66"/>
              <polygon class="cls-5" points="1277.57 812.53 1277.57 948.59 1651.6 812.53 1277.57 812.53"/>
            </g>
          </g>
        </g>
      </g>
    </g>
  </g>
  <g>
    <rect class="cls-13" x="-2.84" y="1105.72" width="1922.26" height="1080.26"/>
    <g class="cls-6">
      <g>
        <g id="_Repetición_de_cuadrícula_-40" data-name="&amp;lt;Repetición de cuadrícula&amp;gt;">
          <g id="_Repetición_de_cuadrícula_-41" data-name="&amp;lt;Repetición de cuadrícula&amp;gt;">
            <path class="cls-1" d="M-2.96,980.61h320.08v101.57L-2.96,1198.62v-218.01Z"/>
          </g>
        </g>
        <g id="_Repetición_de_cuadrícula_-42" data-name="&amp;lt;Repetición de cuadrícula&amp;gt;">
          <g id="_Repetición_de_cuadrícula_-43" data-name="&amp;lt;Repetición de cuadrícula&amp;gt;">
            <path class="cls-1" d="M637.08,980.61h320.08v101.57l-320.08,116.44v-218.01Z"/>
          </g>
        </g>
        <g id="_Repetición_de_cuadrícula_-44" data-name="&amp;lt;Repetición de cuadrícula&amp;gt;">
          <g id="_Repetición_de_cuadrícula_-45" data-name="&amp;lt;Repetición de cuadrícula&amp;gt;">
            <path class="cls-1" d="M1277.13,980.61h320.08v101.57l-320.08,116.44v-218.01Z"/>
          </g>
        </g>
        <g id="_Repetición_de_cuadrícula_-46" data-name="&amp;lt;Repetición de cuadrícula&amp;gt;">
          <g id="_Repetición_de_cuadrícula_-47" data-name="&amp;lt;Repetición de cuadrícula&amp;gt;">
            <path class="cls-1" d="M1917.17,980.61h320.08v101.57l-320.08,116.44v-218.01Z"/>
          </g>
        </g>
      </g>
    </g>
  </g>
  <g>
    <rect class="cls-18" x="-2.77" y="-1111.67" width="1920" height="1081"/>
    <g class="cls-7">
      <g class="cls-16">
        <g>
          <g id="_Repetición_de_cuadrícula_-48" data-name="&amp;lt;Repetición de cuadrícula&amp;gt;">
            <polygon class="cls-13" points="137.7 133.93 137.7 403.75 -163.3 290.38 -163.3 20.56 137.7 133.93"/>
          </g>
          <g id="_Repetición_de_cuadrícula_-49" data-name="&amp;lt;Repetición de cuadrícula&amp;gt;">
            <g>
              <polygon class="cls-13" points=".36 -135.77 .36 134.06 301.36 20.69 301.36 -249.14 .36 -135.77"/>
              <polygon class="cls-13" points="602.36 133.93 602.36 403.75 301.36 290.38 301.36 20.56 602.36 133.93"/>
            </g>
          </g>
          <g id="_Repetición_de_cuadrícula_-50" data-name="&amp;lt;Repetición de cuadrícula&amp;gt;">
            <g>
              <polygon class="cls-13" points="465.02 -135.77 465.02 134.06 766.03 20.69 766.03 -249.14 465.02 -135.77"/>
              <polygon class="cls-13" points="1067.03 133.93 1067.03 403.75 766.03 290.38 766.03 20.56 1067.03 133.93"/>
            </g>
          </g>
          <g id="_Repetición_de_cuadrícula_-51" data-name="&amp;lt;Repetición de cuadrícula&amp;gt;">
            <g>
              <polygon class="cls-13" points="929.69 -135.77 929.69 134.06 1230.69 20.69 1230.69 -249.14 929.69 -135.77"/>
              <polygon class="cls-13" points="1531.69 133.93 1531.69 403.75 1230.69 290.38 1230.69 20.56 1531.69 133.93"/>
            </g>
          </g>
          <g id="_Repetición_de_cuadrícula_-52" data-name="&amp;lt;Repetición de cuadrícula&amp;gt;">
            <g>
              <polygon class="cls-13" points="1394.35 -135.77 1394.35 134.06 1695.35 20.69 1695.35 -249.14 1394.35 -135.77"/>
              <polygon class="cls-13" points="1996.36 133.93 1996.36 403.75 1695.35 290.38 1695.35 20.56 1996.36 133.93"/>
            </g>
          </g>
          <g id="_Repetición_de_cuadrícula_-53" data-name="&amp;lt;Repetición de cuadrícula&amp;gt;">
            <polygon class="cls-13" points="1859.01 -135.77 1859.01 134.06 2160.02 20.69 2160.02 -249.14 1859.01 -135.77"/>
          </g>
        </g>
      </g>
    </g>
  </g>
  <g>
    <rect class="cls-12" x="2665.75" y="1095.58" width="1920" height="1081"/>
    <g class="cls-10">
      <g class="cls-11">
        <g>
          <g>
            <polygon class="cls-19" points="133.24 396.74 133.24 192.69 -427.68 396.74 133.24 396.74"/>
            <polygon class="cls-19" points="133.24 -11.36 133.24 192.69 694.15 -11.36 133.24 -11.36"/>
          </g>
          <polygon class="cls-19" points="1255.07 192.69 1255.07 -11.36 694.15 192.69 1255.07 192.69"/>
          <polygon class="cls-19" points="2376.9 396.74 2376.9 192.69 1815.98 396.74 2376.9 396.74"/>
          <g>
            <polygon class="cls-19" points="133.24 804.84 133.24 600.79 -427.68 804.84 133.24 804.84"/>
            <polygon class="cls-19" points="133.24 396.74 133.24 600.79 694.15 396.74 133.24 396.74"/>
          </g>
          <g>
            <polygon class="cls-19" points="1255.07 600.79 1255.07 396.74 694.15 600.79 1255.07 600.79"/>
            <polygon class="cls-19" points="1255.07 192.69 1255.07 396.74 1815.98 192.69 1255.07 192.69"/>
          </g>
          <polygon class="cls-19" points="2376.9 804.84 2376.9 600.79 1815.98 804.84 2376.9 804.84"/>
          <g>
            <polygon class="cls-19" points="133.24 1212.94 133.24 1008.89 -427.68 1212.94 133.24 1212.94"/>
            <polygon class="cls-19" points="133.24 804.84 133.24 1008.89 694.15 804.84 133.24 804.84"/>
          </g>
          <g>
            <polygon class="cls-19" points="1255.07 1008.89 1255.07 804.84 694.15 1008.89 1255.07 1008.89"/>
            <polygon class="cls-19" points="1255.07 600.79 1255.07 804.84 1815.98 600.79 1255.07 600.79"/>
          </g>
          <polygon class="cls-19" points="2376.9 1212.94 2376.9 1008.89 1815.98 1212.94 2376.9 1212.94"/>
          <polygon class="cls-19" points="1255.07 1008.89 1255.07 1212.94 1815.98 1008.89 1255.07 1008.89"/>
        </g>
      </g>
    </g>
  </g>
</svg>