<?xml version="1.0" encoding="UTF-8"?>
<svg id="Capa_1" data-name="Capa 1" xmlns="http://www.w3.org/2000/svg" xmlns:xlink="http://www.w3.org/1999/xlink" viewBox="0 0 1920 1081">
  <defs>
    <style>
      .cls-1 {
        clip-path: url(#clippath-6);
      }

      .cls-2 {
        clip-path: url(#clippath-7);
      }

      .cls-3 {
        fill: #e5dfd3;
      }

      .cls-4 {
        clip-path: url(#clippath-4);
      }

      .cls-5 {
        stroke: #f6f2ea;
      }

      .cls-5, .cls-6, .cls-7, .cls-8, .cls-9, .cls-10 {
        fill: none;
      }

      .cls-5, .cls-7, .cls-8, .cls-9, .cls-11, .cls-10 {
        stroke-miterlimit: 10;
      }

      .cls-5, .cls-11 {
        stroke-width: 3px;
      }

      .cls-12 {
        clip-path: url(#clippath-9);
      }

      .cls-13 {
        clip-path: url(#clippath-10);
      }

      .cls-14 {
        fill: #fff;
      }

      .cls-15 {
        clip-path: url(#clippath-11);
      }

      .cls-16 {
        clip-path: url(#clippath-1);
      }

      .cls-7 {
        stroke-width: 5.14px;
      }

      .cls-7, .cls-8, .cls-9 {
        stroke: #fff;
      }

      .cls-17 {
        clip-path: url(#clippath-5);
      }

      .cls-18 {
        clip-path: url(#clippath-8);
      }

      .cls-19 {
        clip-path: url(#clippath-3);
      }

      .cls-20, .cls-11 {
        fill: #f6f2ea;
      }

      .cls-8 {
        stroke-width: 10.28px;
      }

      .cls-21 {
        clip-path: url(#clippath-12);
      }

      .cls-22 {
        clip-path: url(#clippath-14);
      }

      .cls-9 {
        stroke-width: 1.29px;
      }

      .cls-11, .cls-10 {
        stroke: #e5dfd3;
      }

      .cls-23 {
        clip-path: url(#clippath-2);
      }

      .cls-24 {
        clip-path: url(#clippath-13);
      }

      .cls-25 {
        clip-path: url(#clippath);
      }

      .cls-10 {
        stroke-width: 2px;
      }
    </style>
    <clipPath id="clippath">
      <rect class="cls-3" y="-1127.58" width="1920" height="1081"/>
    </clipPath>
    <clipPath id="clippath-1">
      <rect class="cls-6" x="-84.11" y="-1255.25" width="2234.38" height="1336.34"/>
    </clipPath>
    <clipPath id="clippath-2">
      <rect class="cls-3" x="1959.18" y="1109.68" width="1920" height="1081"/>
    </clipPath>
    <clipPath id="clippath-3">
      <rect class="cls-6" x="1386.62" y="755.91" width="3065.13" height="1788.54"/>
    </clipPath>
    <clipPath id="clippath-4">
      <rect class="cls-3" x="1939.59" y="-1127.58" width="1920" height="1081"/>
    </clipPath>
    <clipPath id="clippath-5">
      <rect class="cls-6" x="1649.86" y="-1221.14" width="2499.47" height="1268.13"/>
    </clipPath>
    <clipPath id="clippath-6">
      <rect class="cls-3" x="-.41" y="1109.68" width="1919.84" height="1081.17"/>
    </clipPath>
    <clipPath id="clippath-7">
      <rect class="cls-6" x="-1048.12" y="240.84" width="4015.43" height="2818.67"/>
    </clipPath>
    <clipPath id="clippath-8">
      <rect class="cls-14" width="1920" height="1081"/>
    </clipPath>
    <clipPath id="clippath-9">
      <rect class="cls-6" x="-1030.37" y="-574.08" width="3963.69" height="2229.74"/>
    </clipPath>
    <clipPath id="clippath-10">
      <rect class="cls-6" x="-12.39" y="-.1" width="1920.78" height="1081.2"/>
    </clipPath>
    <clipPath id="clippath-11">
      <rect class="cls-6" x="1955.33" width="1922.66" height="1081.58"/>
    </clipPath>
    <clipPath id="clippath-12">
      <path class="cls-6" d="M1959.19,2226.49l1920,.53-1920,697.92v-698.45Z"/>
    </clipPath>
    <clipPath id="clippath-13">
      <polygon class="cls-6" points="1959.19 2922.37 1959.19 3281.84 3879.18 2583.92 3879.18 2224.45 1959.19 2922.37"/>
    </clipPath>
    <clipPath id="clippath-14">
      <polygon class="cls-6" points="1959.18 3281.84 1959.18 3305.11 3879.18 3305.64 3879.18 2583.92 1959.18 3281.84"/>
    </clipPath>
  </defs>
  <g>
    <rect class="cls-3" y="-1127.58" width="1920" height="1081"/>
    <g class="cls-25">
      <g class="cls-16">
        <g>
          <g id="_Repetición_de_cuadrícula_" data-name="&amp;lt;Repetición de cuadrícula&amp;gt;">
            <polygon class="cls-20" points="-84.11 -263.82 -84.11 191.53 157.67 103.58 157.67 -351.78 -84.11 -263.82"/>
          </g>
          <g id="_Repetición_de_cuadrícula_-2" data-name="&amp;lt;Repetición de cuadrícula&amp;gt;">
            <polygon class="cls-20" points="399.46 -263.82 399.46 191.53 641.24 103.58 641.24 -351.78 399.46 -263.82"/>
          </g>
          <g id="_Repetición_de_cuadrícula_-3" data-name="&amp;lt;Repetición de cuadrícula&amp;gt;">
            <polygon class="cls-20" points="883.03 -263.82 883.03 191.53 1124.82 103.58 1124.82 -351.78 883.03 -263.82"/>
          </g>
          <g id="_Repetición_de_cuadrícula_-4" data-name="&amp;lt;Repetición de cuadrícula&amp;gt;">
            <polygon class="cls-20" points="1366.6 -263.82 1366.6 191.53 1608.39 103.58 1608.39 -351.78 1366.6 -263.82"/>
          </g>
          <g id="_Repetición_de_cuadrícula_-5" data-name="&amp;lt;Repetición de cuadrícula&amp;gt;">
            <polygon class="cls-20" points="1850.17 -263.82 1850.17 191.53 2091.96 103.58 2091.96 -351.78 1850.17 -263.82"/>
          </g>
          <g id="_Repetición_de_cuadrícula_-6" data-name="&amp;lt;Repetición de cuadrícula&amp;gt;">
            <polygon class="cls-20" points="157.67 2.33 157.67 457.69 399.46 369.73 399.46 -85.62 157.67 2.33"/>
          </g>
          <g id="_Repetición_de_cuadrícula_-7" data-name="&amp;lt;Repetición de cuadrícula&amp;gt;">
            <polygon class="cls-20" points="641.24 2.33 641.24 457.69 883.03 369.73 883.03 -85.62 641.24 2.33"/>
          </g>
          <g id="_Repetición_de_cuadrícula_-8" data-name="&amp;lt;Repetición de cuadrícula&amp;gt;">
            <polygon class="cls-20" points="1124.82 2.33 1124.82 457.69 1366.6 369.73 1366.6 -85.62 1124.82 2.33"/>
          </g>
          <g id="_Repetición_de_cuadrícula_-9" data-name="&amp;lt;Repetición de cuadrícula&amp;gt;">
            <polygon class="cls-20" points="1608.39 2.33 1608.39 457.69 1850.17 369.73 1850.17 -85.62 1608.39 2.33"/>
          </g>
        </g>
      </g>
    </g>
  </g>
  <g>
    <rect class="cls-3" x="1959.18" y="1109.68" width="1920" height="1081"/>
    <g class="cls-23">
      <g class="cls-19">
        <g>
          <g id="_Repetición_de_cuadrícula_-10" data-name="&amp;lt;Repetición de cuadrícula&amp;gt;">
            <g>
              <polygon class="cls-5" points="1020.98 836.02 1020.98 1105.84 1321.99 992.47 1321.99 722.65 1020.98 836.02"/>
              <polygon class="cls-5" points="1622.99 1105.71 1622.99 1375.54 1321.99 1262.17 1321.99 992.34 1622.99 1105.71"/>
            </g>
          </g>
          <g id="_Repetición_de_cuadrícula_-11" data-name="&amp;lt;Repetición de cuadrícula&amp;gt;">
            <g>
              <polygon class="cls-5" points="1488.65 836.02 1488.65 1105.84 1789.65 992.47 1789.65 722.65 1488.65 836.02"/>
              <polygon class="cls-5" points="2090.66 1105.71 2090.66 1375.54 1789.65 1262.17 1789.65 992.34 2090.66 1105.71"/>
            </g>
          </g>
        </g>
      </g>
    </g>
  </g>
  <g>
    <rect class="cls-3" x="1939.59" y="-1127.58" width="1920" height="1081"/>
    <g class="cls-4">
      <g class="cls-17">
        <g>
          <g id="_Repetición_de_cuadrícula_-12" data-name="&amp;lt;Repetición de cuadrícula&amp;gt;">
            <polygon class="cls-20" points="1649.86 50.37 1649.86 290.24 1372.81 189.46 1372.81 -50.41 1649.86 50.37"/>
          </g>
          <g id="_Repetición_de_cuadrícula_-13" data-name="&amp;lt;Repetición de cuadrícula&amp;gt;">
            <polygon class="cls-20" points="1926.9 -149.71 1926.9 90.16 1649.86 -10.63 1649.86 -250.49 1926.9 -149.71"/>
          </g>
        </g>
      </g>
    </g>
  </g>
  <g>
    <rect class="cls-3" x="-.41" y="1109.68" width="1919.84" height="1081.17"/>
    <g class="cls-1">
      <g class="cls-2">
        <g>
          <g id="_Repetición_de_cuadrícula_-14" data-name="&amp;lt;Repetición de cuadrícula&amp;gt;">
            <path class="cls-20" d="M333.73,618.49H-219.01v-175.41L333.73,242.01v376.48Z"/>
          </g>
          <g id="_Repetición_de_cuadrícula_-15" data-name="&amp;lt;Repetición de cuadrícula&amp;gt;">
            <path class="cls-20" d="M886.47,618.49H333.73v-175.41l552.74-201.07v376.48Z"/>
          </g>
          <g id="_Repetición_de_cuadrícula_-16" data-name="&amp;lt;Repetición de cuadrícula&amp;gt;">
            <path class="cls-20" d="M1439.21,618.49h-552.74v-175.41l552.74-201.07v376.48Z"/>
          </g>
          <g id="_Repetición_de_cuadrícula_-17" data-name="&amp;lt;Repetición de cuadrícula&amp;gt;">
            <path class="cls-20" d="M1991.95,618.49h-552.74v-175.41l552.74-201.07v376.48Z"/>
          </g>
          <g id="_Repetición_de_cuadrícula_-18" data-name="&amp;lt;Repetición de cuadrícula&amp;gt;">
            <path class="cls-20" d="M57.36,1054.97H-495.38v-175.41L57.36,678.49v376.48Z"/>
          </g>
          <g id="_Repetición_de_cuadrícula_-19" data-name="&amp;lt;Repetición de cuadrícula&amp;gt;">
            <path class="cls-20" d="M610.1,1054.97H57.36v-175.41l552.74-201.07v376.48Z"/>
          </g>
          <g id="_Repetición_de_cuadrícula_-20" data-name="&amp;lt;Repetición de cuadrícula&amp;gt;">
            <path class="cls-20" d="M1162.84,1054.97h-552.74v-175.41l552.74-201.07v376.48Z"/>
          </g>
          <g id="_Repetición_de_cuadrícula_-21" data-name="&amp;lt;Repetición de cuadrícula&amp;gt;">
            <path class="cls-20" d="M1715.58,1054.97h-552.74v-175.41l552.74-201.07v376.48Z"/>
          </g>
          <g id="_Repetición_de_cuadrícula_-22" data-name="&amp;lt;Repetición de cuadrícula&amp;gt;">
            <path class="cls-20" d="M2268.32,1054.97h-552.74v-175.41l552.74-201.07v376.48Z"/>
          </g>
        </g>
      </g>
    </g>
  </g>
  <g>
    <rect class="cls-14" width="1920" height="1081"/>
    <g class="cls-18">
      <g class="cls-12">
        <g class="cls-13">
          <g>
            <g id="_Repetición_de_cuadrícula_-23" data-name="&amp;lt;Repetición de cuadrícula&amp;gt;">
              <line class="cls-10" x1="5.95" y1="-.1" x2="5.95" y2="1080.9"/>
            </g>
            <g id="_Repetición_de_cuadrícula_-24" data-name="&amp;lt;Repetición de cuadrícula&amp;gt;">
              <line class="cls-10" x1="53.61" y1="-.1" x2="53.61" y2="1080.9"/>
            </g>
            <g id="_Repetición_de_cuadrícula_-25" data-name="&amp;lt;Repetición de cuadrícula&amp;gt;">
              <line class="cls-10" x1="101.28" y1="-.1" x2="101.28" y2="1080.9"/>
            </g>
            <g id="_Repetición_de_cuadrícula_-26" data-name="&amp;lt;Repetición de cuadrícula&amp;gt;">
              <line class="cls-10" x1="148.94" y1="-.1" x2="148.94" y2="1080.9"/>
            </g>
            <g id="_Repetición_de_cuadrícula_-27" data-name="&amp;lt;Repetición de cuadrícula&amp;gt;">
              <line class="cls-10" x1="196.61" y1="-.1" x2="196.61" y2="1080.9"/>
            </g>
            <g id="_Repetición_de_cuadrícula_-28" data-name="&amp;lt;Repetición de cuadrícula&amp;gt;">
              <line class="cls-10" x1="244.28" y1="-.1" x2="244.28" y2="1080.9"/>
            </g>
            <g id="_Repetición_de_cuadrícula_-29" data-name="&amp;lt;Repetición de cuadrícula&amp;gt;">
              <line class="cls-10" x1="291.94" y1="-.1" x2="291.94" y2="1080.9"/>
            </g>
            <g id="_Repetición_de_cuadrícula_-30" data-name="&amp;lt;Repetición de cuadrícula&amp;gt;">
              <line class="cls-10" x1="339.61" y1="-.1" x2="339.61" y2="1080.9"/>
            </g>
            <g id="_Repetición_de_cuadrícula_-31" data-name="&amp;lt;Repetición de cuadrícula&amp;gt;">
              <line class="cls-10" x1="387.27" y1="-.1" x2="387.27" y2="1080.9"/>
            </g>
            <g id="_Repetición_de_cuadrícula_-32" data-name="&amp;lt;Repetición de cuadrícula&amp;gt;">
              <line class="cls-10" x1="434.94" y1="-.1" x2="434.94" y2="1080.9"/>
            </g>
            <g id="_Repetición_de_cuadrícula_-33" data-name="&amp;lt;Repetición de cuadrícula&amp;gt;">
              <line class="cls-10" x1="482.61" y1="-.1" x2="482.61" y2="1080.9"/>
            </g>
            <g id="_Repetición_de_cuadrícula_-34" data-name="&amp;lt;Repetición de cuadrícula&amp;gt;">
              <line class="cls-10" x1="530.27" y1="-.1" x2="530.27" y2="1080.9"/>
            </g>
            <g id="_Repetición_de_cuadrícula_-35" data-name="&amp;lt;Repetición de cuadrícula&amp;gt;">
              <line class="cls-10" x1="577.94" y1="-.1" x2="577.94" y2="1080.9"/>
            </g>
            <g id="_Repetición_de_cuadrícula_-36" data-name="&amp;lt;Repetición de cuadrícula&amp;gt;">
              <line class="cls-10" x1="625.6" y1="-.1" x2="625.6" y2="1080.9"/>
            </g>
            <g id="_Repetición_de_cuadrícula_-37" data-name="&amp;lt;Repetición de cuadrícula&amp;gt;">
              <line class="cls-10" x1="673.27" y1="-.1" x2="673.27" y2="1080.9"/>
            </g>
            <g id="_Repetición_de_cuadrícula_-38" data-name="&amp;lt;Repetición de cuadrícula&amp;gt;">
              <line class="cls-10" x1="720.94" y1="-.1" x2="720.94" y2="1080.9"/>
            </g>
            <g id="_Repetición_de_cuadrícula_-39" data-name="&amp;lt;Repetición de cuadrícula&amp;gt;">
              <line class="cls-10" x1="768.6" y1="-.1" x2="768.6" y2="1080.9"/>
            </g>
            <g id="_Repetición_de_cuadrícula_-40" data-name="&amp;lt;Repetición de cuadrícula&amp;gt;">
              <line class="cls-10" x1="816.27" y1="-.1" x2="816.27" y2="1080.9"/>
            </g>
            <g id="_Repetición_de_cuadrícula_-41" data-name="&amp;lt;Repetición de cuadrícula&amp;gt;">
              <line class="cls-10" x1="863.93" y1="-.1" x2="863.93" y2="1080.9"/>
            </g>
            <g id="_Repetición_de_cuadrícula_-42" data-name="&amp;lt;Repetición de cuadrícula&amp;gt;">
              <line class="cls-10" x1="911.6" y1="-.1" x2="911.6" y2="1080.9"/>
            </g>
            <g id="_Repetición_de_cuadrícula_-43" data-name="&amp;lt;Repetición de cuadrícula&amp;gt;">
              <line class="cls-10" x1="959.27" y1="-.1" x2="959.27" y2="1080.9"/>
            </g>
            <g id="_Repetición_de_cuadrícula_-44" data-name="&amp;lt;Repetición de cuadrícula&amp;gt;">
              <line class="cls-10" x1="1006.93" y1="-.1" x2="1006.93" y2="1080.9"/>
            </g>
            <g id="_Repetición_de_cuadrícula_-45" data-name="&amp;lt;Repetición de cuadrícula&amp;gt;">
              <line class="cls-10" x1="1054.6" y1="-.1" x2="1054.6" y2="1080.9"/>
            </g>
            <g id="_Repetición_de_cuadrícula_-46" data-name="&amp;lt;Repetición de cuadrícula&amp;gt;">
              <line class="cls-10" x1="1102.26" y1="-.1" x2="1102.26" y2="1080.9"/>
            </g>
            <g id="_Repetición_de_cuadrícula_-47" data-name="&amp;lt;Repetición de cuadrícula&amp;gt;">
              <line class="cls-10" x1="1149.93" y1="-.1" x2="1149.93" y2="1080.9"/>
            </g>
            <g id="_Repetición_de_cuadrícula_-48" data-name="&amp;lt;Repetición de cuadrícula&amp;gt;">
              <line class="cls-10" x1="1197.59" y1="-.1" x2="1197.59" y2="1080.9"/>
            </g>
            <g id="_Repetición_de_cuadrícula_-49" data-name="&amp;lt;Repetición de cuadrícula&amp;gt;">
              <line class="cls-10" x1="1245.26" y1="-.1" x2="1245.26" y2="1080.9"/>
            </g>
            <g id="_Repetición_de_cuadrícula_-50" data-name="&amp;lt;Repetición de cuadrícula&amp;gt;">
              <line class="cls-10" x1="1292.93" y1="-.1" x2="1292.93" y2="1080.9"/>
            </g>
            <g id="_Repetición_de_cuadrícula_-51" data-name="&amp;lt;Repetición de cuadrícula&amp;gt;">
              <line class="cls-10" x1="1340.59" y1="-.1" x2="1340.59" y2="1080.9"/>
            </g>
            <g id="_Repetición_de_cuadrícula_-52" data-name="&amp;lt;Repetición de cuadrícula&amp;gt;">
              <line class="cls-10" x1="1388.26" y1="-.1" x2="1388.26" y2="1080.9"/>
            </g>
            <g id="_Repetición_de_cuadrícula_-53" data-name="&amp;lt;Repetición de cuadrícula&amp;gt;">
              <line class="cls-10" x1="1435.92" y1="-.1" x2="1435.92" y2="1080.9"/>
            </g>
            <g id="_Repetición_de_cuadrícula_-54" data-name="&amp;lt;Repetición de cuadrícula&amp;gt;">
              <line class="cls-10" x1="1483.59" y1="-.1" x2="1483.59" y2="1080.9"/>
            </g>
            <g id="_Repetición_de_cuadrícula_-55" data-name="&amp;lt;Repetición de cuadrícula&amp;gt;">
              <line class="cls-10" x1="1531.26" y1="-.1" x2="1531.26" y2="1080.9"/>
            </g>
            <g id="_Repetición_de_cuadrícula_-56" data-name="&amp;lt;Repetición de cuadrícula&amp;gt;">
              <line class="cls-10" x1="1578.92" y1="-.1" x2="1578.92" y2="1080.9"/>
            </g>
            <g id="_Repetición_de_cuadrícula_-57" data-name="&amp;lt;Repetición de cuadrícula&amp;gt;">
              <line class="cls-10" x1="1626.59" y1="-.1" x2="1626.59" y2="1080.9"/>
            </g>
            <g id="_Repetición_de_cuadrícula_-58" data-name="&amp;lt;Repetición de cuadrícula&amp;gt;">
              <line class="cls-10" x1="1674.25" y1="-.1" x2="1674.25" y2="1080.9"/>
            </g>
            <g id="_Repetición_de_cuadrícula_-59" data-name="&amp;lt;Repetición de cuadrícula&amp;gt;">
              <line class="cls-10" x1="1721.92" y1="-.1" x2="1721.92" y2="1080.9"/>
            </g>
            <g id="_Repetición_de_cuadrícula_-60" data-name="&amp;lt;Repetición de cuadrícula&amp;gt;">
              <line class="cls-10" x1="1769.59" y1="-.1" x2="1769.59" y2="1080.9"/>
            </g>
            <g id="_Repetición_de_cuadrícula_-61" data-name="&amp;lt;Repetición de cuadrícula&amp;gt;">
              <line class="cls-10" x1="1817.25" y1="-.1" x2="1817.25" y2="1080.9"/>
            </g>
            <g id="_Repetición_de_cuadrícula_-62" data-name="&amp;lt;Repetición de cuadrícula&amp;gt;">
              <line class="cls-10" x1="1864.92" y1="-.1" x2="1864.92" y2="1080.9"/>
            </g>
            <g id="_Repetición_de_cuadrícula_-63" data-name="&amp;lt;Repetición de cuadrícula&amp;gt;">
              <line class="cls-10" x1="5.95" y1="1080.9" x2="5.95" y2="2161.9"/>
            </g>
            <g id="_Repetición_de_cuadrícula_-64" data-name="&amp;lt;Repetición de cuadrícula&amp;gt;">
              <line class="cls-10" x1="53.61" y1="1080.9" x2="53.61" y2="2161.9"/>
            </g>
            <g id="_Repetición_de_cuadrícula_-65" data-name="&amp;lt;Repetición de cuadrícula&amp;gt;">
              <line class="cls-10" x1="101.28" y1="1080.9" x2="101.28" y2="2161.9"/>
            </g>
            <g id="_Repetición_de_cuadrícula_-66" data-name="&amp;lt;Repetición de cuadrícula&amp;gt;">
              <line class="cls-10" x1="148.94" y1="1080.9" x2="148.94" y2="2161.9"/>
            </g>
            <g id="_Repetición_de_cuadrícula_-67" data-name="&amp;lt;Repetición de cuadrícula&amp;gt;">
              <line class="cls-10" x1="196.61" y1="1080.9" x2="196.61" y2="2161.9"/>
            </g>
            <g id="_Repetición_de_cuadrícula_-68" data-name="&amp;lt;Repetición de cuadrícula&amp;gt;">
              <line class="cls-10" x1="244.28" y1="1080.9" x2="244.28" y2="2161.9"/>
            </g>
            <g id="_Repetición_de_cuadrícula_-69" data-name="&amp;lt;Repetición de cuadrícula&amp;gt;">
              <line class="cls-10" x1="291.94" y1="1080.9" x2="291.94" y2="2161.9"/>
            </g>
            <g id="_Repetición_de_cuadrícula_-70" data-name="&amp;lt;Repetición de cuadrícula&amp;gt;">
              <line class="cls-10" x1="339.61" y1="1080.9" x2="339.61" y2="2161.9"/>
            </g>
            <g id="_Repetición_de_cuadrícula_-71" data-name="&amp;lt;Repetición de cuadrícula&amp;gt;">
              <line class="cls-10" x1="387.27" y1="1080.9" x2="387.27" y2="2161.9"/>
            </g>
            <g id="_Repetición_de_cuadrícula_-72" data-name="&amp;lt;Repetición de cuadrícula&amp;gt;">
              <line class="cls-10" x1="434.94" y1="1080.9" x2="434.94" y2="2161.9"/>
            </g>
            <g id="_Repetición_de_cuadrícula_-73" data-name="&amp;lt;Repetición de cuadrícula&amp;gt;">
              <line class="cls-10" x1="482.61" y1="1080.9" x2="482.61" y2="2161.9"/>
            </g>
            <g id="_Repetición_de_cuadrícula_-74" data-name="&amp;lt;Repetición de cuadrícula&amp;gt;">
              <line class="cls-10" x1="530.27" y1="1080.9" x2="530.27" y2="2161.9"/>
            </g>
            <g id="_Repetición_de_cuadrícula_-75" data-name="&amp;lt;Repetición de cuadrícula&amp;gt;">
              <line class="cls-10" x1="577.94" y1="1080.9" x2="577.94" y2="2161.9"/>
            </g>
            <g id="_Repetición_de_cuadrícula_-76" data-name="&amp;lt;Repetición de cuadrícula&amp;gt;">
              <line class="cls-10" x1="625.6" y1="1080.9" x2="625.6" y2="2161.9"/>
            </g>
            <g id="_Repetición_de_cuadrícula_-77" data-name="&amp;lt;Repetición de cuadrícula&amp;gt;">
              <line class="cls-10" x1="673.27" y1="1080.9" x2="673.27" y2="2161.9"/>
            </g>
            <g id="_Repetición_de_cuadrícula_-78" data-name="&amp;lt;Repetición de cuadrícula&amp;gt;">
              <line class="cls-10" x1="720.94" y1="1080.9" x2="720.94" y2="2161.9"/>
            </g>
            <g id="_Repetición_de_cuadrícula_-79" data-name="&amp;lt;Repetición de cuadrícula&amp;gt;">
              <line class="cls-10" x1="768.6" y1="1080.9" x2="768.6" y2="2161.9"/>
            </g>
            <g id="_Repetición_de_cuadrícula_-80" data-name="&amp;lt;Repetición de cuadrícula&amp;gt;">
              <line class="cls-10" x1="816.27" y1="1080.9" x2="816.27" y2="2161.9"/>
            </g>
            <g id="_Repetición_de_cuadrícula_-81" data-name="&amp;lt;Repetición de cuadrícula&amp;gt;">
              <line class="cls-10" x1="863.93" y1="1080.9" x2="863.93" y2="2161.9"/>
            </g>
            <g id="_Repetición_de_cuadrícula_-82" data-name="&amp;lt;Repetición de cuadrícula&amp;gt;">
              <line class="cls-10" x1="911.6" y1="1080.9" x2="911.6" y2="2161.9"/>
            </g>
            <g id="_Repetición_de_cuadrícula_-83" data-name="&amp;lt;Repetición de cuadrícula&amp;gt;">
              <line class="cls-10" x1="959.27" y1="1080.9" x2="959.27" y2="2161.9"/>
            </g>
            <g id="_Repetición_de_cuadrícula_-84" data-name="&amp;lt;Repetición de cuadrícula&amp;gt;">
              <line class="cls-10" x1="1006.93" y1="1080.9" x2="1006.93" y2="2161.9"/>
            </g>
            <g id="_Repetición_de_cuadrícula_-85" data-name="&amp;lt;Repetición de cuadrícula&amp;gt;">
              <line class="cls-10" x1="1054.6" y1="1080.9" x2="1054.6" y2="2161.9"/>
            </g>
            <g id="_Repetición_de_cuadrícula_-86" data-name="&amp;lt;Repetición de cuadrícula&amp;gt;">
              <line class="cls-10" x1="1102.26" y1="1080.9" x2="1102.26" y2="2161.9"/>
            </g>
            <g id="_Repetición_de_cuadrícula_-87" data-name="&amp;lt;Repetición de cuadrícula&amp;gt;">
              <line class="cls-10" x1="1149.93" y1="1080.9" x2="1149.93" y2="2161.9"/>
            </g>
            <g id="_Repetición_de_cuadrícula_-88" data-name="&amp;lt;Repetición de cuadrícula&amp;gt;">
              <line class="cls-10" x1="1197.59" y1="1080.9" x2="1197.59" y2="2161.9"/>
            </g>
            <g id="_Repetición_de_cuadrícula_-89" data-name="&amp;lt;Repetición de cuadrícula&amp;gt;">
              <line class="cls-10" x1="1245.26" y1="1080.9" x2="1245.26" y2="2161.9"/>
            </g>
            <g id="_Repetición_de_cuadrícula_-90" data-name="&amp;lt;Repetición de cuadrícula&amp;gt;">
              <line class="cls-10" x1="1292.93" y1="1080.9" x2="1292.93" y2="2161.9"/>
            </g>
            <g id="_Repetición_de_cuadrícula_-91" data-name="&amp;lt;Repetición de cuadrícula&amp;gt;">
              <line class="cls-10" x1="1340.59" y1="1080.9" x2="1340.59" y2="2161.9"/>
            </g>
            <g id="_Repetición_de_cuadrícula_-92" data-name="&amp;lt;Repetición de cuadrícula&amp;gt;">
              <line class="cls-10" x1="1388.26" y1="1080.9" x2="1388.26" y2="2161.9"/>
            </g>
            <g id="_Repetición_de_cuadrícula_-93" data-name="&amp;lt;Repetición de cuadrícula&amp;gt;">
              <line class="cls-10" x1="1435.92" y1="1080.9" x2="1435.92" y2="2161.9"/>
            </g>
            <g id="_Repetición_de_cuadrícula_-94" data-name="&amp;lt;Repetición de cuadrícula&amp;gt;">
              <line class="cls-10" x1="1483.59" y1="1080.9" x2="1483.59" y2="2161.9"/>
            </g>
            <g id="_Repetición_de_cuadrícula_-95" data-name="&amp;lt;Repetición de cuadrícula&amp;gt;">
              <line class="cls-10" x1="1531.26" y1="1080.9" x2="1531.26" y2="2161.9"/>
            </g>
            <g id="_Repetición_de_cuadrícula_-96" data-name="&amp;lt;Repetición de cuadrícula&amp;gt;">
              <line class="cls-10" x1="1578.92" y1="1080.9" x2="1578.92" y2="2161.9"/>
            </g>
            <g id="_Repetición_de_cuadrícula_-97" data-name="&amp;lt;Repetición de cuadrícula&amp;gt;">
              <line class="cls-10" x1="1626.59" y1="1080.9" x2="1626.59" y2="2161.9"/>
            </g>
            <g id="_Repetición_de_cuadrícula_-98" data-name="&amp;lt;Repetición de cuadrícula&amp;gt;">
              <line class="cls-10" x1="1674.25" y1="1080.9" x2="1674.25" y2="2161.9"/>
            </g>
            <g id="_Repetición_de_cuadrícula_-99" data-name="&amp;lt;Repetición de cuadrícula&amp;gt;">
              <line class="cls-10" x1="1721.92" y1="1080.9" x2="1721.92" y2="2161.9"/>
            </g>
            <g id="_Repetición_de_cuadrícula_-100" data-name="&amp;lt;Repetición de cuadrícula&amp;gt;">
              <line class="cls-10" x1="1769.59" y1="1080.9" x2="1769.59" y2="2161.9"/>
            </g>
            <g id="_Repetición_de_cuadrícula_-101" data-name="&amp;lt;Repetición de cuadrícula&amp;gt;">
              <line class="cls-10" x1="1817.25" y1="1080.9" x2="1817.25" y2="2161.9"/>
            </g>
            <g id="_Repetición_de_cuadrícula_-102" data-name="&amp;lt;Repetición de cuadrícula&amp;gt;">
              <line class="cls-10" x1="1864.92" y1="1080.9" x2="1864.92" y2="2161.9"/>
            </g>
          </g>
        </g>
        <g>
          <g>
            <polygon class="cls-11" points="108.2 254.29 108.2 116.23 -271.32 254.29 108.2 254.29"/>
            <polygon class="cls-11" points="108.2 -21.83 108.2 116.23 487.72 -21.83 108.2 -21.83"/>
          </g>
          <polygon class="cls-11" points="867.24 116.23 867.24 -21.83 487.72 116.23 867.24 116.23"/>
          <g>
            <polygon class="cls-11" points="1626.29 254.29 1626.29 116.23 1246.77 254.29 1626.29 254.29"/>
            <polygon class="cls-11" points="1626.29 -21.83 1626.29 116.23 2005.81 -21.83 1626.29 -21.83"/>
          </g>
          <g>
            <polygon class="cls-11" points="108.2 530.42 108.2 392.35 -271.32 530.42 108.2 530.42"/>
            <polygon class="cls-11" points="108.2 254.29 108.2 392.35 487.72 254.29 108.2 254.29"/>
          </g>
          <g>
            <polygon class="cls-11" points="867.24 392.35 867.24 254.29 487.72 392.35 867.24 392.35"/>
            <polygon class="cls-11" points="867.24 116.23 867.24 254.29 1246.77 116.23 867.24 116.23"/>
          </g>
          <g>
            <polygon class="cls-11" points="1626.29 530.42 1626.29 392.35 1246.77 530.42 1626.29 530.42"/>
            <polygon class="cls-11" points="1626.29 254.29 1626.29 392.35 2005.81 254.29 1626.29 254.29"/>
          </g>
          <g>
            <polygon class="cls-11" points="108.2 806.54 108.2 668.48 -271.32 806.54 108.2 806.54"/>
            <polygon class="cls-11" points="108.2 530.42 108.2 668.48 487.72 530.42 108.2 530.42"/>
          </g>
          <g>
            <polygon class="cls-11" points="867.24 668.48 867.24 530.42 487.72 668.48 867.24 668.48"/>
            <polygon class="cls-11" points="867.24 392.35 867.24 530.42 1246.77 392.35 867.24 392.35"/>
          </g>
          <g>
            <polygon class="cls-11" points="1626.29 806.54 1626.29 668.48 1246.77 806.54 1626.29 806.54"/>
            <polygon class="cls-11" points="1626.29 530.42 1626.29 668.48 2005.81 530.42 1626.29 530.42"/>
          </g>
          <g>
            <polygon class="cls-11" points="108.2 1082.66 108.2 944.6 -271.32 1082.66 108.2 1082.66"/>
            <polygon class="cls-11" points="108.2 806.54 108.2 944.6 487.72 806.54 108.2 806.54"/>
          </g>
          <g>
            <polygon class="cls-11" points="867.24 944.6 867.24 806.54 487.72 944.6 867.24 944.6"/>
            <polygon class="cls-11" points="867.24 668.48 867.24 806.54 1246.77 668.48 867.24 668.48"/>
          </g>
          <g>
            <polygon class="cls-11" points="1626.29 1082.66 1626.29 944.6 1246.77 1082.66 1626.29 1082.66"/>
            <polygon class="cls-11" points="1626.29 806.54 1626.29 944.6 2005.81 806.54 1626.29 806.54"/>
          </g>
          <g>
            <polygon class="cls-11" points="867.24 1220.73 867.24 1082.66 487.72 1220.73 867.24 1220.73"/>
            <polygon class="cls-11" points="867.24 944.6 867.24 1082.66 1246.77 944.6 867.24 944.6"/>
          </g>
        </g>
      </g>
    </g>
  </g>
  <g class="cls-15">
    <g>
      <g id="_Repetición_de_cuadrícula_-103" data-name="&amp;lt;Repetición de cuadrícula&amp;gt;">
        <polygon class="cls-14" points="1184.33 55.68 1184.33 -84.94 797.77 55.68 1184.33 55.68"/>
      </g>
      <g id="_Repetición_de_cuadrícula_-104" data-name="&amp;lt;Repetición de cuadrícula&amp;gt;">
        <polygon class="cls-14" points="1957.44 55.68 1957.44 -84.94 1570.89 55.68 1957.44 55.68"/>
      </g>
      <g id="_Repetición_de_cuadrícula_-105" data-name="&amp;lt;Repetición de cuadrícula&amp;gt;">
        <g>
          <polygon class="cls-14" points="1184.33 336.93 1184.33 196.31 797.77 336.93 1184.33 336.93"/>
          <polygon class="cls-14" points="1184.33 55.68 1184.33 196.31 1570.89 55.68 1184.33 55.68"/>
        </g>
      </g>
      <g id="_Repetición_de_cuadrícula_-106" data-name="&amp;lt;Repetición de cuadrícula&amp;gt;">
        <polygon class="cls-14" points="1957.44 336.93 1957.44 196.31 1570.89 336.93 1957.44 336.93"/>
      </g>
      <g id="_Repetición_de_cuadrícula_-107" data-name="&amp;lt;Repetición de cuadrícula&amp;gt;">
        <g>
          <polygon class="cls-14" points="1184.33 618.17 1184.33 477.55 797.77 618.17 1184.33 618.17"/>
          <polygon class="cls-14" points="1184.33 336.93 1184.33 477.55 1570.89 336.93 1184.33 336.93"/>
        </g>
      </g>
      <g id="_Repetición_de_cuadrícula_-108" data-name="&amp;lt;Repetición de cuadrícula&amp;gt;">
        <polygon class="cls-14" points="1957.44 618.17 1957.44 477.55 1570.89 618.17 1957.44 618.17"/>
      </g>
      <g id="_Repetición_de_cuadrícula_-109" data-name="&amp;lt;Repetición de cuadrícula&amp;gt;">
        <g>
          <polygon class="cls-14" points="1184.33 899.41 1184.33 758.79 797.77 899.41 1184.33 899.41"/>
          <polygon class="cls-14" points="1184.33 618.17 1184.33 758.79 1570.89 618.17 1184.33 618.17"/>
        </g>
      </g>
      <g id="_Repetición_de_cuadrícula_-110" data-name="&amp;lt;Repetición de cuadrícula&amp;gt;">
        <polygon class="cls-14" points="1957.44 899.41 1957.44 758.79 1570.89 899.41 1957.44 899.41"/>
      </g>
      <g id="_Repetición_de_cuadrícula_-111" data-name="&amp;lt;Repetición de cuadrícula&amp;gt;">
        <g>
          <polygon class="cls-14" points="1184.33 1180.65 1184.33 1040.03 797.77 1180.65 1184.33 1180.65"/>
          <polygon class="cls-14" points="1184.33 899.41 1184.33 1040.03 1570.89 899.41 1184.33 899.41"/>
        </g>
      </g>
      <g id="_Repetición_de_cuadrícula_-112" data-name="&amp;lt;Repetición de cuadrícula&amp;gt;">
        <polygon class="cls-14" points="1957.44 1180.65 1957.44 1040.03 1570.89 1180.65 1957.44 1180.65"/>
      </g>
    </g>
  </g>
  <g>
    <g class="cls-21">
      <g>
        <g id="_Repetición_de_cuadrícula_-113" data-name="&amp;lt;Repetición de cuadrícula&amp;gt;">
          <path class="cls-9" d="M1900.96,1545.91l2036.48-741.23"/>
        </g>
        <g id="_Repetición_de_cuadrícula_-114" data-name="&amp;lt;Repetición de cuadrícula&amp;gt;">
          <path class="cls-9" d="M1900.96,1599.7l2036.48-741.23"/>
        </g>
        <g id="_Repetición_de_cuadrícula_-115" data-name="&amp;lt;Repetición de cuadrícula&amp;gt;">
          <path class="cls-9" d="M1900.96,1653.5l2036.48-741.23"/>
        </g>
        <g id="_Repetición_de_cuadrícula_-116" data-name="&amp;lt;Repetición de cuadrícula&amp;gt;">
          <path class="cls-9" d="M1900.96,1707.29l2036.48-741.23"/>
        </g>
        <g id="_Repetición_de_cuadrícula_-117" data-name="&amp;lt;Repetición de cuadrícula&amp;gt;">
          <path class="cls-9" d="M1900.96,1761.08l2036.48-741.23"/>
        </g>
        <g id="_Repetición_de_cuadrícula_-118" data-name="&amp;lt;Repetición de cuadrícula&amp;gt;">
          <path class="cls-9" d="M1900.96,1814.88l2036.48-741.23"/>
        </g>
      </g>
    </g>
    <g class="cls-24">
      <g>
        <g id="_Repetición_de_cuadrícula_-119" data-name="&amp;lt;Repetición de cuadrícula&amp;gt;">
          <path class="cls-7" d="M1900.96,1543.34l2036.48-741.23"/>
        </g>
        <g id="_Repetición_de_cuadrícula_-120" data-name="&amp;lt;Repetición de cuadrícula&amp;gt;">
          <path class="cls-7" d="M1900.96,1597.13l2036.48-741.23"/>
        </g>
        <g id="_Repetición_de_cuadrícula_-121" data-name="&amp;lt;Repetición de cuadrícula&amp;gt;">
          <path class="cls-7" d="M1900.96,1650.92l2036.48-741.23"/>
        </g>
        <g id="_Repetición_de_cuadrícula_-122" data-name="&amp;lt;Repetición de cuadrícula&amp;gt;">
          <path class="cls-7" d="M1900.96,1704.72l2036.48-741.23"/>
        </g>
        <g id="_Repetición_de_cuadrícula_-123" data-name="&amp;lt;Repetición de cuadrícula&amp;gt;">
          <path class="cls-7" d="M1900.96,1758.51l2036.48-741.23"/>
        </g>
        <g id="_Repetición_de_cuadrícula_-124" data-name="&amp;lt;Repetición de cuadrícula&amp;gt;">
          <path class="cls-7" d="M1900.96,1812.3l2036.48-741.23"/>
        </g>
      </g>
    </g>
    <g class="cls-22">
      <g>
        <g id="_Repetición_de_cuadrícula_-125" data-name="&amp;lt;Repetición de cuadrícula&amp;gt;">
          <path class="cls-8" d="M1900.96,1535.62l2036.48-741.23"/>
        </g>
        <g id="_Repetición_de_cuadrícula_-126" data-name="&amp;lt;Repetición de cuadrícula&amp;gt;">
          <path class="cls-8" d="M1900.96,1589.42l2036.48-741.23"/>
        </g>
        <g id="_Repetición_de_cuadrícula_-127" data-name="&amp;lt;Repetición de cuadrícula&amp;gt;">
          <path class="cls-8" d="M1900.96,1643.21l2036.48-741.23"/>
        </g>
        <g id="_Repetición_de_cuadrícula_-128" data-name="&amp;lt;Repetición de cuadrícula&amp;gt;">
          <path class="cls-8" d="M1900.96,1697l2036.48-741.23"/>
        </g>
        <g id="_Repetición_de_cuadrícula_-129" data-name="&amp;lt;Repetición de cuadrícula&amp;gt;">
          <path class="cls-8" d="M1900.96,1750.8l2036.48-741.23"/>
        </g>
        <g id="_Repetición_de_cuadrícula_-130" data-name="&amp;lt;Repetición de cuadrícula&amp;gt;">
          <path class="cls-8" d="M1900.96,1804.59l2036.48-741.23"/>
        </g>
      </g>
    </g>
  </g>
</svg>